<svg xmlns="http://www.w3.org/2000/svg" xmlns:xlink="http://www.w3.org/1999/xlink" width="500" zoomAndPan="magnify" viewBox="0 0 375 374.999991" height="500" preserveAspectRatio="xMidYMid meet" version="1.0"><defs><filter x="0%" y="0%" width="100%" height="100%" id="9ea11def40"><feColorMatrix values="0 0 0 0 1 0 0 0 0 1 0 0 0 0 1 0 0 0 1 0" color-interpolation-filters="sRGB"/></filter><g/><mask id="5566af1356"><g filter="url(#9ea11def40)"><rect x="-37.5" width="450" fill="#000000" y="-37.499999" height="449.999989" fill-opacity="0.61"/></g></mask><clipPath id="8abaf569dd"><rect x="0" width="116" y="0" height="57"/></clipPath><clipPath id="71813fe027"><path d="M 82.070312 151.257812 L 104 151.257812 L 104 224 L 82.070312 224 Z M 82.070312 151.257812 " clip-rule="nonzero"/></clipPath><clipPath id="22e7501d76"><path d="M 271 151.257812 L 292.820312 151.257812 L 292.820312 224 L 271 224 Z M 271 151.257812 " clip-rule="nonzero"/></clipPath><mask id="de3a830262"><g filter="url(#9ea11def40)"><rect x="-37.5" width="450" fill="#000000" y="-37.499999" height="449.999989" fill-opacity="0.12"/></g></mask><clipPath id="ab500ab542"><path d="M 0.078125 0.285156 L 148.644531 0.285156 L 148.644531 133 L 0.078125 133 Z M 0.078125 0.285156 " clip-rule="nonzero"/></clipPath><clipPath id="5528801091"><rect x="0" width="149" y="0" height="133"/></clipPath></defs><g mask="url(#5566af1356)"><g transform="matrix(1, 0, 0, 1, 130, 159)"><g clip-path="url(#8abaf569dd)"><g fill="#ffffff" fill-opacity="1"><g transform="translate(0.368548, 43.874972)"><g><path d="M 2.765625 0 L 2.765625 -0.703125 C 3.597656 -0.953125 4.164062 -1.492188 4.46875 -2.328125 C 4.78125 -3.160156 4.9375 -4.679688 4.9375 -6.890625 L 4.9375 -31.078125 C 4.9375 -33.328125 4.78125 -34.859375 4.46875 -35.671875 C 4.164062 -36.484375 3.597656 -37.015625 2.765625 -37.265625 L 2.765625 -37.96875 L 15.734375 -37.96875 C 19.453125 -37.96875 22.628906 -37.4375 25.265625 -36.375 C 27.910156 -35.3125 30.066406 -33.890625 31.734375 -32.109375 C 33.398438 -30.335938 34.617188 -28.375 35.390625 -26.21875 C 36.171875 -24.070312 36.5625 -21.894531 36.5625 -19.6875 C 36.601562 -15.894531 35.816406 -12.515625 34.203125 -9.546875 C 32.597656 -6.578125 30.320312 -4.242188 27.375 -2.546875 C 24.425781 -0.847656 20.960938 0 16.984375 0 Z M 9.390625 -4.78125 C 9.390625 -3.507812 9.601562 -2.53125 10.03125 -1.84375 C 10.46875 -1.15625 11.425781 -0.8125 12.90625 -0.8125 L 16.875 -0.8125 C 21.613281 -0.8125 25.253906 -2.175781 27.796875 -4.90625 C 30.347656 -7.632812 31.625 -11.835938 31.625 -17.515625 C 31.625 -21.140625 30.914062 -24.429688 29.5 -27.390625 C 28.09375 -30.359375 26.015625 -32.726562 23.265625 -34.5 C 20.523438 -36.269531 17.128906 -37.15625 13.078125 -37.15625 L 9.390625 -37.15625 Z M 9.390625 -4.78125 "/></g></g></g><g fill="#ffffff" fill-opacity="1"><g transform="translate(39.696945, 43.874972)"><g><path d="M 10.25 0 L 10.25 -0.703125 C 11.082031 -0.953125 11.648438 -1.492188 11.953125 -2.328125 C 12.265625 -3.160156 12.40625 -4.679688 12.375 -6.890625 L 12.375 -17.09375 L 4.171875 -31.953125 C 3.128906 -33.867188 2.207031 -35.171875 1.40625 -35.859375 C 0.613281 -36.546875 -0.0703125 -37.015625 -0.65625 -37.265625 L -0.65625 -37.96875 L 7.921875 -37.96875 L 7.921875 -37.265625 C 7.128906 -37.015625 6.859375 -36.546875 7.109375 -35.859375 C 7.359375 -35.171875 8.023438 -33.867188 9.109375 -31.953125 L 16.65625 -18.5 L 24.25 -31.953125 C 25.1875 -33.617188 25.65625 -34.875 25.65625 -35.71875 C 25.65625 -36.570312 25.132812 -37.085938 24.09375 -37.265625 L 24.09375 -37.96875 L 30.546875 -37.96875 L 30.546875 -37.265625 C 29.816406 -37.015625 29.019531 -36.546875 28.15625 -35.859375 C 27.289062 -35.171875 26.3125 -33.867188 25.21875 -31.953125 L 16.921875 -17.203125 L 16.921875 -6.890625 C 16.921875 -4.679688 17.070312 -3.160156 17.375 -2.328125 C 17.6875 -1.492188 18.257812 -0.953125 19.09375 -0.703125 L 19.09375 0 Z M 10.25 0 "/></g></g></g><g fill="#ffffff" fill-opacity="1"><g transform="translate(69.532286, 43.874972)"><g><path d="M 2.71875 0 L 2.71875 -0.703125 C 3.539062 -0.953125 4.101562 -1.492188 4.40625 -2.328125 C 4.71875 -3.160156 4.875 -4.679688 4.875 -6.890625 L 4.875 -28.921875 C 4.875 -30.972656 4.75 -32.566406 4.5 -33.703125 C 4.25 -34.847656 3.878906 -35.671875 3.390625 -36.171875 C 2.898438 -36.679688 2.296875 -37.046875 1.578125 -37.265625 L 1.578125 -37.96875 L 8.140625 -37.96875 L 22.296875 -14.59375 L 36.1875 -37.96875 L 42.3125 -37.96875 L 42.3125 -37.265625 C 41.59375 -37.046875 40.988281 -36.679688 40.5 -36.171875 C 40.007812 -35.671875 39.632812 -34.847656 39.375 -33.703125 C 39.125 -32.566406 39 -30.972656 39 -28.921875 L 39 -6.890625 C 39 -4.679688 39.148438 -3.160156 39.453125 -2.328125 C 39.765625 -1.492188 40.335938 -0.953125 41.171875 -0.703125 L 41.171875 0 L 32.390625 0 L 32.390625 -0.703125 C 33.222656 -0.953125 33.789062 -1.492188 34.09375 -2.328125 C 34.40625 -3.160156 34.5625 -4.679688 34.5625 -6.890625 L 34.5625 -33.578125 L 20.78125 -10.3125 L 19.75 -10.3125 L 5.859375 -33.140625 L 5.859375 -9.0625 C 5.859375 -7 6.003906 -5.40625 6.296875 -4.28125 C 6.585938 -3.164062 7.003906 -2.34375 7.546875 -1.8125 C 8.085938 -1.289062 8.753906 -0.921875 9.546875 -0.703125 L 9.546875 0 Z M 2.71875 0 "/></g></g></g></g></g></g><g clip-path="url(#71813fe027)"><path fill="#ffffff" d="M 102.445312 151.390625 C 102.445312 151.390625 96.140625 151.386719 90.683594 151.425781 C 86.519531 151.457031 82.84375 151.519531 82.84375 151.519531 C 82.414062 151.53125 82.070312 151.882812 82.074219 152.3125 C 82.074219 152.3125 82.164062 180.957031 82.261719 201.769531 C 82.320312 213.640625 82.382812 222.964844 82.382812 222.964844 C 82.386719 223.367188 82.710938 223.695312 83.117188 223.695312 L 102.914062 223.578125 C 103.199219 223.582031 103.433594 223.351562 103.4375 223.0625 C 103.4375 222.777344 103.207031 222.546875 102.921875 222.542969 L 83.855469 222.238281 C 83.851562 219.835938 83.847656 211.691406 83.820312 201.761719 C 83.773438 182.964844 83.671875 157.78125 83.652344 153.078125 C 84.945312 153.050781 87.699219 152.984375 90.710938 152.890625 C 96.167969 152.726562 102.464844 152.480469 102.464844 152.480469 C 102.765625 152.476562 103.003906 152.226562 103 151.925781 C 102.992188 151.625 102.746094 151.382812 102.445312 151.390625 Z M 102.445312 151.390625 " fill-opacity="1" fill-rule="evenodd"/></g><g clip-path="url(#22e7501d76)"><path fill="#ffffff" d="M 272.546875 223.609375 C 272.546875 223.609375 278.851562 223.613281 284.308594 223.570312 C 288.472656 223.539062 292.144531 223.476562 292.144531 223.476562 C 292.578125 223.46875 292.921875 223.117188 292.917969 222.6875 C 292.917969 222.6875 292.828125 194.039062 292.726562 173.230469 C 292.671875 161.355469 292.605469 152.035156 292.605469 152.035156 C 292.605469 151.628906 292.277344 151.304688 291.875 151.300781 L 272.074219 151.417969 C 271.789062 151.417969 271.558594 151.648438 271.554688 151.933594 C 271.554688 152.21875 271.785156 152.453125 272.070312 152.453125 L 291.136719 152.761719 C 291.136719 155.164062 291.144531 163.308594 291.171875 173.234375 C 291.21875 192.03125 291.320312 217.21875 291.339844 221.917969 C 290.046875 221.949219 287.292969 222.015625 284.28125 222.105469 C 278.824219 222.273438 272.527344 222.515625 272.527344 222.515625 C 272.226562 222.523438 271.984375 222.769531 271.992188 223.070312 C 271.996094 223.375 272.246094 223.613281 272.546875 223.609375 Z M 272.546875 223.609375 " fill-opacity="1" fill-rule="evenodd"/></g><g fill="#ffffff" fill-opacity="1"><g transform="translate(143.770786, 217.822074)"><g><path d="M 1.25 -6.546875 L 3.71875 -6.546875 C 4.40625 -6.546875 5.007812 -6.40625 5.53125 -6.125 C 6.050781 -5.84375 6.453125 -5.453125 6.734375 -4.953125 C 7.023438 -4.460938 7.171875 -3.90625 7.171875 -3.28125 C 7.171875 -2.65625 7.023438 -2.09375 6.734375 -1.59375 C 6.453125 -1.09375 6.050781 -0.703125 5.53125 -0.421875 C 5.007812 -0.140625 4.40625 0 3.71875 0 L 1.25 0 Z M 3.703125 -0.171875 C 4.359375 -0.171875 4.929688 -0.300781 5.421875 -0.5625 C 5.921875 -0.832031 6.304688 -1.203125 6.578125 -1.671875 C 6.847656 -2.148438 6.984375 -2.6875 6.984375 -3.28125 C 6.984375 -3.875 6.847656 -4.40625 6.578125 -4.875 C 6.304688 -5.34375 5.921875 -5.707031 5.421875 -5.96875 C 4.929688 -6.238281 4.359375 -6.375 3.703125 -6.375 L 1.4375 -6.375 L 1.4375 -0.171875 Z M 3.703125 -0.171875 "/></g></g></g><g fill="#ffffff" fill-opacity="1"><g transform="translate(151.494208, 217.822074)"><g><path d="M 4.984375 -2.421875 L 0.6875 -2.421875 C 0.6875 -1.984375 0.78125 -1.59375 0.96875 -1.25 C 1.164062 -0.90625 1.429688 -0.632812 1.765625 -0.4375 C 2.109375 -0.25 2.492188 -0.15625 2.921875 -0.15625 C 3.253906 -0.15625 3.5625 -0.21875 3.84375 -0.34375 C 4.132812 -0.46875 4.375 -0.65625 4.5625 -0.90625 L 4.703125 -0.765625 C 4.484375 -0.515625 4.21875 -0.316406 3.90625 -0.171875 C 3.59375 -0.0351562 3.265625 0.03125 2.921875 0.03125 C 2.460938 0.03125 2.046875 -0.0703125 1.671875 -0.28125 C 1.304688 -0.488281 1.019531 -0.78125 0.8125 -1.15625 C 0.601562 -1.53125 0.5 -1.953125 0.5 -2.421875 C 0.5 -2.890625 0.59375 -3.304688 0.78125 -3.671875 C 0.976562 -4.046875 1.25 -4.335938 1.59375 -4.546875 C 1.9375 -4.753906 2.320312 -4.859375 2.75 -4.859375 C 3.164062 -4.859375 3.546875 -4.753906 3.890625 -4.546875 C 4.234375 -4.347656 4.5 -4.066406 4.6875 -3.703125 C 4.882812 -3.335938 4.984375 -2.925781 4.984375 -2.46875 Z M 2.75 -4.6875 C 2.375 -4.6875 2.03125 -4.59375 1.71875 -4.40625 C 1.414062 -4.226562 1.171875 -3.976562 0.984375 -3.65625 C 0.804688 -3.34375 0.707031 -2.992188 0.6875 -2.609375 L 4.8125 -2.609375 C 4.789062 -2.992188 4.6875 -3.34375 4.5 -3.65625 C 4.3125 -3.976562 4.0625 -4.226562 3.75 -4.40625 C 3.445312 -4.59375 3.113281 -4.6875 2.75 -4.6875 Z M 2.75 -4.6875 "/></g></g></g><g fill="#ffffff" fill-opacity="1"><g transform="translate(156.98289, 217.822074)"><g><path d="M 4.703125 -4.84375 L 2.46875 0 L 2.28125 0 L 0.0625 -4.84375 L 0.265625 -4.84375 L 2.375 -0.21875 L 4.484375 -4.84375 Z M 4.703125 -4.84375 "/></g></g></g><g fill="#ffffff" fill-opacity="1"><g transform="translate(161.732894, 217.822074)"><g><path d="M 4.984375 -2.421875 L 0.6875 -2.421875 C 0.6875 -1.984375 0.78125 -1.59375 0.96875 -1.25 C 1.164062 -0.90625 1.429688 -0.632812 1.765625 -0.4375 C 2.109375 -0.25 2.492188 -0.15625 2.921875 -0.15625 C 3.253906 -0.15625 3.5625 -0.21875 3.84375 -0.34375 C 4.132812 -0.46875 4.375 -0.65625 4.5625 -0.90625 L 4.703125 -0.765625 C 4.484375 -0.515625 4.21875 -0.316406 3.90625 -0.171875 C 3.59375 -0.0351562 3.265625 0.03125 2.921875 0.03125 C 2.460938 0.03125 2.046875 -0.0703125 1.671875 -0.28125 C 1.304688 -0.488281 1.019531 -0.78125 0.8125 -1.15625 C 0.601562 -1.53125 0.5 -1.953125 0.5 -2.421875 C 0.5 -2.890625 0.59375 -3.304688 0.78125 -3.671875 C 0.976562 -4.046875 1.25 -4.335938 1.59375 -4.546875 C 1.9375 -4.753906 2.320312 -4.859375 2.75 -4.859375 C 3.164062 -4.859375 3.546875 -4.753906 3.890625 -4.546875 C 4.234375 -4.347656 4.5 -4.066406 4.6875 -3.703125 C 4.882812 -3.335938 4.984375 -2.925781 4.984375 -2.46875 Z M 2.75 -4.6875 C 2.375 -4.6875 2.03125 -4.59375 1.71875 -4.40625 C 1.414062 -4.226562 1.171875 -3.976562 0.984375 -3.65625 C 0.804688 -3.34375 0.707031 -2.992188 0.6875 -2.609375 L 4.8125 -2.609375 C 4.789062 -2.992188 4.6875 -3.34375 4.5 -3.65625 C 4.3125 -3.976562 4.0625 -4.226562 3.75 -4.40625 C 3.445312 -4.59375 3.113281 -4.6875 2.75 -4.6875 Z M 2.75 -4.6875 "/></g></g></g><g fill="#ffffff" fill-opacity="1"><g transform="translate(167.221576, 217.822074)"><g><path d="M 1.078125 -6.9375 L 1.265625 -6.9375 L 1.265625 0 L 1.078125 0 Z M 1.078125 -6.9375 "/></g></g></g><g fill="#ffffff" fill-opacity="1"><g transform="translate(169.55917, 217.822074)"><g><path d="M 2.859375 0.03125 C 2.410156 0.03125 2.003906 -0.0703125 1.640625 -0.28125 C 1.285156 -0.488281 1.003906 -0.78125 0.796875 -1.15625 C 0.597656 -1.53125 0.5 -1.953125 0.5 -2.421875 C 0.5 -2.890625 0.597656 -3.304688 0.796875 -3.671875 C 1.003906 -4.046875 1.285156 -4.335938 1.640625 -4.546875 C 2.003906 -4.753906 2.410156 -4.859375 2.859375 -4.859375 C 3.296875 -4.859375 3.691406 -4.753906 4.046875 -4.546875 C 4.410156 -4.335938 4.691406 -4.046875 4.890625 -3.671875 C 5.097656 -3.304688 5.203125 -2.890625 5.203125 -2.421875 C 5.203125 -1.953125 5.097656 -1.53125 4.890625 -1.15625 C 4.691406 -0.78125 4.410156 -0.488281 4.046875 -0.28125 C 3.691406 -0.0703125 3.296875 0.03125 2.859375 0.03125 Z M 2.859375 -0.15625 C 3.265625 -0.15625 3.628906 -0.25 3.953125 -0.4375 C 4.285156 -0.632812 4.546875 -0.90625 4.734375 -1.25 C 4.921875 -1.59375 5.015625 -1.984375 5.015625 -2.421875 C 5.015625 -2.859375 4.921875 -3.25 4.734375 -3.59375 C 4.546875 -3.945312 4.285156 -4.21875 3.953125 -4.40625 C 3.628906 -4.59375 3.265625 -4.6875 2.859375 -4.6875 C 2.453125 -4.6875 2.082031 -4.59375 1.75 -4.40625 C 1.414062 -4.21875 1.15625 -3.945312 0.96875 -3.59375 C 0.78125 -3.25 0.6875 -2.859375 0.6875 -2.421875 C 0.6875 -1.984375 0.78125 -1.59375 0.96875 -1.25 C 1.15625 -0.90625 1.414062 -0.632812 1.75 -0.4375 C 2.082031 -0.25 2.453125 -0.15625 2.859375 -0.15625 Z M 2.859375 -0.15625 "/></g></g></g><g fill="#ffffff" fill-opacity="1"><g transform="translate(175.26291, 217.822074)"><g><path d="M 3.421875 -4.859375 C 3.859375 -4.859375 4.253906 -4.753906 4.609375 -4.546875 C 4.972656 -4.335938 5.257812 -4.046875 5.46875 -3.671875 C 5.675781 -3.296875 5.78125 -2.878906 5.78125 -2.421875 C 5.78125 -1.953125 5.675781 -1.53125 5.46875 -1.15625 C 5.257812 -0.78125 4.972656 -0.488281 4.609375 -0.28125 C 4.253906 -0.0703125 3.859375 0.03125 3.421875 0.03125 C 2.921875 0.03125 2.472656 -0.101562 2.078125 -0.375 C 1.691406 -0.644531 1.421875 -1.007812 1.265625 -1.46875 L 1.265625 1.8125 L 1.078125 1.8125 L 1.078125 -4.84375 L 1.265625 -4.84375 L 1.265625 -3.359375 C 1.421875 -3.816406 1.691406 -4.179688 2.078125 -4.453125 C 2.472656 -4.722656 2.921875 -4.859375 3.421875 -4.859375 Z M 3.421875 -0.15625 C 3.828125 -0.15625 4.195312 -0.25 4.53125 -0.4375 C 4.863281 -0.625 5.125 -0.890625 5.3125 -1.234375 C 5.5 -1.585938 5.59375 -1.984375 5.59375 -2.421875 C 5.59375 -2.847656 5.5 -3.234375 5.3125 -3.578125 C 5.125 -3.929688 4.863281 -4.203125 4.53125 -4.390625 C 4.195312 -4.585938 3.828125 -4.6875 3.421875 -4.6875 C 3.015625 -4.6875 2.644531 -4.585938 2.3125 -4.390625 C 1.988281 -4.203125 1.734375 -3.929688 1.546875 -3.578125 C 1.359375 -3.234375 1.265625 -2.847656 1.265625 -2.421875 C 1.265625 -1.984375 1.359375 -1.585938 1.546875 -1.234375 C 1.734375 -0.890625 1.988281 -0.625 2.3125 -0.4375 C 2.644531 -0.25 3.015625 -0.15625 3.421875 -0.15625 Z M 3.421875 -0.15625 "/></g></g></g><g fill="#ffffff" fill-opacity="1"><g transform="translate(181.537026, 217.822074)"><g/></g></g><g fill="#ffffff" fill-opacity="1"><g transform="translate(183.874621, 217.822074)"><g><path d="M 2.953125 -2.234375 L 2.953125 0 L 2.765625 0 L 2.765625 -2.234375 L 0.09375 -6.546875 L 0.3125 -6.546875 L 2.859375 -2.421875 L 5.40625 -6.546875 L 5.609375 -6.546875 Z M 2.953125 -2.234375 "/></g></g></g><g fill="#ffffff" fill-opacity="1"><g transform="translate(189.57836, 217.822074)"><g><path d="M 2.859375 0.03125 C 2.410156 0.03125 2.003906 -0.0703125 1.640625 -0.28125 C 1.285156 -0.488281 1.003906 -0.78125 0.796875 -1.15625 C 0.597656 -1.53125 0.5 -1.953125 0.5 -2.421875 C 0.5 -2.890625 0.597656 -3.304688 0.796875 -3.671875 C 1.003906 -4.046875 1.285156 -4.335938 1.640625 -4.546875 C 2.003906 -4.753906 2.410156 -4.859375 2.859375 -4.859375 C 3.296875 -4.859375 3.691406 -4.753906 4.046875 -4.546875 C 4.410156 -4.335938 4.691406 -4.046875 4.890625 -3.671875 C 5.097656 -3.304688 5.203125 -2.890625 5.203125 -2.421875 C 5.203125 -1.953125 5.097656 -1.53125 4.890625 -1.15625 C 4.691406 -0.78125 4.410156 -0.488281 4.046875 -0.28125 C 3.691406 -0.0703125 3.296875 0.03125 2.859375 0.03125 Z M 2.859375 -0.15625 C 3.265625 -0.15625 3.628906 -0.25 3.953125 -0.4375 C 4.285156 -0.632812 4.546875 -0.90625 4.734375 -1.25 C 4.921875 -1.59375 5.015625 -1.984375 5.015625 -2.421875 C 5.015625 -2.859375 4.921875 -3.25 4.734375 -3.59375 C 4.546875 -3.945312 4.285156 -4.21875 3.953125 -4.40625 C 3.628906 -4.59375 3.265625 -4.6875 2.859375 -4.6875 C 2.453125 -4.6875 2.082031 -4.59375 1.75 -4.40625 C 1.414062 -4.21875 1.15625 -3.945312 0.96875 -3.59375 C 0.78125 -3.25 0.6875 -2.859375 0.6875 -2.421875 C 0.6875 -1.984375 0.78125 -1.59375 0.96875 -1.25 C 1.15625 -0.90625 1.414062 -0.632812 1.75 -0.4375 C 2.082031 -0.25 2.453125 -0.15625 2.859375 -0.15625 Z M 2.859375 -0.15625 "/></g></g></g><g fill="#ffffff" fill-opacity="1"><g transform="translate(195.282099, 217.822074)"><g><path d="M 5.140625 -4.84375 L 5.140625 0 L 4.953125 0 L 4.953125 -1.28125 C 4.804688 -0.875 4.5625 -0.550781 4.21875 -0.3125 C 3.882812 -0.0820312 3.476562 0.03125 3 0.03125 C 2.375 0.03125 1.882812 -0.140625 1.53125 -0.484375 C 1.1875 -0.835938 1.015625 -1.335938 1.015625 -1.984375 L 1.015625 -4.84375 L 1.203125 -4.84375 L 1.203125 -1.984375 C 1.203125 -1.390625 1.359375 -0.9375 1.671875 -0.625 C 1.984375 -0.3125 2.425781 -0.15625 3 -0.15625 C 3.601562 -0.15625 4.078125 -0.34375 4.421875 -0.71875 C 4.773438 -1.09375 4.953125 -1.585938 4.953125 -2.203125 L 4.953125 -4.84375 Z M 5.140625 -4.84375 "/></g></g></g><g fill="#ffffff" fill-opacity="1"><g transform="translate(201.49076, 217.822074)"><g><path d="M 1.265625 -3.578125 C 1.398438 -3.992188 1.628906 -4.3125 1.953125 -4.53125 C 2.273438 -4.75 2.675781 -4.859375 3.15625 -4.859375 L 3.15625 -4.671875 L 3.109375 -4.671875 C 2.523438 -4.671875 2.070312 -4.484375 1.75 -4.109375 C 1.425781 -3.742188 1.265625 -3.242188 1.265625 -2.609375 L 1.265625 0 L 1.078125 0 L 1.078125 -4.84375 L 1.265625 -4.84375 Z M 1.265625 -3.578125 "/></g></g></g><g fill="#ffffff" fill-opacity="1"><g transform="translate(205.071962, 217.822074)"><g/></g></g><g fill="#ffffff" fill-opacity="1"><g transform="translate(207.409557, 217.822074)"><g><path d="M 7.703125 -6.546875 L 7.703125 0 L 7.515625 0 L 7.515625 -6.15625 L 4.53125 -0.921875 L 4.421875 -0.921875 L 1.4375 -6.125 L 1.4375 0 L 1.25 0 L 1.25 -6.546875 L 1.40625 -6.546875 L 4.46875 -1.171875 L 7.546875 -6.546875 Z M 7.703125 -6.546875 "/></g></g></g><g fill="#ffffff" fill-opacity="1"><g transform="translate(216.348538, 217.822074)"><g><path d="M 1.078125 -4.84375 L 1.265625 -4.84375 L 1.265625 0 L 1.078125 0 Z M 1.171875 -6.171875 C 1.109375 -6.171875 1.050781 -6.195312 1 -6.25 C 0.957031 -6.300781 0.9375 -6.359375 0.9375 -6.421875 C 0.9375 -6.492188 0.957031 -6.550781 1 -6.59375 C 1.050781 -6.632812 1.109375 -6.65625 1.171875 -6.65625 C 1.234375 -6.65625 1.289062 -6.632812 1.34375 -6.59375 C 1.394531 -6.550781 1.421875 -6.492188 1.421875 -6.421875 C 1.421875 -6.359375 1.394531 -6.300781 1.34375 -6.25 C 1.289062 -6.195312 1.234375 -6.171875 1.171875 -6.171875 Z M 1.171875 -6.171875 "/></g></g></g><g fill="#ffffff" fill-opacity="1"><g transform="translate(218.686133, 217.822074)"><g><path d="M 3.296875 -4.859375 C 3.898438 -4.859375 4.375 -4.6875 4.71875 -4.34375 C 5.0625 -4 5.234375 -3.503906 5.234375 -2.859375 L 5.234375 0 L 5.046875 0 L 5.046875 -2.859375 C 5.046875 -3.453125 4.894531 -3.90625 4.59375 -4.21875 C 4.289062 -4.53125 3.859375 -4.6875 3.296875 -4.6875 C 2.671875 -4.6875 2.175781 -4.5 1.8125 -4.125 C 1.445312 -3.75 1.265625 -3.25 1.265625 -2.625 L 1.265625 0 L 1.078125 0 L 1.078125 -4.84375 L 1.265625 -4.84375 L 1.265625 -3.546875 C 1.410156 -3.960938 1.65625 -4.285156 2 -4.515625 C 2.351562 -4.742188 2.785156 -4.859375 3.296875 -4.859375 Z M 3.296875 -4.859375 "/></g></g></g><g fill="#ffffff" fill-opacity="1"><g transform="translate(224.9322, 217.822074)"><g><path d="M 5.203125 -6.9375 L 5.203125 0 L 5.015625 0 L 5.015625 -1.484375 C 4.847656 -1.015625 4.570312 -0.644531 4.1875 -0.375 C 3.800781 -0.101562 3.359375 0.03125 2.859375 0.03125 C 2.421875 0.03125 2.019531 -0.0703125 1.65625 -0.28125 C 1.300781 -0.488281 1.019531 -0.78125 0.8125 -1.15625 C 0.601562 -1.53125 0.5 -1.953125 0.5 -2.421875 C 0.5 -2.890625 0.601562 -3.304688 0.8125 -3.671875 C 1.019531 -4.046875 1.300781 -4.335938 1.65625 -4.546875 C 2.019531 -4.753906 2.421875 -4.859375 2.859375 -4.859375 C 3.359375 -4.859375 3.800781 -4.722656 4.1875 -4.453125 C 4.570312 -4.179688 4.847656 -3.820312 5.015625 -3.375 L 5.015625 -6.9375 Z M 2.859375 -0.15625 C 3.265625 -0.15625 3.628906 -0.25 3.953125 -0.4375 C 4.285156 -0.632812 4.546875 -0.90625 4.734375 -1.25 C 4.921875 -1.59375 5.015625 -1.984375 5.015625 -2.421875 C 5.015625 -2.859375 4.921875 -3.25 4.734375 -3.59375 C 4.546875 -3.945312 4.285156 -4.21875 3.953125 -4.40625 C 3.628906 -4.59375 3.265625 -4.6875 2.859375 -4.6875 C 2.453125 -4.6875 2.082031 -4.59375 1.75 -4.40625 C 1.414062 -4.21875 1.15625 -3.945312 0.96875 -3.59375 C 0.78125 -3.25 0.6875 -2.859375 0.6875 -2.421875 C 0.6875 -1.984375 0.78125 -1.59375 0.96875 -1.25 C 1.15625 -0.90625 1.414062 -0.632812 1.75 -0.4375 C 2.082031 -0.25 2.453125 -0.15625 2.859375 -0.15625 Z M 2.859375 -0.15625 "/></g></g></g><g mask="url(#de3a830262)"><g transform="matrix(1, 0, 0, 1, 112, 107)"><g clip-path="url(#5528801091)"><g clip-path="url(#ab500ab542)"><path fill="#ffffff" d="M 78.148438 130.101562 C 78.335938 127.789062 78.207031 126.609375 78.191406 123.703125 C 78.246094 123.691406 78.292969 123.691406 78.332031 123.699219 L 78.296875 123.109375 L 78.355469 122.535156 C 78.332031 122.625 78.289062 122.691406 78.191406 122.703125 C 78.042969 122.171875 78.257812 122.003906 78.425781 121.785156 L 78.484375 121.1875 C 77.722656 120.210938 78.375 117.769531 78.390625 115.925781 C 78.417969 112.394531 78.359375 108.171875 78.390625 105.757812 C 78.5625 92.246094 77.585938 77.921875 81.378906 68.671875 C 85.589844 69.214844 93.242188 69.992188 97.726562 72.0625 C 97.320312 72.460938 97.199219 72.113281 96.929688 71.863281 C 97.253906 72.507812 97.027344 72.941406 96.929688 73.65625 C 98.0625 73.765625 96.757812 72.59375 97.929688 72.660156 C 97.570312 73.660156 97.195312 75.25 98.726562 75.253906 C 99.101562 75.230469 98.863281 74.59375 99.324219 74.652344 C 99.535156 74.921875 99.574219 76.378906 100.121094 75.652344 C 99.535156 75.199219 100.449219 75.199219 100.519531 75.652344 C 100.777344 75.15625 100.074219 74.683594 100.519531 74.652344 C 101.078125 75.117188 100.566406 75.496094 101.117188 76.050781 C 101.246094 75.644531 102.050781 75.917969 102.113281 75.453125 C 101.816406 74.820312 101.445312 74.261719 100.917969 73.855469 C 101.203125 73.808594 101.253906 73.527344 101.515625 73.457031 C 101.972656 74.671875 103.425781 75.695312 104.90625 75.253906 C 104.8125 75.640625 105.441406 76.273438 105.503906 75.851562 C 105.28125 75.808594 105.195312 75.628906 105.105469 75.453125 C 106.039062 75.515625 106.472656 76.078125 107.496094 76.050781 C 107.53125 75.355469 107.957031 75.046875 108.496094 74.851562 C 108.527344 75.089844 108.460938 75.417969 108.695312 75.453125 C 109.066406 75.070312 108.714844 74.949219 108.695312 74.453125 C 109.824219 74.851562 109.570312 73.867188 109.890625 73.457031 C 109.875 74.28125 111.300781 73.523438 111.285156 73.855469 C 110.347656 74.164062 110.40625 74.953125 111.085938 75.453125 C 110.46875 75.273438 110.160156 74.785156 109.492188 74.652344 C 109.253906 75.546875 108.441406 75.863281 107.699219 76.25 C 109.003906 76.769531 110.730469 75.570312 111.882812 76.449219 C 112.117188 75.191406 112.941406 75.289062 113.082031 74.054688 C 114.121094 74.011719 114.355469 74.773438 115.273438 74.851562 C 115.332031 74.460938 115.003906 74.457031 114.875 74.253906 C 115.269531 74.253906 115.128906 73.710938 115.671875 73.855469 C 116.324219 73.804688 116.25 74.476562 116.667969 74.652344 C 115.945312 74.785156 116.082031 75.226562 116.667969 75.453125 C 116.644531 74.351562 118.460938 74.484375 118.464844 75.453125 C 118.929688 75.1875 119.585938 75.113281 120.058594 74.851562 C 119.828125 74.820312 119.84375 74.539062 119.859375 74.253906 C 120.484375 74.351562 120.386719 73.71875 120.855469 73.65625 C 121.039062 74.003906 121.589844 74.207031 121.652344 73.65625 C 121.300781 73.613281 120.65625 73.859375 120.855469 73.257812 C 121.761719 73.90625 121.578125 72.855469 122.054688 72.859375 C 122.132812 73.339844 121.6875 73.292969 121.855469 73.855469 C 122.945312 72.316406 125.234375 72.914062 126.238281 72.261719 C 126.347656 71.574219 126.953125 71.378906 126.835938 70.46875 C 125.785156 70.582031 126.136719 69.929688 126.4375 69.46875 C 125.65625 69.289062 125.355469 69.980469 124.84375 69.070312 C 124.699219 70.289062 123.523438 69.238281 123.050781 70.070312 C 123.378906 69.25 122.703125 69.222656 123.050781 68.273438 C 122.339844 67.964844 122.929688 68.953125 122.449219 68.871094 C 121.71875 68.542969 120.933594 68.261719 120.65625 67.476562 C 120.613281 67.699219 120.4375 67.785156 120.257812 67.875 C 120.308594 67.050781 120.023438 67.074219 119.460938 67.277344 C 119.273438 66.179688 118.144531 66.132812 117.464844 67.078125 C 117.261719 66.617188 116.78125 66.433594 116.867188 65.683594 C 116.433594 65.554688 116.234375 66.246094 116.269531 65.484375 C 115.4375 65.832031 115.144531 66.027344 114.277344 65.484375 C 113.976562 65.78125 114.21875 66.621094 113.480469 66.480469 C 113.5 65.203125 113.089844 66.636719 112.484375 66.480469 C 113.074219 65.75 111.695312 64.109375 112.882812 63.886719 C 112.507812 63.027344 112.269531 63.132812 112.484375 61.894531 C 109.800781 61.15625 107.089844 59.71875 103.910156 59.902344 C 104.003906 60.523438 103.734375 60.789062 103.113281 60.699219 C 102.851562 60.203125 103.695312 59.871094 103.113281 59.699219 C 102.746094 59.992188 101.628906 58.949219 100.917969 59.5 C 100.980469 59.230469 101.203125 59.121094 101.117188 58.703125 C 100.601562 58.824219 100.398438 58.625 100.519531 58.105469 C 99.863281 58.113281 100.175781 59.089844 99.324219 58.902344 C 98.746094 57.730469 98.011719 58.675781 96.53125 57.90625 C 96.585938 58.359375 96.484375 58.65625 96.132812 58.703125 C 95.539062 57.996094 94.824219 58.585938 94.140625 57.90625 C 93.320312 58.550781 91.945312 58.636719 91.945312 60.101562 C 91.746094 60.101562 91.546875 60.101562 91.347656 60.101562 C 91.628906 59.839844 92.066406 59.042969 91.347656 58.902344 C 91.441406 59.71875 90.847656 58.898438 90.550781 58.902344 C 90.253906 59.269531 89.921875 59.601562 89.554688 59.902344 C 89.550781 59.636719 89.203125 59.71875 89.15625 59.5 C 89.035156 59.148438 89.738281 58.671875 89.15625 58.503906 C 88.003906 58.074219 86.886719 59.429688 85.765625 58.304688 C 85.84375 59.050781 85.605469 59.476562 84.96875 59.5 C 85.140625 58.578125 84.652344 59.292969 84.570312 58.902344 C 86.414062 55.324219 86.988281 50.246094 89.355469 47.738281 C 89.109375 47.714844 88.882812 47.679688 88.957031 47.339844 C 89.15625 47.339844 89.191406 47.179688 89.355469 47.140625 C 90.378906 47.667969 91.445312 47.136719 91.546875 46.144531 C 91.800781 46.6875 92.347656 46.9375 92.742188 47.339844 C 95.957031 47.746094 99.320312 49.5625 101.515625 50.929688 C 102.988281 51.847656 105.070312 51.957031 104.707031 53.917969 C 105.207031 53.65625 105.191406 54.847656 105.503906 54.117188 C 105.324219 53.882812 104.53125 53.253906 105.105469 52.921875 C 105.535156 53.222656 105.9375 53.554688 106.101562 54.117188 C 105.792969 53.28125 107.132812 54.085938 107.097656 53.519531 C 106.492188 53.328125 105.738281 53.285156 105.503906 52.722656 C 106.136719 53.027344 106.382812 52.792969 107.097656 52.722656 C 107.050781 53.007812 106.769531 53.058594 106.699219 53.320312 C 108.035156 52.996094 109.027344 52.324219 109.890625 51.527344 C 110.011719 51.871094 110.835938 51.511719 110.886719 51.925781 C 110.660156 51.992188 109.570312 52.164062 110.089844 52.324219 C 110.898438 51.898438 111.800781 52.253906 112.480469 52.523438 C 112.578125 51.703125 111.945312 52.714844 111.882812 51.925781 C 112.574219 52.085938 112.648438 51.628906 113.28125 51.726562 C 113.292969 52.074219 113.234375 52.347656 113.082031 52.523438 C 114.152344 52.597656 114.867188 51.933594 114.875 51.527344 C 116.175781 51.234375 115.707031 51.371094 117.070312 51.527344 C 117.652344 50.277344 117.277344 49.960938 116.269531 49.132812 C 115.972656 49.832031 115.984375 50.242188 115.871094 50.730469 C 115.40625 50.164062 115.574219 49.878906 115.671875 49.132812 C 115.039062 48.839844 114.566406 48.378906 114.675781 47.339844 C 113.625 47.722656 113.757812 47.039062 113.679688 46.144531 C 112.855469 45.914062 112.113281 45.917969 111.683594 46.542969 C 111.78125 45.914062 111.402344 45.761719 111.285156 45.347656 C 110.601562 45.433594 110.167969 45.265625 109.691406 45.148438 C 109.304688 45.359375 109.414062 46.066406 109.09375 46.34375 C 108.71875 45.347656 107.707031 46.082031 106.5 45.746094 C 106.511719 45.136719 106.320312 44.730469 105.902344 44.550781 C 105.914062 44.890625 105.75 45.058594 105.503906 45.148438 C 105.214844 44.835938 104.699219 44.753906 104.90625 43.949219 C 103.753906 44.683594 104.199219 42.859375 103.511719 42.554688 C 103.699219 43.277344 102.648438 42.757812 102.511719 43.152344 C 102.480469 42.855469 102.585938 42.417969 102.3125 42.355469 C 102.3125 42.558594 101.964844 42.605469 101.914062 42.355469 C 106.617188 40.679688 107.871094 35.554688 112.480469 33.78125 C 112.464844 33.34375 117.304688 31.226562 118.664062 31.589844 C 119.578125 31.835938 120.144531 34.242188 120.457031 32.585938 C 120.292969 33.484375 121.316406 33.1875 121.851562 33.382812 C 122.253906 33.070312 122.425781 32.273438 121.851562 31.988281 C 121.796875 32.167969 120.96875 32.515625 121.054688 32.1875 C 121.089844 31.890625 120.984375 31.449219 121.253906 31.390625 C 121.273438 31.703125 121.230469 32.082031 121.652344 31.988281 C 122.09375 31.699219 121.402344 31.5 121.851562 31.390625 C 122.230469 31.433594 122.292969 31.164062 122.648438 31.191406 C 122.699219 31.558594 123.367188 32.308594 123.648438 31.789062 C 121.847656 29.894531 127.738281 31.050781 125.839844 29.992188 C 126.667969 29.765625 126.617188 30.414062 127.238281 30.394531 C 127.601562 29.496094 129.835938 29.644531 130.226562 30.394531 C 130.285156 29.800781 130.734375 29.1875 131.421875 29.792969 C 132.046875 29.855469 130.917969 29.21875 131.621094 29.195312 C 132.613281 29.601562 134.53125 29.078125 135.011719 29.992188 C 135.671875 29.371094 136.515625 29.929688 137.207031 29.59375 C 137.453125 28.949219 136.558594 29.441406 136.804688 28.796875 C 137.207031 28.714844 138.285156 28.304688 138.601562 28.796875 C 138.121094 29.183594 137.140625 29.066406 137.207031 29.992188 C 138.449219 29.4375 141.546875 29.707031 142.589844 28 C 143.078125 27.972656 143.550781 27.96875 143.785156 28.199219 C 144.695312 27.050781 146.769531 27.0625 146.972656 25.210938 C 145.800781 25.054688 145.59375 23.933594 144.78125 23.414062 C 145.894531 22.265625 148.109375 22.222656 148.570312 20.425781 C 148.46875 19.863281 148.136719 19.527344 147.574219 19.425781 C 147.269531 20.386719 146.417969 20.796875 145.578125 21.222656 C 146.007812 20.652344 146.828125 20.097656 146.375 19.226562 C 145.402344 19.25 145.421875 20.265625 144.382812 20.226562 C 144.535156 19.714844 144.675781 19.308594 144.183594 19.027344 C 144.320312 19.566406 143.769531 19.414062 143.585938 19.625 C 143.074219 18.570312 142.246094 17.308594 141.191406 18.230469 C 141.328125 17.230469 140.714844 16.984375 139.996094 16.835938 C 139.53125 18.183594 137.5625 16.699219 137.207031 16.039062 C 137.175781 16.273438 137.238281 16.605469 137.007812 16.636719 C 137.042969 16.199219 136.84375 16.003906 136.40625 16.039062 C 136.066406 16.164062 136.078125 16.640625 135.808594 16.835938 C 135.425781 16.253906 134.800781 16.671875 134.414062 16.4375 C 134.46875 16.957031 134.339844 17.296875 133.816406 17.234375 C 133.972656 16.546875 133.628906 16.359375 133.21875 16.238281 C 133.25 16.738281 132.910156 16.863281 132.621094 17.035156 C 131.890625 16.523438 131.699219 15.996094 131.421875 15.441406 C 131.355469 17.257812 128.570312 18.679688 128.433594 16.238281 C 129.964844 15.761719 129.644531 14.453125 130.425781 14.042969 C 130.371094 13.332031 129.730469 12.496094 130.226562 11.851562 C 129.320312 12.425781 129.417969 11.335938 129.03125 10.855469 C 127.710938 11.621094 124.792969 10.808594 123.449219 10.457031 C 124.042969 10.15625 123.78125 9.558594 123.648438 9.058594 C 122.695312 9.738281 122.039062 10.480469 122.054688 11.652344 C 121.4375 11.125 120.660156 11.113281 120.457031 11.851562 C 120.15625 11.484375 120.113281 10.867188 119.859375 10.457031 C 119.472656 10.667969 119.582031 11.375 119.261719 11.652344 C 118.9375 11.308594 119.074219 10.507812 118.265625 10.65625 C 118.332031 11.457031 118.261719 12.113281 117.667969 12.25 C 117.710938 11.371094 117.398438 11.457031 117.066406 10.65625 C 116.132812 11.171875 115.328125 11.171875 114.675781 10.257812 C 114.855469 9.746094 115 9.125 114.476562 8.859375 C 113.75 9.582031 113.507812 10.742188 113.082031 11.253906 C 113.269531 11.003906 112.867188 10.140625 112.480469 9.859375 C 111.515625 10.105469 111.289062 10.625 110.488281 10.058594 C 110.488281 9.722656 110.488281 9.390625 110.488281 9.058594 C 109.859375 9.289062 110.003906 8.746094 109.691406 8.660156 C 109.484375 9.382812 109.136719 9.96875 108.496094 10.257812 C 108.449219 9.285156 107.941406 9.886719 107.695312 10.257812 C 107.351562 10.136719 107.710938 9.3125 107.296875 9.257812 C 107.050781 10.082031 106.71875 9.183594 106.300781 9.058594 C 106.269531 9.292969 106.335938 9.625 106.101562 9.65625 C 105.929688 8.953125 105.363281 9.777344 105.105469 9.058594 C 104.476562 9.425781 105.777344 9.734375 105.105469 10.058594 C 104.871094 9.960938 104.652344 9.84375 104.507812 9.660156 C 104.316406 9.285156 105.105469 8.992188 104.507812 8.859375 C 104.207031 9.09375 104.019531 9.4375 103.511719 9.457031 C 103.03125 9.074219 102.671875 8.566406 102.3125 8.0625 C 101.808594 8.308594 101.851562 7.71875 101.316406 8.460938 C 101.1875 7.527344 101.988281 6.902344 101.316406 6.269531 C 101.273438 6.621094 101.519531 7.265625 100.917969 7.066406 C 100.882812 6.769531 100.988281 6.332031 100.71875 6.269531 C 100.636719 6.480469 99.625 6.730469 99.722656 6.46875 C 99.734375 6.214844 99.976562 6.191406 99.921875 5.871094 C 99.371094 5.734375 99.46875 5.832031 99.125 5.273438 C 98.835938 5.714844 97.9375 5.546875 97.527344 5.871094 C 97.351562 5.449219 96.921875 5.28125 96.929688 4.675781 C 96.222656 4.363281 96.808594 5.351562 96.332031 5.273438 C 96.058594 4.398438 94.820312 3.9375 94.9375 3.277344 C 94.742188 3.9375 94.542969 3.054688 94.339844 3.078125 C 94.140625 3.347656 93.804688 3.476562 93.539062 3.675781 C 93.632812 1.914062 92.007812 3.09375 91.347656 2.082031 C 91 3.179688 89.621094 3.203125 89.753906 4.273438 C 88.042969 0.324219 85.132812 5.089844 84.371094 6.667969 C 83.644531 6.328125 83.269531 5.640625 82.773438 5.074219 C 82.382812 5.25 82.046875 6.085938 81.378906 5.671875 C 81.460938 5.335938 82.320312 4.773438 81.777344 4.472656 C 81.5 5.21875 81.75 3.886719 81.378906 4.074219 C 81.082031 4.308594 81.144531 4.902344 80.582031 4.871094 C 80.609375 3.664062 79.101562 5.6875 78.386719 5.273438 C 78.222656 5.835938 78.667969 5.789062 78.585938 6.269531 C 77.875 6.566406 78.003906 6.46875 77.589844 7.066406 C 77.550781 6.824219 77.371094 6.945312 77.191406 7.066406 C 77.246094 5.945312 77.246094 5.835938 77.589844 4.871094 C 75.476562 4.234375 77.496094 1.628906 76.394531 0.6875 C 76.230469 1.453125 76.164062 2.316406 75.199219 2.28125 C 74.878906 2.132812 75.242188 1.304688 74.601562 1.484375 C 74.058594 1.339844 74.742188 2.421875 74.199219 2.28125 C 73.804688 1.949219 73.949219 2.300781 73.402344 2.28125 C 73.015625 2.019531 73.800781 1.226562 73.003906 1.085938 C 72.648438 1.523438 72.464844 2.140625 71.808594 2.28125 C 71.839844 1.785156 71.707031 1.453125 71.410156 1.285156 C 71.328125 1.625 71.152344 1.242188 70.8125 1.285156 C 70.992188 2.527344 70.167969 2.769531 69.617188 3.277344 C 69.929688 2.496094 69.097656 2.867188 69.015625 2.480469 C 69.34375 2.570312 69.34375 1.394531 69.015625 1.484375 C 68.886719 2.082031 68.589844 1.292969 68.21875 1.484375 C 67.882812 2.34375 66.855469 2.511719 66.226562 3.078125 C 66.117188 2.789062 66.460938 2.046875 66.027344 2.082031 C 65.660156 2.0625 65.195312 2.71875 64.632812 2.082031 C 64.9375 1.722656 65.351562 1.46875 65.230469 0.6875 C 64.839844 0.746094 64.835938 0.417969 64.632812 0.285156 C 64.050781 2.507812 62.210938 2.03125 59.847656 2.082031 C 59.84375 2.609375 59.957031 3.253906 59.449219 3.277344 C 59.304688 2.613281 58.621094 2.628906 59.050781 1.882812 C 58.359375 1.382812 57.683594 2.382812 57.253906 2.082031 C 57.054688 2.875 57.265625 3.484375 57.054688 3.875 C 56.246094 3.890625 56.113281 3.226562 55.0625 3.476562 C 54.863281 4.539062 55.644531 4.621094 55.660156 5.46875 C 54.699219 6.625 53.503906 6.199219 52.273438 5.46875 C 51.609375 6.402344 50.539062 6.929688 50.277344 8.261719 C 50.363281 8.640625 50.707031 8.761719 50.675781 9.257812 C 51.320312 9.503906 50.828125 8.613281 51.472656 8.859375 C 51.359375 9.609375 50.796875 9.910156 50.277344 10.253906 C 49.96875 9.191406 47.828125 8.921875 47.6875 10.453125 C 47.269531 9.699219 47.140625 10.398438 46.6875 10.652344 C 46.6875 10.320312 46.6875 9.988281 46.6875 9.65625 C 45.628906 9.792969 45.566406 10.929688 44.894531 11.453125 C 45.574219 10.402344 43.96875 10.0625 43.5 10.054688 C 43.476562 11.058594 43.863281 11.578125 43.300781 12.25 C 43.359375 11.433594 42.882812 12.144531 42.5 12.050781 C 42.660156 11.363281 42.316406 11.171875 41.902344 11.054688 C 41.535156 11.453125 41.242188 12.640625 40.507812 12.050781 C 40.503906 12.644531 40.527344 13.265625 39.910156 13.246094 C 40.363281 12.792969 39.621094 12.523438 39.113281 12.449219 C 39.035156 13.1875 39.921875 12.96875 39.710938 13.84375 C 39.457031 13.855469 39.433594 14.101562 39.113281 14.042969 C 39.09375 13.730469 39.136719 13.351562 38.714844 13.445312 C 38.222656 14.40625 38.367188 15.445312 38.515625 16.238281 C 37.675781 16.210938 36.898438 17.410156 36.519531 16.636719 C 36.261719 17.3125 36.964844 18.027344 36.519531 18.230469 C 36.375 17.644531 35.769531 17.519531 35.324219 17.234375 C 35.761719 18.789062 36.953125 19.59375 37.316406 21.222656 C 37.738281 21.203125 40.140625 20.917969 40.308594 21.820312 C 39.609375 21.265625 39.699219 22.832031 39.710938 23.613281 C 39.144531 23.144531 38.722656 24.101562 38.117188 24.210938 C 38.375 22.847656 37.539062 23.816406 37.714844 22.617188 C 36.683594 22.445312 37.167969 23.796875 36.320312 23.8125 C 36.316406 24.28125 36.664062 24.398438 36.519531 25.007812 C 35.894531 24.78125 36.035156 25.324219 35.722656 25.410156 C 35.660156 25.140625 35.441406 25.027344 35.523438 24.609375 C 34.816406 24.300781 35.402344 25.289062 34.925781 25.210938 C 34.761719 24.644531 35.207031 24.691406 35.125 24.210938 C 33.035156 25.429688 30.132812 24.503906 28.746094 23.414062 C 28.738281 23.140625 28.839844 22.976562 28.945312 22.816406 C 27.925781 22.6875 28 22.019531 27.148438 22.617188 C 26.800781 21.003906 27.394531 24.015625 26.550781 23.214844 C 26.441406 23.503906 26.785156 24.246094 26.351562 24.210938 C 25.839844 23.683594 26.066406 24.59375 25.554688 24.609375 C 25.570312 24.261719 25.511719 23.988281 25.355469 23.8125 C 24.890625 24.410156 24.335938 23.757812 23.960938 24.011719 C 24.222656 24.015625 24.214844 24.566406 23.960938 24.609375 C 23.472656 23.785156 23.746094 24.882812 22.964844 24.808594 C 22.917969 24.433594 23.1875 24.371094 23.164062 24.011719 C 22.324219 24.699219 21.082031 25.613281 20.171875 24.609375 C 19.164062 25.714844 17.390625 24.679688 15.785156 24.808594 C 15.785156 24.609375 15.945312 24.574219 15.984375 24.410156 C 14.96875 24.496094 14.910156 25.105469 13.992188 24.609375 C 14.046875 25.066406 13.945312 25.359375 13.59375 25.410156 C 13.460938 24.808594 13.167969 25.597656 12.796875 25.410156 C 12.855469 24.945312 13.296875 24.472656 12.398438 24.609375 C 12.503906 25.253906 11.367188 25.558594 11 25.605469 C 11.054688 24.757812 10.601562 24.414062 10.402344 23.8125 C 10.351562 24.125 9.964844 23.953125 9.804688 23.8125 C 9.644531 24.183594 9.546875 24.617188 9.207031 24.808594 C 9.742188 25.867188 10.441406 26.765625 10.601562 28.199219 C 11.601562 27.527344 12.523438 28.265625 12.597656 29.59375 C 12.132812 29.507812 12.0625 28.714844 11.597656 29.195312 C 11.292969 29.832031 11.527344 30.074219 11.597656 30.792969 C 10.261719 30.933594 10.449219 30.375 9.40625 29.996094 C 9.246094 30.527344 8.605469 30.648438 8.011719 30.195312 C 8.03125 31.257812 7.621094 30.734375 7.011719 30.992188 C 6.585938 30.6875 6.363281 30.179688 5.617188 30.195312 C 5.496094 30.800781 4.722656 30.761719 5.019531 31.789062 C 4.394531 31.589844 3.671875 31.75 2.828125 31.390625 C 2.554688 31.785156 2.921875 32.8125 2.03125 32.585938 C 2.5625 33.847656 4.902344 33.914062 4.023438 35.976562 C 4.648438 35.945312 4.707031 36.488281 4.820312 36.972656 C 4.558594 36.972656 4.636719 37.320312 4.421875 37.371094 C 3.796875 36.910156 4.476562 36.289062 3.625 36.972656 C 3.089844 35.867188 3.777344 34.601562 2.628906 33.980469 C 2.972656 34.800781 2.496094 35.269531 2.828125 36.175781 C 2.308594 35.925781 1.457031 35.296875 2.03125 34.578125 C 1.125 34.671875 0.707031 35.25 0.234375 35.777344 C 0.601562 36.339844 0.941406 36.929688 1.230469 37.570312 C -1.257812 38.035156 2.332031 41.039062 2.429688 39.164062 C 2.300781 40.273438 1.101562 38.34375 1.832031 37.96875 C 2.363281 38.5 2.949219 38.976562 3.625 39.363281 C 3.703125 39.023438 3.328125 38.851562 3.625 38.765625 C 4 39.144531 3.648438 39.265625 3.625 39.761719 C 5.6875 39.847656 6.710938 39.410156 7.8125 39.761719 C 7.652344 40.335938 7.40625 40.820312 7.214844 41.359375 C 7.851562 41.316406 7.539062 42.230469 8.210938 42.15625 C 8.234375 41.222656 8.5 42.371094 9.007812 42.15625 C 9.234375 41.761719 9.339844 41.660156 9.804688 41.160156 C 10.296875 41.394531 9.394531 41.910156 10.003906 42.15625 C 10.28125 41.289062 10.695312 42.300781 11 42.554688 C 11.191406 42.183594 10.402344 41.890625 11 41.757812 C 11.625 42.71875 11.886719 43.390625 12.199219 44.949219 C 13.492188 44.992188 16.648438 45.570312 16.984375 46.542969 C 17.796875 45.875 18.101562 45.980469 18.976562 46.542969 C 19.480469 46.050781 20.027344 45.597656 20.96875 45.546875 C 21.050781 46.027344 20.605469 45.980469 20.769531 46.542969 C 21.378906 46.488281 21.207031 45.652344 21.769531 45.546875 C 21.257812 45.523438 20.816406 45.433594 20.570312 45.148438 C 20.742188 44.585938 21.136719 44.25 21.96875 44.347656 C 21.988281 44.574219 21.679688 44.660156 21.96875 44.75 C 23.910156 44.886719 25.898438 44.550781 27.75 45.347656 C 29.457031 46.078125 31.460938 46.664062 31.9375 47.738281 C 36.121094 48.207031 38.242188 50.738281 39.113281 54.515625 C 40.179688 54.914062 40.910156 55.644531 41.507812 56.511719 C 40.597656 56.488281 39.015625 55.058594 38.117188 56.3125 C 37.914062 56.117188 37.714844 55.917969 37.519531 55.714844 C 37.515625 55.414062 38.257812 54.898438 37.71875 54.71875 C 36.890625 54.753906 37.078125 55.804688 36.523438 56.113281 C 36.152344 55.207031 35.804688 55.511719 35.125 54.917969 C 34.714844 55.703125 34.671875 56.425781 35.324219 56.910156 C 34.695312 56.8125 35.25 57.898438 34.527344 57.707031 C 34.503906 57.375 35.175781 56.4375 34.328125 56.511719 C 33.800781 56.449219 34.515625 57.628906 33.730469 57.308594 C 33.203125 57.371094 33.917969 56.191406 33.132812 56.511719 C 32.683594 57.171875 33.589844 58.175781 33.730469 58.902344 C 32.808594 59.046875 32.855469 60.152344 32.535156 60.898438 C 32.023438 60.304688 32.671875 59.789062 32.335938 59.101562 C 31.542969 58.910156 32.253906 60.21875 31.539062 60.101562 C 31.425781 59.117188 31.4375 60.308594 31.140625 60.300781 C 30.796875 59.644531 30.792969 58.652344 29.941406 58.503906 C 29.667969 59.136719 29.898438 59.171875 29.941406 59.902344 C 28.976562 59.269531 29.605469 60.886719 28.746094 60.898438 C 28.761719 60.550781 28.703125 60.277344 28.546875 60.101562 C 27.785156 60.214844 27.921875 60.09375 27.550781 60.699219 C 26.777344 59.851562 26.085938 59.949219 25.355469 59.300781 C 25.082031 59.757812 25.871094 60.050781 25.355469 60.101562 C 23.824219 59.238281 23.257812 61.457031 24.757812 62.09375 C 24.496094 62.097656 24.578125 62.445312 24.359375 62.492188 C 23.714844 62.738281 24.207031 61.847656 23.5625 62.09375 C 23.355469 63.164062 23.402344 62.578125 22.566406 62.492188 C 22.476562 63 22.285156 63.410156 21.96875 63.6875 C 21.773438 63.417969 21.4375 63.289062 21.171875 63.089844 C 21.058594 63.578125 20.703125 63.820312 20.371094 64.085938 C 20.046875 63.386719 19.832031 63.613281 19.175781 63.089844 C 18.800781 63.753906 19.367188 64.210938 18.777344 64.484375 C 19.730469 64.183594 19.855469 65.964844 19.175781 66.082031 C 19.269531 65.261719 18.675781 66.238281 18.378906 65.683594 C 17.949219 66.589844 18.496094 68.179688 19.574219 68.671875 C 19.777344 68.109375 19.867188 68.171875 19.972656 67.875 C 20.082031 68.285156 20.917969 67.921875 20.371094 68.472656 C 21.496094 68.65625 21.933594 68.328125 22.566406 68.871094 C 23.179688 67.453125 25.015625 68.863281 26.355469 68.871094 C 27.328125 68.878906 28.132812 67.832031 28.347656 68.671875 C 29.152344 67.480469 30.472656 68.808594 32.136719 68.472656 C 32.089844 68.757812 31.808594 68.808594 31.738281 69.070312 C 32.503906 68.636719 33.996094 67.882812 35.125 68.472656 C 34.863281 69.007812 34.25 69.1875 33.929688 69.667969 C 35.179688 69.335938 35.023438 67.902344 36.722656 68.472656 C 36.640625 68.953125 37.085938 68.90625 36.921875 69.46875 C 36.550781 70.0625 35.25 71.4375 36.125 71.464844 C 35.898438 72.503906 35.371094 73.238281 34.726562 73.855469 C 35.628906 74.09375 35.175781 72.972656 36.125 73.257812 C 36.144531 71.972656 36.667969 71.949219 36.125 70.867188 C 36.847656 70.992188 36.371094 69.917969 36.921875 69.867188 C 37.433594 69.886719 37.207031 70.648438 37.71875 70.667969 C 38.429688 69.316406 40.972656 71.359375 41.109375 70.070312 C 40.609375 70.09375 40.484375 70.449219 40.308594 69.867188 C 40.542969 69.699219 40.84375 69.605469 41.308594 69.667969 C 41.332031 70.160156 41.339844 70.628906 41.109375 70.867188 C 41.929688 70.695312 41.957031 70.324219 42.902344 70.667969 C 43.273438 69.402344 42.828125 70.191406 42.503906 69.46875 C 42.902344 69.46875 43.300781 69.46875 43.699219 69.46875 C 43.679688 68.453125 44.609375 68.003906 44.699219 67.675781 C 45.472656 67.808594 46.328125 68.082031 46.691406 68.074219 C 46.425781 68.078125 46.507812 68.425781 46.292969 68.472656 C 46.0625 68.410156 44.976562 68.082031 45.496094 68.472656 C 45.929688 68.4375 46.128906 68.636719 46.09375 69.070312 C 45.859375 69.101562 45.527344 69.039062 45.496094 69.269531 C 46.78125 69.753906 46.449219 67.578125 47.488281 68.472656 C 47.628906 69.210938 46.636719 68.816406 46.492188 69.269531 C 47.332031 69.511719 47.367188 68.949219 47.886719 68.871094 C 48.007812 69.226562 47.304688 69.699219 47.886719 69.871094 C 48.265625 69.363281 48.585938 70.054688 49.082031 69.667969 C 50.253906 71.6875 52.046875 73.089844 54.667969 73.65625 C 55.542969 75.472656 57.46875 77.1875 57.65625 79.039062 C 57.945312 79.152344 58.144531 79.351562 58.253906 79.636719 C 58.816406 79.804688 58.773438 79.359375 59.25 79.4375 C 59.261719 79.714844 59.15625 79.878906 59.050781 80.039062 C 60.21875 80.019531 60.359375 80.457031 60.449219 79.640625 C 61.605469 80.148438 62.910156 80.777344 63.4375 79.839844 C 65.347656 83.742188 66.066406 88.878906 68.023438 93.394531 C 69.222656 96.164062 70.894531 98.550781 71.214844 101.371094 C 71.792969 106.480469 71.992188 109.15625 71.414062 113.929688 C 72.28125 118.808594 71.625 124.921875 71.449219 130.257812 C 71.421875 131.078125 62.671875 131.886719 62.675781 132.664062 L 88.675781 132.664062 C 88.675781 132.664062 86.539062 131.5625 85.496094 131.40625 C 84.453125 131.25 78.148438 130.101562 78.148438 130.101562 Z M 112.683594 73.257812 C 112.34375 73.453125 112.171875 73.808594 112.285156 74.457031 C 111.214844 74.476562 112.027344 72.585938 112.683594 73.257812 Z M 108.695312 65.285156 C 108.886719 65.289062 108.847656 65.527344 108.894531 65.683594 C 109.023438 65.886719 109.351562 65.890625 109.292969 66.28125 C 109.0625 66.113281 108.757812 66.019531 108.296875 66.082031 C 108.296875 65.683594 108.839844 65.828125 108.695312 65.285156 Z M 106.898438 74.851562 C 107.15625 74.566406 106.550781 74.410156 106.898438 73.65625 C 107.636719 74.074219 107.648438 73.25 108.097656 72.859375 C 108.722656 72.765625 108.546875 73.472656 109.292969 73.257812 C 108.679688 74.242188 107.917969 75.074219 106.898438 75.652344 C 107.140625 75.390625 106.976562 75.339844 106.898438 75.054688 C 106.5625 74.980469 106.523438 75.210938 106.5 75.453125 C 106.019531 75.535156 106.066406 75.089844 105.503906 75.253906 C 105.792969 74.945312 106.28125 74.835938 106.898438 74.851562 Z M 108.296875 52.125 C 107.875 52.636719 106.824219 52.515625 105.902344 52.523438 C 106.511719 51.613281 105.546875 52.386719 105.105469 51.925781 C 106.296875 51.351562 107.550781 52.03125 108.296875 52.125 Z M 122.652344 17.433594 C 122.992188 17.359375 123.027344 17.589844 123.050781 17.832031 C 123.277344 17.761719 123.554688 17.480469 123.25 17.433594 C 123.304688 17.023438 124.132812 17.386719 124.046875 16.835938 C 124.347656 17.007812 123.992188 17.132812 124.246094 17.632812 C 123.808594 17.859375 123.429688 18.148438 122.652344 18.03125 C 122.652344 17.832031 122.652344 17.632812 122.652344 17.433594 Z M 5.617188 39.363281 C 5.125 39.390625 4.65625 39.394531 4.417969 39.164062 C 4.386719 38.734375 5.128906 39.074219 5.417969 38.96875 C 5.410156 38.773438 5.171875 38.8125 5.019531 38.769531 C 5.195312 38.230469 5.828125 38.859375 5.617188 39.363281 Z M 4.621094 36.175781 C 5.070312 35.40625 4.382812 35.253906 4.417969 34.378906 C 5.347656 34.992188 4.800781 35.851562 6.015625 36.175781 C 5.714844 36.777344 5.140625 36.011719 4.621094 36.175781 Z M 8.40625 37.171875 C 8.113281 37.339844 7.980469 37.671875 8.007812 38.167969 C 7.332031 38.242188 6.46875 38.707031 6.613281 37.570312 C 7.480469 38.097656 7.53125 37.035156 7.609375 36.773438 C 7.945312 36.421875 8.277344 36.949219 9.003906 36.773438 C 9.097656 37.199219 8.71875 37.152344 8.40625 37.171875 Z M 9.203125 37.570312 C 9.425781 36.621094 10.761719 37.558594 10.003906 38.167969 C 9.597656 38.109375 9.472656 37.769531 9.203125 37.570312 Z M 10.402344 40.164062 C 10.050781 40.113281 9.945312 39.820312 10.003906 39.363281 C 10.179688 39.210938 10.453125 39.152344 10.800781 39.164062 C 10.949219 39.78125 10.113281 39.410156 10.402344 40.164062 Z M 12.792969 40.761719 C 12.234375 40.722656 11.945312 40.414062 11.996094 39.765625 C 12.40625 39.644531 13.382812 40.085938 13.191406 39.363281 C 13.753906 39.335938 13.769531 39.855469 13.792969 40.363281 C 13.109375 40.558594 13.191406 40.277344 12.792969 40.761719 Z M 14.191406 41.558594 C 14.515625 41.234375 14.011719 40.722656 14.191406 39.960938 C 14.457031 39.960938 14.722656 39.960938 14.988281 39.960938 C 14.582031 40.355469 14.96875 41.539062 14.191406 41.558594 Z M 15.585938 43.351562 C 15.617188 43.121094 15.542969 42.996094 15.386719 42.953125 C 15.566406 42.230469 15.976562 42.832031 16.582031 42.753906 C 16.609375 43.316406 16.09375 43.328125 15.585938 43.351562 Z M 16.980469 42.554688 C 17.046875 42.15625 16.941406 41.929688 16.582031 41.957031 C 16.742188 41.332031 18.609375 41.734375 18.578125 42.554688 C 18.089844 42.066406 17.710938 42.703125 16.980469 42.554688 Z M 24.558594 44.148438 C 23.953125 44.023438 23.40625 43.839844 23.359375 43.152344 C 23.691406 43.488281 24.53125 43.3125 25.15625 43.351562 C 25.148438 43.691406 25.304688 43.871094 25.554688 43.949219 C 25.171875 44.53125 24.839844 43.28125 24.558594 44.148438 Z M 21.566406 66.28125 C 21.332031 66.3125 21.398438 66.644531 21.367188 66.878906 C 21.152344 66.828125 21.230469 66.484375 20.96875 66.480469 C 21.867188 66.078125 21.085938 65.828125 21.367188 65.285156 C 22.105469 65.6875 21.753906 65.945312 22.164062 66.679688 C 22.464844 65.988281 22.898438 66.640625 23.359375 66.878906 C 22.792969 67.433594 21.722656 66.796875 21.566406 66.28125 Z M 34.128906 57.507812 C 34.5625 57.683594 34.738281 58.621094 33.929688 58.503906 C 33.558594 58.152344 34.015625 57.921875 34.128906 57.507812 Z M 34.726562 62.292969 C 33.910156 62.246094 34.035156 61.253906 33.730469 60.699219 C 34.621094 60.671875 34.671875 61.484375 34.726562 62.292969 Z M 31.335938 66.679688 C 31.25 66.261719 31.472656 66.152344 31.535156 65.882812 C 31.859375 65.824219 31.878906 66.070312 32.132812 66.082031 C 32.195312 66.605469 31.859375 66.734375 31.335938 66.679688 Z M 31.734375 67.476562 C 31.96875 66.382812 33.277344 66.363281 34.328125 66.082031 C 34.320312 65.886719 34.082031 65.925781 33.929688 65.882812 C 33.472656 65.421875 34.550781 65.949219 34.925781 65.882812 C 34.746094 66.234375 34.191406 66.210938 34.128906 66.679688 C 34.753906 66.777344 34.578125 66.066406 35.324219 66.28125 C 35.316406 66.476562 35.078125 66.4375 34.925781 66.480469 C 34.945312 66.988281 35.289062 67.179688 35.523438 67.476562 C 34.570312 68.046875 32.980469 67.648438 31.734375 67.476562 Z M 34.527344 64.085938 C 34.445312 63.609375 34.890625 63.652344 34.726562 63.089844 C 35.082031 63.066406 35.144531 63.335938 35.523438 63.289062 C 35.1875 64.355469 36.121094 64.15625 36.121094 64.886719 C 35.535156 64.671875 35.320312 64.089844 34.527344 64.085938 Z M 40.507812 65.882812 C 40.511719 65.6875 40.75 65.726562 40.90625 65.683594 C 40.414062 65.3125 39.488281 65.375 39.113281 64.886719 C 39.367188 64.542969 39.523438 64.101562 40.109375 64.085938 C 40.234375 64.890625 41.363281 64.695312 41.105469 65.882812 C 41.996094 66.054688 40.648438 66.078125 40.507812 65.882812 Z M 94.738281 68.871094 C 94.652344 69.289062 94.875 69.402344 94.9375 69.671875 C 95.171875 69.636719 95.105469 69.304688 95.136719 69.070312 C 96.074219 69.398438 95.40625 69.851562 95.136719 70.46875 C 93.566406 70.246094 92.738281 69.277344 91.347656 68.871094 C 92.199219 68.363281 93.796875 68.8125 94.738281 68.871094 Z M 93.34375 63.886719 C 93.34375 63.621094 93.34375 63.355469 93.34375 63.089844 C 93.542969 63.089844 93.742188 63.089844 93.941406 63.089844 C 93.855469 63.472656 93.867188 63.949219 93.34375 63.886719 Z M 93.34375 62.492188 C 93.320312 63 93.304688 63.519531 92.746094 63.488281 C 92.765625 62.980469 92.78125 62.464844 93.34375 62.492188 Z M 93.34375 66.878906 C 93.34375 67.011719 93.34375 67.144531 93.34375 67.277344 C 93.171875 67.242188 93.152344 67.355469 93.144531 67.476562 C 92.898438 67.390625 92.734375 67.222656 92.746094 66.878906 C 92.574219 66.84375 92.554688 66.957031 92.546875 67.078125 C 91.96875 66.496094 92.878906 66.859375 93.34375 66.878906 Z M 89.554688 67.675781 C 88.898438 67.324219 89.789062 66.867188 89.953125 66.679688 C 90.441406 66.722656 90.683594 67.488281 90.949219 66.679688 C 91.40625 67.476562 91.363281 66.601562 92.148438 66.679688 C 91.832031 66.976562 92 67.496094 92.347656 67.675781 C 91.941406 68.066406 89.996094 67.246094 89.554688 67.675781 Z M 90.152344 64.484375 C 90.714844 64.652344 90.667969 64.207031 91.148438 64.289062 C 91.5 64.820312 92.574219 65.40625 92.148438 66.082031 C 91.390625 66.105469 91.851562 64.917969 91.148438 64.886719 C 90.796875 64.890625 91.46875 65.828125 90.949219 66.082031 C 90.546875 65.246094 89.992188 66.195312 89.554688 66.480469 C 88.996094 66.242188 88.285156 66.15625 88.359375 65.285156 C 88.9375 65.816406 90.359375 65.214844 90.152344 64.484375 Z M 88.558594 64.886719 C 88.476562 65.269531 87.785156 65.042969 87.960938 65.683594 C 87.78125 65.527344 87.507812 65.46875 87.160156 65.484375 C 87.363281 65.019531 87.847656 64.839844 88.558594 64.886719 Z M 88.558594 66.679688 C 87.613281 69.238281 83.398438 67.660156 81.777344 66.878906 C 81.925781 66.09375 82.195312 65.433594 82.375 64.683594 C 83.125 64.535156 82.8125 65.449219 83.375 65.484375 C 83.269531 65.324219 83.164062 65.160156 83.175781 64.886719 C 85.398438 65.050781 86.863281 65.984375 88.558594 66.679688 Z M 82.976562 63.089844 C 83.292969 63.371094 83.484375 63.777344 83.574219 64.289062 C 83.214844 64.3125 83.152344 64.042969 82.777344 64.085938 C 82.695312 63.609375 83.140625 63.652344 82.976562 63.089844 Z M 87.558594 44.347656 C 86.914062 44.199219 86.296875 44.019531 86.363281 43.152344 C 86.925781 43.359375 87.988281 43.777344 87.558594 44.347656 Z M 87.558594 33.980469 C 87.558594 33.714844 87.558594 33.449219 87.558594 33.183594 C 88 33.410156 88.660156 33.414062 88.757812 33.980469 C 88.066406 33.820312 87.914062 34.355469 87.558594 33.980469 Z M 95.535156 46.941406 C 96.785156 47.621094 98.5625 47.769531 99.324219 48.933594 C 98.285156 48.046875 96.011719 48.390625 95.535156 46.941406 Z M 98.726562 47.738281 C 98.117188 47.746094 97.949219 47.316406 97.53125 47.140625 C 97.726562 46.40625 98.742188 48.058594 98.726562 46.941406 C 99.019531 47.046875 99.226562 47.234375 99.523438 47.339844 C 99.460938 48.003906 98.578125 46.738281 98.726562 47.738281 Z M 98.726562 45.148438 C 98.988281 45.480469 99.253906 45.816406 99.125 46.542969 C 98.386719 46.417969 97.957031 45.980469 97.332031 45.746094 C 97.328125 45.011719 98.027344 44.980469 98.328125 44.546875 C 98.386719 44.144531 97.75 44.589844 97.730469 44.75 C 97.273438 44.160156 99.070312 43.253906 99.722656 43.75 C 99.777344 44.605469 99.144531 44.769531 98.726562 45.148438 Z M 100.320312 43.351562 C 100.425781 42.726562 101.0625 42.632812 101.714844 42.554688 C 101.199219 42.769531 101.25 43.550781 100.320312 43.351562 Z M 120.257812 18.03125 C 119.878906 18.4375 119.414062 18.730469 118.863281 18.230469 C 118.949219 17.785156 119.84375 18.148438 120.257812 18.03125 Z M 118.664062 18.03125 C 118.738281 18.636719 118.015625 18.445312 117.667969 18.628906 C 117.636719 18.070312 118.15625 18.054688 118.664062 18.03125 Z M 113.679688 30.992188 C 114.472656 30.261719 115.664062 30.808594 115.671875 29.59375 C 116.957031 29.589844 118.84375 27.265625 119.261719 29.394531 C 116 30.523438 112.738281 31.644531 109.890625 33.183594 C 110.011719 32.664062 109.8125 32.46875 109.292969 32.585938 C 109.144531 31.503906 110.367188 31.800781 110.089844 30.59375 C 111.5625 30.890625 113.144531 29.890625 113.679688 30.992188 Z M 109.492188 24.808594 C 109.695312 25.433594 109.503906 26.023438 110.089844 26.605469 C 109.671875 26.425781 109.203125 26.292969 108.894531 26.007812 C 108.675781 25.5 109.828125 25.234375 108.894531 25.210938 C 108.941406 24.921875 109.488281 25.140625 109.492188 24.808594 Z M 107.097656 25.007812 C 107.71875 25.121094 108.398438 25.171875 108.894531 25.410156 C 108.417969 26.039062 108.539062 26.222656 109.292969 26.40625 C 108.992188 27.035156 108.101562 27.074219 107.699219 27.601562 C 107.8125 27.183594 108.191406 27.03125 108.097656 26.40625 C 107.46875 26.308594 107.945312 27.320312 107.496094 27.402344 C 106.921875 27.664062 107.59375 25.246094 107.097656 25.808594 C 106.605469 25.777344 107.042969 25.132812 107.097656 25.007812 Z M 106.699219 26.207031 C 107.160156 26.363281 106.894531 27.441406 106.300781 27.203125 C 106.269531 26.707031 106.617188 26.585938 106.699219 26.207031 Z M 108.496094 28.597656 C 107.378906 29.28125 109.863281 30.039062 108.894531 31.191406 C 107.492188 30.464844 106.066406 29.765625 106.101562 27.601562 C 107.125 27.710938 107.441406 28.523438 108.496094 28.597656 Z M 101.714844 10.457031 C 102.242188 10.792969 102.613281 11.285156 102.714844 12.050781 C 102.070312 11.761719 101.429688 11.472656 101.316406 10.65625 C 101.550781 10.6875 101.671875 10.609375 101.714844 10.457031 Z M 102.515625 24.808594 C 103.085938 25.023438 104.761719 24.863281 105.503906 24.609375 C 106.386719 25.972656 104.265625 27.710938 103.113281 26.605469 C 103.171875 26.199219 103.511719 26.074219 103.710938 25.808594 C 103.433594 25.226562 102.726562 25.863281 102.515625 26.007812 C 102.644531 26.210938 102.972656 26.214844 102.914062 26.605469 C 102.148438 26.371094 101.625 25.898438 100.917969 25.609375 C 101.089844 24.980469 102.90625 26 102.515625 24.808594 Z M 100.519531 26.007812 C 100.082031 26.421875 100.695312 26.652344 100.320312 27.003906 C 99.933594 26.929688 99.234375 26.050781 99.324219 27.203125 C 99.15625 27.238281 99.136719 27.125 99.125 27.003906 C 98.992188 27.003906 98.859375 27.003906 98.726562 27.003906 C 99.058594 26.402344 99.410156 25.828125 100.519531 26.007812 Z M 98.128906 28.597656 C 97.355469 28.707031 97.304688 28.089844 96.730469 28 C 97.0625 27.558594 98.023438 28.160156 98.128906 28.597656 Z M 93.542969 30.992188 C 94.195312 30.925781 94.300781 31.277344 94.339844 29.996094 C 95.3125 30.039062 95.375 29.167969 95.933594 28.796875 C 96.222656 28.84375 96.003906 29.394531 96.332031 29.394531 C 96.601562 29.265625 96.703125 28.96875 96.730469 28.597656 C 97.28125 28.710938 97.851562 28.808594 97.730469 29.59375 C 98.398438 28.917969 99.117188 29.359375 99.324219 30.195312 C 100.199219 29.878906 100.667969 30.113281 101.714844 29.59375 C 101.839844 30.234375 101 29.867188 101.515625 30.394531 C 102.316406 29.929688 103.472656 29.824219 103.710938 28.796875 C 103.871094 28.9375 104.257812 29.109375 104.308594 28.796875 C 105.761719 30.128906 105.859375 31.613281 107.898438 32.386719 C 106.957031 37.03125 103.75 39.402344 99.523438 40.761719 C 99.78125 40.050781 99.972656 40.035156 99.722656 39.164062 C 99.402344 39.75 98.695312 38.847656 98.527344 39.363281 C 98.042969 38.984375 98.8125 38.324219 98.328125 37.769531 C 98.054688 37.832031 98.160156 38.269531 98.128906 38.566406 C 97.773438 38.070312 97.875 38.351562 97.132812 38.367188 C 96.964844 38.136719 96.867188 37.832031 96.929688 37.371094 C 96.367188 37.742188 96.644531 38.03125 95.734375 37.769531 C 95.734375 37.503906 95.734375 37.238281 95.734375 36.972656 C 94.695312 37.289062 94.859375 37.734375 94.339844 38.167969 C 94.757812 36.855469 94.203125 37.597656 93.542969 36.972656 C 94.445312 36.347656 94.535156 34.910156 95.335938 34.179688 C 94.882812 32.972656 94.132812 32.0625 93.542969 30.992188 Z M 95.335938 45.746094 C 95.140625 45.539062 94.941406 45.339844 94.738281 45.148438 C 94.566406 45.109375 94.550781 45.222656 94.539062 45.347656 C 94.054688 44.585938 96.167969 45.554688 96.332031 44.546875 C 97.132812 44.769531 96.464844 45.335938 96.132812 45.546875 C 96.15625 46.035156 96.792969 45.585938 96.730469 45.347656 C 97.019531 45.390625 96.800781 45.941406 97.132812 45.945312 C 96.945312 46.304688 95.253906 46.3125 94.9375 47.140625 C 93.945312 46.492188 92.984375 46.996094 92.546875 45.945312 C 93.699219 46.101562 94.25 45.65625 95.335938 45.746094 Z M 91.347656 25.410156 C 91.8125 25.34375 92.113281 25.441406 92.347656 25.609375 C 92.320312 26.117188 92.054688 26.382812 91.546875 26.40625 C 91.628906 25.925781 91.183594 25.972656 91.347656 25.410156 Z M 87.960938 31.789062 C 88.144531 32 88.695312 31.851562 88.558594 32.386719 C 89.53125 31.734375 90.050781 31.863281 91.546875 31.789062 C 91.441406 31.949219 91.339844 32.113281 91.347656 32.386719 C 91.957031 32.460938 91.6875 31.660156 92.144531 31.589844 C 95.4375 34.167969 90.464844 38.277344 88.957031 36.574219 C 88.480469 36.652344 89.066406 35.664062 88.359375 35.976562 C 88.378906 35.480469 88.730469 35.359375 88.359375 34.976562 C 87.980469 35.128906 88.21875 35.574219 87.761719 35.179688 C 87.90625 34.59375 88.382812 34.335938 89.15625 34.378906 C 89.804688 35.980469 91.914062 34.886719 91.546875 33.582031 C 90.675781 33.972656 90.421875 33.902344 89.753906 33.183594 C 89.285156 33.246094 89.636719 34.128906 88.957031 33.980469 C 89.472656 32.238281 87.878906 33.527344 88.359375 32.386719 C 87.609375 32.828125 87.480469 33.222656 86.761719 32.585938 C 86.175781 32.757812 87.226562 32.882812 86.960938 33.382812 C 86.550781 33.261719 86.207031 33.074219 86.363281 32.386719 C 87.3125 32.707031 87.683594 32.886719 87.960938 31.789062 Z M 84.371094 22.019531 C 84.898438 22.449219 86.476562 21.625 85.964844 22.816406 C 86.304688 22.890625 86.339844 22.660156 86.363281 22.417969 C 87.15625 22.824219 87.257812 23.917969 87.558594 24.808594 C 86.570312 24.441406 86.816406 24.894531 86.164062 25.210938 C 86.285156 24.691406 86.085938 24.492188 85.566406 24.609375 C 85.566406 24.210938 85.566406 23.8125 85.566406 23.414062 C 84.964844 23.6875 84.855469 23.320312 83.972656 23.414062 C 83.742188 22.589844 84.390625 22.636719 84.371094 22.019531 Z M 84.171875 46.742188 C 84.3125 47.8125 83.945312 48.375 83.773438 49.132812 C 82.417969 49.226562 81.335938 49.046875 80.382812 48.734375 C 80.226562 47.914062 81.339844 48.359375 81.179688 47.539062 C 81.121094 47.066406 80.640625 47.761719 80.582031 47.9375 C 80.609375 46.832031 82.730469 46.578125 84.171875 46.742188 Z M 78.390625 44.550781 C 77.789062 44.746094 77.445312 45.199219 76.59375 45.148438 C 76.488281 44.519531 75.902344 44.378906 75.796875 43.75 C 76.171875 43.910156 76.527344 44.085938 76.992188 44.148438 C 76.992188 44.351562 76.992188 44.550781 76.992188 44.75 C 77.292969 44.109375 77.710938 44.519531 78.390625 44.550781 Z M 79.386719 50.53125 C 79.003906 50.15625 79.027344 50.648438 78.390625 50.53125 C 78.058594 49.273438 77.515625 50.664062 76.394531 50.332031 C 76.617188 49.140625 79.171875 49.824219 79.386719 50.53125 Z M 77.390625 47.9375 C 77.542969 47.324219 76.707031 47.695312 76.992188 46.941406 C 78.464844 48.253906 79.0625 46.640625 79.984375 45.546875 C 79.523438 45.390625 79.363281 45.339844 78.789062 44.949219 C 79.816406 44.621094 80.535156 45.078125 81.578125 45.347656 C 81.664062 45.578125 81.101562 45.753906 81.191406 45.871094 C 81.253906 45.886719 81.316406 45.910156 81.378906 45.945312 C 81.269531 45.921875 81.214844 45.898438 81.191406 45.871094 C 80.128906 45.597656 79.449219 47.949219 77.390625 47.9375 Z M 81.976562 43.152344 C 82.273438 44.253906 83.320312 44.601562 83.574219 45.746094 C 83.09375 45.828125 83.140625 45.382812 82.578125 45.546875 C 82.4375 44.933594 82.4375 45.164062 82.578125 44.550781 C 81.914062 44.613281 81.347656 44.578125 81.179688 44.148438 C 81.207031 44.691406 80.675781 45.054688 80.382812 44.148438 C 80.246094 44.625 79.277344 44.765625 79.386719 43.949219 C 79.152344 43.984375 79.21875 44.3125 79.1875 44.546875 C 78.707031 44.628906 78.753906 44.183594 78.191406 44.347656 C 78.226562 44.1875 78.390625 44.152344 78.390625 43.949219 C 77.0625 44.078125 76.324219 43.621094 75.398438 43.351562 C 77.238281 43.390625 79.710938 43.894531 81.976562 43.152344 Z M 74.003906 39.363281 C 74.355469 39.820312 74.421875 40.421875 74.203125 40.960938 C 74.871094 40.964844 74.609375 40.039062 75 39.765625 C 75.902344 40.078125 76.972656 40.625 78.191406 39.960938 C 78.539062 40.144531 78.882812 40.332031 78.789062 40.960938 C 79.59375 41.234375 79.417969 40.527344 79.984375 40.5625 C 79.761719 41.449219 80.597656 41.277344 80.980469 41.558594 C 80.980469 41.890625 80.980469 42.222656 80.980469 42.554688 C 78.726562 43.851562 75.652344 42.636719 73.402344 42.15625 C 73.515625 41.867188 73.714844 41.671875 74.003906 41.558594 C 73.871094 41.289062 73.578125 41.1875 73.203125 41.160156 C 73.3125 40.402344 73.789062 40.015625 74.003906 39.363281 Z M 72.605469 39.765625 C 73.300781 40.066406 72.898438 41.464844 73.605469 41.757812 C 73.046875 42.011719 72.617188 42.25 72.007812 41.957031 C 71.851562 40.804688 73.214844 40.789062 72.605469 39.765625 Z M 72.605469 42.953125 C 72.40625 43.417969 71.921875 43.597656 71.210938 43.550781 C 71.945312 44.210938 72.839844 43.328125 73.203125 42.953125 C 73.726562 43.363281 74.441406 43.578125 75.398438 43.550781 C 75.253906 44.449219 75.460938 44.546875 75.199219 45.148438 C 74.773438 44.644531 74.09375 44.390625 73.40625 44.148438 C 73.902344 44.503906 73.621094 44.402344 73.605469 45.148438 C 74.289062 45.265625 74.289062 45.433594 73.605469 45.945312 C 73.902344 46.375 74.167969 45.726562 74.402344 46.34375 C 73.964844 47.332031 72.753906 45.910156 73.402344 45.148438 C 72.976562 45.054688 73.023438 45.429688 73.003906 45.746094 C 72.816406 45.402344 72.269531 45.417969 72.40625 44.75 C 72.949219 44.976562 73.1875 45.394531 73.203125 44.347656 C 72.546875 44.359375 72.210938 44.683594 71.410156 44.546875 C 71.199219 43.898438 70.527344 43.703125 70.015625 43.351562 C 70.488281 43.164062 70.605469 42.613281 71.410156 42.753906 C 71.386719 43.128906 70.75 42.894531 70.8125 43.351562 C 71.191406 43.269531 71.671875 43.28125 71.609375 42.753906 C 71.839844 42.921875 72.144531 43.019531 72.605469 42.953125 Z M 70.015625 50.730469 C 69.21875 50.726562 67.792969 52.007812 68.421875 52.125 C 68.246094 52.703125 68.121094 52.347656 67.621094 52.324219 C 67.59375 51.828125 67.726562 51.496094 68.019531 51.328125 C 67.371094 51.375 67.867188 50.527344 67.621094 49.933594 C 67.96875 50.113281 68.390625 50.378906 68.019531 50.730469 C 68.441406 50.378906 68.609375 50.28125 69.21875 50.53125 C 69.238281 49.578125 67.476562 50.410156 67.621094 49.332031 C 67.335938 49.445312 67.136719 49.644531 67.023438 49.933594 C 67.152344 50.132812 67.484375 50.136719 67.421875 50.53125 C 66.972656 49.910156 65.976562 49.679688 65.828125 50.730469 C 65.007812 50.402344 64.949219 48.761719 63.636719 49.535156 C 63.425781 48.136719 62.9375 44.578125 64.832031 44.148438 C 65.578125 44.449219 68.25 45.074219 68.019531 43.949219 C 69.253906 44.378906 69.566406 45.726562 70.8125 46.144531 C 70.542969 46.898438 70.890625 47.113281 70.414062 47.738281 C 70.570312 48.179688 71.113281 48.238281 71.410156 48.535156 C 71.105469 49.019531 70.523438 48.109375 70.015625 48.136719 C 70.015625 47.9375 70.015625 47.738281 70.015625 47.539062 C 69.867188 47.351562 69.652344 47.238281 69.417969 47.140625 C 68.941406 47.199219 69.636719 47.679688 69.816406 47.738281 C 69.410156 48.085938 69.246094 47.285156 68.421875 47.738281 C 69.679688 48.273438 70.171875 49.574219 71.011719 50.53125 C 70.449219 51.269531 70.234375 49.996094 69.816406 49.933594 C 69.085938 50.246094 70.28125 50.230469 70.015625 50.730469 Z M 65.628906 58.304688 C 64.488281 57.785156 63.820312 56.792969 63.4375 55.515625 C 64.382812 55.433594 64.050781 56.628906 64.433594 57.109375 C 64.796875 56.429688 64.441406 56.015625 64.234375 55.316406 C 64.574219 55.242188 64.609375 55.46875 64.632812 55.714844 C 64.835938 55.585938 64.839844 55.253906 65.230469 55.316406 C 64.757812 56.203125 65.792969 57.085938 65.628906 58.304688 Z M 65.828125 43.550781 C 65.925781 42.921875 68.03125 42.851562 67.621094 43.949219 C 66.871094 44.230469 66.398438 44.082031 65.828125 43.550781 Z M 70.8125 49.535156 C 71.277344 50.425781 72.019531 49.492188 72.808594 49.535156 C 73.078125 49.519531 70.683594 50.925781 70.8125 49.535156 Z M 71.609375 47.140625 C 72.011719 47.402344 72.285156 47.796875 72.40625 48.335938 C 72.03125 48.046875 71.523438 47.890625 71.609375 47.140625 Z M 70.613281 21.222656 C 71.136719 21.496094 71.578125 21.851562 71.808594 22.417969 C 71.488281 22.359375 71.464844 22.605469 71.210938 22.617188 C 70.28125 22.398438 70.152344 21.933594 70.613281 21.222656 Z M 69.617188 37.371094 C 69.8125 36.761719 70.148438 37.601562 70.414062 37.570312 C 70.15625 38.195312 70 37.671875 69.417969 37.96875 C 69.0625 37.433594 70.296875 37.582031 69.617188 37.371094 Z M 68.621094 31.390625 C 67.902344 31.03125 68.898438 30.765625 69.019531 30.59375 C 69.324219 30.953125 69.738281 31.203125 69.617188 31.988281 C 69.109375 31.910156 69.082031 30.335938 68.621094 31.390625 Z M 68.421875 19.824219 C 68.773438 20.003906 68.925781 20.382812 69.617188 20.226562 C 69.636719 20.734375 69.980469 20.921875 70.214844 21.222656 C 69.695312 21.421875 69.492188 20.125 68.621094 20.425781 C 68.59375 20.78125 68.863281 20.84375 68.820312 21.222656 C 68.25 21.195312 68.453125 20.390625 68.421875 19.824219 Z M 68.820312 29.996094 C 68.535156 29.976562 68.253906 29.960938 68.21875 30.195312 C 68.078125 29.402344 67.980469 30.136719 67.820312 29.195312 C 68.296875 29.320312 68.75 29.464844 68.820312 29.996094 Z M 66.824219 29.195312 C 67.058594 29.496094 67.402344 29.683594 67.421875 30.195312 C 66.601562 29.566406 67.183594 30.335938 65.828125 30.195312 C 65.535156 29.234375 66.972656 30.011719 66.824219 29.195312 Z M 64.632812 18.429688 C 65.828125 18.960938 65.195312 17.949219 66.625 18.429688 C 67.171875 19.738281 67.507812 21.894531 67.023438 23.613281 C 66.566406 23.207031 66.558594 23.332031 66.027344 22.816406 C 66.253906 22.578125 66.597656 22.457031 66.425781 21.820312 C 66.304688 21.585938 65.558594 22.066406 65.828125 21.023438 C 65.433594 21.023438 65.574219 21.566406 65.03125 21.421875 C 65.324219 20.984375 65.21875 19.609375 64.433594 19.625 C 64.289062 19.015625 64.777344 19.039062 64.632812 18.429688 Z M 60.84375 30.792969 C 61.421875 30.289062 62.664062 30.824219 62.835938 31.390625 C 63.527344 31.121094 64.589844 31.433594 65.429688 31.589844 C 64.988281 33.652344 67.074219 35.226562 67.621094 34.980469 C 67.796875 35.222656 68.257812 36.179688 67.824219 36.375 C 68.085938 36.425781 68.714844 36.46875 69.21875 36.773438 C 68.917969 37.007812 68.984375 37.601562 68.421875 37.570312 C 68.503906 37.152344 68.285156 37.042969 68.222656 36.773438 C 67.652344 37.039062 68.375 37.660156 68.421875 37.96875 C 69.867188 38.117188 71.402344 38.175781 71.808594 39.363281 C 71.179688 39.996094 69.914062 39.480469 70.414062 40.363281 C 69.695312 40.152344 69.308594 39.605469 68.820312 39.164062 C 68.597656 39.347656 68.757812 39.535156 68.621094 40.160156 C 67.875 39.589844 67.152344 39.300781 66.625 38.964844 C 66.390625 38.996094 66.457031 39.328125 66.425781 39.5625 C 65.960938 39.511719 66.3125 38.6875 66.425781 38.566406 C 65.957031 38.554688 65.539062 40.207031 65.429688 38.765625 C 64.964844 39.066406 65.125 39.253906 65.230469 39.761719 C 64.945312 39.933594 64.945312 38.839844 64.332031 39.457031 C 64.832031 38.824219 63.449219 38.507812 64.035156 37.96875 C 64.847656 39 64.328125 36.851562 65.230469 37.171875 C 65.457031 35.546875 64.035156 35.578125 64.035156 34.179688 C 63.226562 34.652344 63.449219 34.394531 63.835938 33.78125 C 62.628906 33.515625 61.644531 35.074219 61.242188 33.382812 C 61.007812 33.414062 61.074219 33.746094 61.042969 33.980469 C 59.898438 32.925781 61.582031 31.328125 60.84375 30.792969 Z M 60.644531 38.566406 C 60.457031 38.355469 59.910156 38.503906 60.046875 37.96875 C 59.421875 38.105469 59.785156 38.5 59.847656 38.964844 C 59.140625 39.03125 59.355469 39.515625 58.652344 39.164062 C 58.652344 39.5625 58.652344 39.960938 58.652344 40.363281 C 59.191406 40.503906 58.507812 39.421875 59.050781 39.5625 C 59.953125 39.558594 59.113281 40.488281 59.050781 40.761719 C 58.273438 40.484375 57.894531 40.117188 58.253906 39.164062 C 58.625 39.007812 58.984375 38.832031 59.449219 38.765625 C 58.691406 37.957031 58.378906 39.28125 57.652344 39.164062 C 57.28125 38.785156 57.773438 38.804688 57.652344 38.167969 C 59.074219 38.269531 60.21875 36.859375 60.644531 38.566406 Z M 60.84375 41.359375 C 59.898438 41.535156 59.453125 40.5 59.847656 39.960938 C 60.039062 39.96875 60 40.207031 60.046875 40.363281 C 60.234375 40.214844 60.347656 40 60.445312 39.765625 C 60.761719 40.113281 60.710938 40.824219 60.84375 41.359375 Z M 57.054688 29.796875 C 57.386719 29.796875 57.722656 29.796875 58.054688 29.796875 C 58.359375 30.40625 56.75 30.40625 57.054688 29.796875 Z M 59.847656 31.191406 C 59.710938 31.917969 59.570312 32.640625 59.648438 33.582031 C 59.113281 33.9375 59.261719 32.703125 59.050781 33.382812 C 58.550781 32.890625 58.46875 32.570312 58.652344 31.789062 C 57.929688 31.597656 58.449219 32.648438 58.054688 32.785156 C 57.484375 32.160156 56.34375 32.105469 56.058594 31.191406 C 57.320312 30.519531 58.976562 30.992188 59.847656 31.191406 Z M 56.257812 44.148438 C 57.140625 44.265625 57.707031 44.695312 58.253906 45.148438 C 58.226562 44.640625 57.960938 44.375 57.453125 44.347656 C 58.207031 43.738281 58.828125 44.234375 59.050781 43.152344 C 60.101562 43.207031 61.054688 42.324219 62.039062 42.953125 C 62.070312 44.554688 62.410156 47.007812 61.441406 48.933594 C 61.03125 48.878906 61.042969 48.402344 60.84375 48.136719 C 60.492188 48.1875 60.390625 48.480469 60.445312 48.933594 C 60.066406 48.851562 60.085938 48.367188 59.449219 48.535156 C 59.519531 48.273438 59.800781 48.222656 59.847656 47.9375 C 59.84375 47.542969 59.304688 47.683594 59.449219 47.140625 C 58.433594 47.167969 58.167969 48.28125 57.453125 47.539062 C 56.929688 47.964844 56.855469 49.148438 56.257812 48.933594 C 53.308594 48.28125 53.507812 44.828125 56.257812 44.148438 Z M 58.453125 54.117188 C 57.5625 54.210938 57.746094 53.230469 57.253906 52.921875 C 57.992188 52.820312 58.175781 53.253906 58.253906 52.125 C 59.042969 52.527344 59.789062 52.980469 60.046875 53.917969 C 60.042969 54.226562 59.105469 53.820312 58.851562 53.71875 C 58.703125 53.175781 59.246094 53.320312 59.25 52.921875 C 58.609375 52.949219 58.371094 53.375 58.453125 54.117188 Z M 57.453125 56.710938 C 56.546875 56.902344 56.199219 55.871094 56.65625 55.316406 C 57.339844 55.808594 57.058594 56.082031 57.453125 56.710938 Z M 58.453125 48.136719 C 58.585938 48.136719 58.71875 48.136719 58.851562 48.136719 C 58.8125 48.308594 58.929688 48.324219 59.050781 48.335938 C 58.679688 48.71875 58.683594 48.492188 58.851562 49.132812 C 58.25 48.933594 58.496094 49.578125 58.453125 49.933594 C 58.25 49.800781 58.246094 49.472656 57.855469 49.53125 C 58.089844 49.105469 58.703125 49.054688 58.453125 48.136719 Z M 53.667969 43.75 C 53.667969 43.417969 53.667969 43.085938 53.667969 42.753906 C 54.230469 42.589844 54.183594 43.035156 54.664062 42.953125 C 54.40625 43.296875 54.25 43.738281 53.667969 43.75 Z M 54.664062 30.59375 C 55.011719 30.1875 54.515625 30.203125 54.863281 29.796875 C 55.183594 29.738281 55.207031 29.984375 55.460938 29.996094 C 55.289062 30.285156 55.300781 30.765625 54.664062 30.59375 Z M 53.667969 9.65625 C 54.65625 9.457031 54.300781 10.289062 55.0625 9.855469 C 55.183594 10.589844 53.347656 10.390625 53.667969 9.65625 Z M 52.667969 9.65625 C 52.839844 10.285156 53.667969 10.253906 53.46875 11.253906 C 52.832031 11.117188 52.261719 10.210938 52.667969 9.65625 Z M 52.070312 50.929688 C 52.308594 50.503906 53.152344 50.679688 52.867188 49.734375 C 53.800781 50.484375 52.285156 51.300781 51.871094 51.925781 C 51.539062 51.300781 52.613281 51.109375 52.070312 50.929688 Z M 51.472656 9.257812 C 52.140625 9.121094 52.203125 9.59375 52.269531 10.054688 C 51.746094 9.25 51.40625 10.65625 51.472656 9.257812 Z M 48.882812 41.160156 C 49.074219 41.164062 49.035156 41.402344 49.082031 41.558594 C 49.265625 41.410156 49.382812 41.195312 49.480469 40.960938 C 49.910156 41.128906 50.183594 41.449219 50.078125 42.15625 C 49.738281 42.082031 49.703125 42.3125 49.679688 42.554688 C 49.304688 42.140625 49.445312 41.523438 48.683594 41.957031 C 48.65625 41.597656 48.925781 41.535156 48.882812 41.160156 Z M 49.878906 44.949219 C 49.402344 45.664062 49.289062 44.363281 48.484375 44.75 C 48.792969 44.199219 49.679688 44.730469 49.878906 44.949219 Z M 48.480469 40.5625 C 48.480469 40.894531 48.480469 41.226562 48.480469 41.558594 C 47.980469 41.394531 47.414062 41.296875 47.484375 40.5625 C 47.816406 40.5625 48.148438 40.5625 48.480469 40.5625 Z M 45.890625 12.449219 C 46.160156 12.703125 46.289062 13.054688 46.488281 12.449219 C 46.59375 13.648438 47.722656 12.640625 47.683594 14.042969 C 47.125 14.082031 47.109375 13.183594 47.085938 14.242188 C 46.820312 14.242188 46.554688 14.242188 46.289062 14.242188 C 46.410156 13.726562 46.210938 13.527344 45.691406 13.644531 C 45.664062 13.152344 45.660156 12.683594 45.890625 12.449219 Z M 47.085938 43.351562 C 46.671875 43.753906 45.644531 43.074219 45.890625 42.15625 C 46.378906 42.464844 46.535156 43.105469 47.085938 43.351562 Z M 44.496094 41.359375 C 44.8125 41.90625 45.179688 42.402344 45.09375 43.351562 C 44.578125 43.042969 43.933594 42.113281 44.496094 41.359375 Z M 41.902344 41.558594 C 42.226562 41.503906 42.246094 41.746094 42.5 41.757812 C 42.082031 43.019531 42.6875 43.285156 43.5 43.75 C 43.007812 44.289062 42.523438 43.144531 41.703125 43.351562 C 41.546875 42.53125 42.007812 42.328125 41.902344 41.558594 Z M 48.285156 46.144531 C 48.203125 46.664062 47.6875 46.746094 47.683594 47.339844 C 47.734375 47.558594 48.082031 47.476562 48.082031 47.738281 C 48.902344 47.578125 47.980469 46.917969 48.480469 46.542969 C 49.84375 47.699219 51.480469 47.378906 52.46875 48.933594 C 52.355469 49.75 51.59375 49.921875 51.472656 50.730469 C 51.023438 50.617188 51.714844 50.417969 51.273438 50.132812 C 50.648438 50.410156 51.546875 51.117188 51.074219 51.328125 C 51.160156 51.625 51.328125 51.25 51.671875 51.328125 C 51.511719 52.015625 52.042969 52.167969 51.671875 52.523438 C 48.488281 49.929688 43.445312 49.1875 41.503906 45.347656 C 43.160156 44.976562 45.976562 45.945312 48.285156 46.144531 Z M 27.546875 43.152344 C 27.550781 42.847656 28.09375 42.496094 27.945312 43.152344 C 28.742188 43.28125 28.75 42.625 29.542969 42.753906 C 29.511719 43.847656 30.148438 44.277344 30.339844 45.148438 C 29.019531 44.871094 28.570312 43.726562 27.546875 43.152344 Z M 31.136719 45.746094 C 31.558594 45.296875 30.785156 44.921875 30.539062 44.550781 C 30.335938 43.949219 30.984375 44.195312 31.335938 44.148438 C 31.257812 43.363281 29.5625 44.199219 29.941406 42.953125 C 31.027344 43.0625 31.675781 43.609375 32.53125 43.949219 C 32.308594 43.042969 31.128906 43.09375 30.339844 42.753906 C 31.449219 42.089844 34.488281 41.683594 35.921875 42.355469 C 36.289062 42.03125 36.753906 41.734375 36.121094 41.359375 C 37.355469 41.160156 39.191406 42.648438 39.3125 44.75 C 40.113281 45.738281 41.121094 46.527344 41.503906 47.9375 C 38.511719 46.742188 34.90625 46.160156 31.136719 45.746094 Z M 40.109375 53.71875 C 39.605469 50.964844 37.527344 49.785156 36.320312 47.738281 C 38.855469 48.195312 41.957031 48.953125 44.695312 50.332031 C 45.613281 50.792969 46.363281 51.585938 47.285156 52.125 C 50.085938 53.757812 53.507812 54.625 53.066406 58.304688 C 48.824219 56.449219 43.78125 55.691406 40.109375 53.71875 Z M 47.285156 65.285156 C 47.171875 64.867188 46.792969 64.714844 46.886719 64.085938 C 46.15625 63.808594 45.347656 64.84375 45.492188 63.6875 C 44.90625 63.703125 44.75 64.144531 44.496094 64.484375 C 45.113281 64.527344 44.539062 65.289062 44.296875 65.882812 C 44.527344 65.914062 44.648438 65.839844 44.695312 65.683594 C 45.160156 66.425781 43.828125 66.226562 43.496094 65.683594 C 43.582031 65.300781 44.066406 65.320312 43.898438 64.6875 C 43.222656 65.074219 42.808594 65.722656 41.902344 65.882812 C 41.695312 63.882812 43.371094 63.992188 44.894531 62.691406 C 44.34375 63.480469 46.519531 63.042969 46.6875 62.691406 C 46.425781 64.46875 48.351562 60.980469 48.882812 62.292969 C 48.746094 62.515625 48.21875 62.253906 48.082031 62.890625 C 48.597656 63.328125 49.378906 62.332031 49.480469 61.695312 C 48.769531 61.761719 48.277344 61.109375 49.082031 60.5 C 48.945312 60.183594 47.277344 60.007812 47.683594 60.898438 C 47.117188 60.445312 47.566406 60.128906 47.285156 59.300781 C 47.699219 59.183594 47.964844 58.917969 48.082031 58.503906 C 48.035156 58.289062 47.6875 58.371094 47.683594 58.105469 C 47.101562 58.386719 47.050781 59.203125 46.6875 59.703125 C 45.953125 59.558594 46.324219 58.328125 46.886719 58.304688 C 45.308594 57.414062 44.121094 56.855469 41.703125 57.308594 C 41.554688 56.695312 42.25 56.925781 42.101562 56.3125 C 46.273438 56.394531 48.4375 58.480469 51.671875 59.5 C 51.425781 60.148438 52.316406 59.65625 52.070312 60.300781 C 54.539062 59.023438 55.226562 61.300781 55.859375 63.089844 C 55.25 62.707031 54.859375 62.097656 54.265625 61.695312 C 53.40625 62.359375 52.941406 61.25 52.269531 61.097656 C 50.179688 62.113281 52.25 63.636719 52.46875 65.085938 C 50.824219 65.625 48.898438 65.664062 47.285156 65.285156 Z M 46.089844 62.09375 C 46.164062 62.699219 45.441406 62.507812 45.09375 62.691406 C 45.066406 62.132812 45.582031 62.117188 46.089844 62.09375 Z M 46.089844 59.902344 C 46.269531 60.054688 46.539062 60.117188 46.886719 60.101562 C 46.964844 60.976562 46.648438 61.457031 46.089844 61.695312 C 45.597656 61.378906 46.007812 60.300781 46.089844 59.902344 Z M 53.867188 69.269531 C 53.128906 69.410156 53.367188 68.574219 53.066406 68.273438 C 52.578125 68.835938 52.101562 69.105469 52.46875 70.070312 C 53.195312 70.144531 52.96875 71.167969 53.867188 71.066406 C 53.804688 71.421875 52.8125 71.847656 53.464844 72.261719 C 52.300781 72.496094 50.996094 71.144531 50.476562 70.070312 C 51.132812 69.925781 51.148438 69.144531 51.871094 69.070312 C 51.273438 68.582031 51.296875 67.660156 51.472656 66.878906 C 51.671875 66.878906 51.871094 66.878906 52.070312 66.878906 C 52.183594 67.351562 53.269531 68.34375 54.066406 68.273438 C 54.03125 68.507812 54.109375 68.628906 54.265625 68.671875 C 54.136719 68.875 53.804688 68.878906 53.867188 69.269531 Z M 54.664062 68.472656 C 54.015625 67.976562 54.660156 67.425781 53.867188 67.078125 C 54.3125 66.800781 55.074219 67.71875 54.664062 68.472656 Z M 54.664062 66.082031 C 54.730469 65.304688 54.667969 64.945312 54.066406 64.085938 C 55.015625 64.660156 57.90625 66.054688 56.257812 67.277344 C 55.949219 66.410156 55.933594 66.320312 55.460938 65.484375 C 55.195312 65.683594 54.859375 65.8125 54.664062 66.082031 Z M 55.859375 74.257812 C 56.972656 74.636719 57.238281 75.386719 57.253906 76.449219 C 56.359375 76.148438 55.988281 75.324219 55.859375 74.257812 Z M 57.054688 74.65625 C 57.707031 74.476562 59.296875 75.066406 60.046875 75.453125 C 59.4375 75.832031 57.992188 75.085938 57.054688 74.65625 Z M 60.046875 78.042969 C 60.574219 78.113281 60.71875 78.566406 60.84375 79.039062 C 60.316406 78.972656 60.171875 78.519531 60.046875 78.042969 Z M 61.640625 75.453125 C 61.40625 75.484375 61.472656 75.816406 61.441406 76.050781 C 60.902344 75.941406 60.945312 75.890625 60.246094 75.652344 C 60.203125 75.3125 60.585938 75.136719 60.246094 75.054688 C 60.910156 75.230469 60.902344 75.125 61.441406 74.257812 C 62.121094 74.507812 62.167969 75.390625 62.238281 76.25 C 61.402344 76.398438 62.511719 75.488281 61.640625 75.453125 Z M 61.042969 64.886719 C 60.152344 65.234375 59.265625 63.046875 58.652344 61.894531 C 60.445312 64.160156 64.03125 65.679688 64.632812 68.472656 C 62.78125 68.828125 61.0625 66.363281 61.042969 64.886719 Z M 58.453125 59.300781 C 58.527344 58.78125 59.089844 58.746094 58.851562 57.90625 C 58.28125 58.84375 58.382812 58.179688 58.054688 57.507812 C 57.496094 57.417969 58.210938 58.59375 57.652344 58.503906 C 56.636719 58.660156 56.972656 57.460938 56.457031 57.109375 C 57.351562 57.132812 57.730469 57.191406 58.253906 56.113281 C 59.1875 56.378906 60.5 57.316406 61.441406 56.910156 C 64.050781 59.886719 67.023438 62.492188 68.222656 66.878906 C 67.589844 66.847656 67.554688 67.410156 66.824219 67.277344 C 64.488281 64.164062 61.160156 62.042969 58.453125 59.300781 Z M 72.605469 92.398438 C 71.503906 91.472656 70.890625 90.011719 70.414062 88.613281 C 69.160156 84.925781 67.839844 80.863281 66.824219 76.847656 C 67.769531 76.941406 67.121094 76.675781 67.222656 76.050781 C 67.46875 76.136719 67.632812 76.304688 67.621094 76.648438 C 68.488281 76.515625 68.269531 75.300781 69.21875 75.253906 C 69.164062 74.84375 68.472656 75.066406 68.421875 74.65625 C 68.050781 74.683594 68.296875 75.328125 68.019531 75.453125 C 68.089844 74.359375 67.339844 74.828125 67.222656 73.660156 C 66.988281 73.691406 67.054688 74.023438 67.023438 74.257812 C 66.847656 74.101562 66.574219 74.042969 66.226562 74.058594 C 64.953125 71.316406 67.878906 69.742188 69.21875 69.472656 C 71.734375 73.003906 73.617188 77.167969 73.605469 83.230469 C 73.308594 83.929688 72.75 84.367188 72.40625 85.023438 C 73.175781 87 73.609375 90.316406 72.605469 92.398438 Z M 74.003906 72.859375 C 72.402344 70.882812 72.910156 67.570312 76.394531 68.074219 C 75.433594 69.507812 74.714844 71.179688 74.003906 72.859375 Z M 74.402344 63.6875 C 73.300781 64.410156 74.589844 65.601562 74.601562 66.480469 C 73.371094 66.78125 71.933594 66.871094 71.410156 67.875 C 70.6875 67.464844 71.226562 66.835938 71.410156 66.28125 C 68.992188 65.046875 69.230469 62.132812 68.421875 60.101562 C 68.621094 59.070312 70.183594 58.324219 69.21875 57.308594 C 69.347656 56.710938 69.644531 57.5 70.015625 57.308594 C 69.648438 56.679688 68.453125 55.664062 67.820312 56.511719 C 67.851562 56.878906 68.496094 56.632812 68.617188 56.910156 C 67.660156 57.347656 67.144531 58.226562 66.027344 58.503906 C 66.207031 57.195312 65.355469 56.917969 65.429688 55.714844 C 66.726562 55.714844 68.523438 56.3125 70.015625 55.714844 C 69.996094 56.0625 70.40625 56.128906 70.613281 56.710938 C 70.132812 56.792969 70.179688 56.347656 69.617188 56.511719 C 69.785156 56.804688 70.117188 56.941406 70.613281 56.910156 C 70.9375 57.050781 70.9375 55.96875 70.613281 56.113281 C 71.164062 55.445312 71.242188 56.929688 71.609375 57.109375 C 71.632812 56.058594 72.0625 57.191406 73.003906 56.710938 C 72.894531 56.226562 72.835938 55.683594 72.207031 55.714844 C 72.800781 55.09375 72.328125 54.429688 73.203125 54.71875 C 73.1875 53.972656 72.980469 54.148438 73.203125 53.519531 C 73.058594 53.070312 72.445312 53.085938 72.40625 52.523438 C 72.042969 53.222656 71.5 53.746094 71.210938 54.515625 C 71.109375 53.277344 72.542969 52.222656 72.007812 50.332031 C 72.324219 50.3125 72.769531 50.425781 72.804688 50.132812 C 73.03125 50.167969 72.917969 50.332031 72.804688 50.332031 C 73.550781 51.210938 74.414062 51.714844 75.597656 50.929688 C 75.59375 50.574219 74.65625 51.246094 74.402344 50.730469 C 74.71875 49.851562 75.886719 50.585938 75.996094 51.128906 C 76.765625 49.953125 79.164062 51.234375 79.785156 51.128906 C 80.125 50.113281 81.328125 51.1875 83.175781 50.929688 C 82.171875 53.714844 80.875 56.207031 79.1875 58.304688 C 78.914062 58.242188 79.019531 57.808594 78.988281 57.507812 C 78.359375 57.480469 78.300781 58.019531 78.1875 58.507812 C 77.574219 58.367188 77.804688 58.367188 77.191406 58.507812 C 77.589844 58.304688 77.648438 57.765625 77.988281 57.507812 C 77.746094 57.21875 77.230469 57.207031 76.992188 56.910156 C 76.578125 57.023438 77.28125 57.664062 77.191406 58.105469 C 76.628906 58.222656 75.460938 57.808594 75.398438 58.707031 C 74.984375 58.59375 74.976562 58.394531 75.199219 58.105469 C 74.617188 58.054688 74.433594 58.878906 75 58.902344 C 74.976562 59.28125 74.339844 59.042969 74.402344 59.5 C 73.941406 58.898438 74.40625 58.613281 73.601562 59.101562 C 73.929688 57.914062 73.042969 57.9375 72.40625 57.707031 C 71.691406 58.296875 72.359375 59.769531 71.808594 60.300781 C 73.378906 61.355469 75.613281 62.695312 77.390625 62.890625 C 77.371094 63.386719 77.019531 63.507812 77.390625 63.886719 C 77.921875 63.953125 77.203125 62.773438 77.988281 63.089844 C 77.835938 64.398438 77.292969 65.316406 76.992188 66.480469 C 75.203125 66.476562 75.695312 64.191406 74.402344 63.6875 Z M 74.402344 63.6875 " fill-opacity="1" fill-rule="nonzero"/></g></g></g></g></svg>