<svg xmlns="http://www.w3.org/2000/svg" xmlns:xlink="http://www.w3.org/1999/xlink" width="500" zoomAndPan="magnify" viewBox="0 0 375 374.999991" height="500" preserveAspectRatio="xMidYMid meet" version="1.0"><defs><filter x="0%" y="0%" width="100%" height="100%" id="a61f652d50"><feColorMatrix values="0 0 0 0 1 0 0 0 0 1 0 0 0 0 1 0 0 0 1 0" color-interpolation-filters="sRGB"/></filter><g/><mask id="0a7655e498"><g filter="url(#a61f652d50)"><rect x="-37.5" width="450" fill="#000000" y="-37.499999" height="449.999989" fill-opacity="0.12"/></g></mask><clipPath id="ffba5486dc"><path d="M 2 0.285156 L 150.644531 0.285156 L 150.644531 133.035156 L 2 133.035156 Z M 2 0.285156 " clip-rule="nonzero"/></clipPath><clipPath id="92b189145d"><rect x="0" width="151" y="0" height="134"/></clipPath><mask id="8b7c884804"><g filter="url(#a61f652d50)"><rect x="-37.5" width="450" fill="#000000" y="-37.499999" height="449.999989" fill-opacity="0.9"/></g></mask><clipPath id="0a50b1d214"><rect x="0" width="116" y="0" height="57"/></clipPath><clipPath id="bb1e94825e"><path d="M 82.070312 151.257812 L 104 151.257812 L 104 224 L 82.070312 224 Z M 82.070312 151.257812 " clip-rule="nonzero"/></clipPath><clipPath id="dd0cee8d44"><path d="M 271 151.257812 L 292.820312 151.257812 L 292.820312 224 L 271 224 Z M 271 151.257812 " clip-rule="nonzero"/></clipPath></defs><g mask="url(#0a7655e498)"><g transform="matrix(1, 0, 0, 1, 110, 107)"><g clip-path="url(#92b189145d)"><g clip-path="url(#ffba5486dc)"><path fill="#000000" d="M 80.148438 130.46875 C 80.335938 128.148438 80.207031 126.96875 80.191406 124.050781 C 80.246094 124.042969 80.292969 124.042969 80.332031 124.050781 L 80.296875 123.457031 L 80.355469 122.882812 C 80.332031 122.96875 80.289062 123.039062 80.191406 123.050781 C 80.042969 122.515625 80.257812 122.347656 80.425781 122.128906 L 80.484375 121.527344 C 79.722656 120.550781 80.375 118.101562 80.390625 116.253906 C 80.417969 112.714844 80.359375 108.476562 80.390625 106.058594 C 80.5625 92.507812 79.585938 78.140625 83.378906 68.867188 C 87.589844 69.40625 95.242188 70.1875 99.726562 72.265625 C 99.320312 72.667969 99.199219 72.316406 98.929688 72.066406 C 99.253906 72.710938 99.027344 73.148438 98.929688 73.867188 C 100.0625 73.972656 98.757812 72.800781 99.929688 72.867188 C 99.570312 73.871094 99.195312 75.460938 100.726562 75.464844 C 101.101562 75.441406 100.863281 74.804688 101.324219 74.863281 C 101.535156 75.132812 101.574219 76.59375 102.121094 75.863281 C 101.535156 75.410156 102.449219 75.410156 102.519531 75.863281 C 102.777344 75.367188 102.074219 74.894531 102.519531 74.863281 C 103.078125 75.328125 102.566406 75.710938 103.117188 76.265625 C 103.246094 75.859375 104.050781 76.132812 104.113281 75.664062 C 103.816406 75.03125 103.445312 74.472656 102.917969 74.066406 C 103.203125 74.015625 103.253906 73.734375 103.515625 73.664062 C 103.972656 74.882812 105.425781 75.910156 106.90625 75.464844 C 106.8125 75.855469 107.441406 76.488281 107.503906 76.0625 C 107.28125 76.023438 107.195312 75.84375 107.105469 75.664062 C 108.039062 75.730469 108.472656 76.292969 109.496094 76.265625 C 109.53125 75.566406 109.957031 75.257812 110.496094 75.0625 C 110.527344 75.300781 110.460938 75.632812 110.695312 75.664062 C 111.066406 75.285156 110.714844 75.164062 110.695312 74.664062 C 111.824219 75.0625 111.570312 74.078125 111.890625 73.664062 C 111.875 74.492188 113.300781 73.730469 113.285156 74.066406 C 112.347656 74.375 112.40625 75.164062 113.085938 75.664062 C 112.46875 75.488281 112.160156 74.996094 111.492188 74.863281 C 111.253906 75.757812 110.441406 76.078125 109.699219 76.464844 C 111.003906 76.984375 112.730469 75.78125 113.882812 76.664062 C 114.117188 75.402344 114.941406 75.5 115.082031 74.265625 C 116.121094 74.222656 116.355469 74.984375 117.273438 75.0625 C 117.332031 74.671875 117.003906 74.667969 116.875 74.464844 C 117.269531 74.460938 117.128906 73.917969 117.671875 74.066406 C 118.324219 74.011719 118.25 74.6875 118.667969 74.863281 C 117.945312 74.996094 118.082031 75.4375 118.667969 75.664062 C 118.644531 74.5625 120.460938 74.695312 120.464844 75.664062 C 120.929688 75.398438 121.585938 75.324219 122.058594 75.0625 C 121.828125 75.03125 121.84375 74.75 121.859375 74.464844 C 122.484375 74.558594 122.386719 73.925781 122.855469 73.867188 C 123.039062 74.210938 123.589844 74.417969 123.652344 73.867188 C 123.300781 73.820312 122.65625 74.066406 122.855469 73.464844 C 123.761719 74.117188 123.578125 73.058594 124.054688 73.066406 C 124.132812 73.546875 123.6875 73.5 123.855469 74.066406 C 124.945312 72.519531 127.234375 73.121094 128.238281 72.464844 C 128.347656 71.777344 128.953125 71.578125 128.835938 70.664062 C 127.785156 70.78125 128.136719 70.128906 128.4375 69.667969 C 127.65625 69.484375 127.355469 70.179688 126.84375 69.265625 C 126.699219 70.488281 125.523438 69.433594 125.050781 70.265625 C 125.378906 69.445312 124.703125 69.417969 125.050781 68.464844 C 124.339844 68.15625 124.929688 69.144531 124.449219 69.066406 C 123.71875 68.734375 122.933594 68.457031 122.65625 67.667969 C 122.613281 67.890625 122.4375 67.976562 122.257812 68.066406 C 122.308594 67.242188 122.023438 67.261719 121.460938 67.46875 C 121.273438 66.363281 120.144531 66.320312 119.464844 67.265625 C 119.261719 66.804688 118.78125 66.621094 118.867188 65.867188 C 118.433594 65.742188 118.234375 66.433594 118.269531 65.667969 C 117.4375 66.015625 117.144531 66.214844 116.277344 65.667969 C 115.976562 65.964844 116.21875 66.808594 115.480469 66.667969 C 115.5 65.386719 115.089844 66.824219 114.484375 66.667969 C 115.074219 65.9375 113.695312 64.292969 114.882812 64.066406 C 114.507812 63.207031 114.269531 63.308594 114.484375 62.070312 C 111.800781 61.332031 109.089844 59.886719 105.910156 60.070312 C 106.003906 60.695312 105.734375 60.960938 105.113281 60.867188 C 104.851562 60.371094 105.695312 60.039062 105.113281 59.867188 C 104.746094 60.160156 103.628906 59.117188 102.917969 59.667969 C 102.980469 59.398438 103.203125 59.289062 103.117188 58.871094 C 102.601562 58.988281 102.398438 58.789062 102.519531 58.269531 C 101.863281 58.277344 102.175781 59.257812 101.324219 59.070312 C 100.746094 57.890625 100.011719 58.84375 98.53125 58.070312 C 98.585938 58.523438 98.484375 58.820312 98.132812 58.871094 C 97.539062 58.160156 96.824219 58.75 96.140625 58.070312 C 95.320312 58.714844 93.945312 58.800781 93.945312 60.269531 C 93.746094 60.269531 93.546875 60.269531 93.347656 60.269531 C 93.628906 60.007812 94.066406 59.210938 93.347656 59.070312 C 93.441406 59.886719 92.847656 59.0625 92.550781 59.070312 C 92.253906 59.4375 91.921875 59.769531 91.554688 60.070312 C 91.550781 59.804688 91.203125 59.886719 91.15625 59.667969 C 91.035156 59.3125 91.738281 58.839844 91.15625 58.671875 C 90.003906 58.234375 88.886719 59.597656 87.765625 58.46875 C 87.84375 59.214844 87.605469 59.644531 86.96875 59.667969 C 87.140625 58.742188 86.652344 59.460938 86.570312 59.070312 C 88.414062 55.480469 88.988281 50.386719 91.355469 47.875 C 91.109375 47.851562 90.882812 47.8125 90.957031 47.472656 C 91.15625 47.472656 91.191406 47.3125 91.355469 47.273438 C 92.378906 47.800781 93.445312 47.269531 93.546875 46.273438 C 93.800781 46.820312 94.347656 47.070312 94.742188 47.472656 C 97.957031 47.878906 101.320312 49.699219 103.515625 51.070312 C 104.988281 51.992188 107.070312 52.105469 106.707031 54.070312 C 107.207031 53.804688 107.191406 55.003906 107.503906 54.269531 C 107.324219 54.035156 106.53125 53.40625 107.105469 53.070312 C 107.535156 53.375 107.9375 53.703125 108.101562 54.269531 C 107.792969 53.429688 109.132812 54.238281 109.097656 53.671875 C 108.492188 53.480469 107.738281 53.4375 107.503906 52.871094 C 108.136719 53.175781 108.382812 52.941406 109.097656 52.871094 C 109.050781 53.15625 108.769531 53.207031 108.699219 53.472656 C 110.035156 53.144531 111.027344 52.472656 111.890625 51.671875 C 112.011719 52.015625 112.835938 51.65625 112.886719 52.070312 C 112.660156 52.136719 111.570312 52.3125 112.089844 52.472656 C 112.898438 52.042969 113.800781 52.402344 114.480469 52.671875 C 114.578125 51.847656 113.945312 52.863281 113.882812 52.070312 C 114.574219 52.230469 114.648438 51.773438 115.28125 51.871094 C 115.292969 52.21875 115.234375 52.496094 115.082031 52.671875 C 116.152344 52.746094 116.867188 52.082031 116.875 51.671875 C 118.175781 51.375 117.707031 51.515625 119.070312 51.671875 C 119.652344 50.417969 119.277344 50.101562 118.269531 49.273438 C 117.972656 49.96875 117.984375 50.382812 117.871094 50.871094 C 117.40625 50.308594 117.574219 50.019531 117.671875 49.273438 C 117.039062 48.976562 116.566406 48.515625 116.675781 47.472656 C 115.625 47.855469 115.757812 47.171875 115.679688 46.273438 C 114.855469 46.042969 114.113281 46.046875 113.683594 46.671875 C 113.78125 46.042969 113.402344 45.890625 113.285156 45.472656 C 112.601562 45.5625 112.167969 45.394531 111.691406 45.273438 C 111.304688 45.488281 111.414062 46.195312 111.09375 46.472656 C 110.71875 45.476562 109.707031 46.210938 108.5 45.875 C 108.511719 45.265625 108.320312 44.855469 107.902344 44.675781 C 107.914062 45.019531 107.75 45.1875 107.503906 45.273438 C 107.214844 44.960938 106.699219 44.878906 106.90625 44.074219 C 105.753906 44.808594 106.199219 42.980469 105.511719 42.675781 C 105.699219 43.398438 104.648438 42.878906 104.511719 43.273438 C 104.480469 42.976562 104.585938 42.539062 104.3125 42.476562 C 104.3125 42.675781 103.964844 42.726562 103.914062 42.476562 C 108.617188 40.792969 109.871094 35.652344 114.480469 33.878906 C 114.464844 33.4375 119.304688 31.3125 120.664062 31.679688 C 121.578125 31.925781 122.144531 34.339844 122.457031 32.675781 C 122.292969 33.578125 123.316406 33.28125 123.851562 33.476562 C 124.253906 33.164062 124.425781 32.363281 123.851562 32.078125 C 123.796875 32.261719 122.96875 32.609375 123.054688 32.277344 C 123.089844 31.976562 122.984375 31.539062 123.253906 31.476562 C 123.273438 31.792969 123.230469 32.171875 123.652344 32.078125 C 124.09375 31.789062 123.402344 31.589844 123.851562 31.476562 C 124.230469 31.523438 124.292969 31.253906 124.648438 31.277344 C 124.699219 31.648438 125.367188 32.398438 125.648438 31.878906 C 123.847656 29.976562 129.738281 31.136719 127.839844 30.078125 C 128.667969 29.847656 128.617188 30.5 129.238281 30.476562 C 129.601562 29.578125 131.835938 29.726562 132.226562 30.476562 C 132.285156 29.882812 132.734375 29.269531 133.421875 29.878906 C 134.046875 29.9375 132.917969 29.300781 133.621094 29.277344 C 134.613281 29.683594 136.53125 29.160156 137.011719 30.078125 C 137.671875 29.453125 138.515625 30.011719 139.207031 29.679688 C 139.453125 29.03125 138.558594 29.523438 138.804688 28.878906 C 139.207031 28.796875 140.285156 28.382812 140.601562 28.878906 C 140.121094 29.265625 139.140625 29.144531 139.207031 30.078125 C 140.449219 29.519531 143.546875 29.789062 144.589844 28.078125 C 145.078125 28.050781 145.550781 28.046875 145.785156 28.277344 C 146.695312 27.128906 148.769531 27.140625 148.972656 25.28125 C 147.800781 25.125 147.59375 24 146.78125 23.480469 C 147.894531 22.328125 150.109375 22.285156 150.570312 20.480469 C 150.46875 19.917969 150.136719 19.582031 149.574219 19.480469 C 149.269531 20.441406 148.417969 20.855469 147.578125 21.28125 C 148.007812 20.710938 148.828125 20.152344 148.375 19.28125 C 147.402344 19.304688 147.421875 20.324219 146.382812 20.28125 C 146.535156 19.769531 146.675781 19.363281 146.183594 19.082031 C 146.320312 19.621094 145.769531 19.46875 145.585938 19.679688 C 145.074219 18.621094 144.246094 17.359375 143.191406 18.28125 C 143.328125 17.277344 142.714844 17.03125 141.996094 16.882812 C 141.53125 18.234375 139.5625 16.746094 139.207031 16.082031 C 139.175781 16.316406 139.238281 16.648438 139.007812 16.683594 C 139.042969 16.246094 138.84375 16.046875 138.40625 16.082031 C 138.066406 16.207031 138.078125 16.6875 137.808594 16.882812 C 137.425781 16.300781 136.800781 16.71875 136.414062 16.484375 C 136.46875 17.003906 136.339844 17.34375 135.816406 17.28125 C 135.972656 16.589844 135.628906 16.402344 135.21875 16.28125 C 135.25 16.78125 134.910156 16.910156 134.621094 17.082031 C 133.890625 16.570312 133.699219 16.039062 133.421875 15.484375 C 133.355469 17.304688 130.570312 18.734375 130.433594 16.28125 C 131.964844 15.804688 131.644531 14.492188 132.425781 14.082031 C 132.371094 13.367188 131.730469 12.53125 132.226562 11.882812 C 131.320312 12.460938 131.417969 11.367188 131.03125 10.882812 C 129.710938 11.652344 126.792969 10.839844 125.449219 10.484375 C 126.042969 10.1875 125.78125 9.585938 125.648438 9.085938 C 124.695312 9.765625 124.039062 10.507812 124.054688 11.683594 C 123.4375 11.15625 122.660156 11.144531 122.457031 11.882812 C 122.15625 11.519531 122.113281 10.898438 121.859375 10.484375 C 121.472656 10.695312 121.582031 11.40625 121.261719 11.683594 C 120.9375 11.339844 121.074219 10.539062 120.265625 10.683594 C 120.332031 11.488281 120.261719 12.148438 119.667969 12.285156 C 119.710938 11.402344 119.398438 11.488281 119.066406 10.683594 C 118.132812 11.203125 117.328125 11.203125 116.675781 10.285156 C 116.855469 9.773438 117 9.152344 116.476562 8.886719 C 115.75 9.609375 115.507812 10.773438 115.082031 11.285156 C 115.269531 11.035156 114.867188 10.167969 114.480469 9.886719 C 113.515625 10.132812 113.289062 10.65625 112.488281 10.085938 C 112.488281 9.75 112.488281 9.417969 112.488281 9.085938 C 111.859375 9.3125 112.003906 8.769531 111.691406 8.683594 C 111.484375 9.410156 111.136719 9.996094 110.496094 10.285156 C 110.449219 9.308594 109.941406 9.914062 109.695312 10.285156 C 109.351562 10.164062 109.710938 9.335938 109.296875 9.285156 C 109.050781 10.109375 108.71875 9.207031 108.300781 9.085938 C 108.269531 9.320312 108.335938 9.652344 108.101562 9.683594 C 107.929688 8.976562 107.363281 9.804688 107.105469 9.085938 C 106.476562 9.453125 107.777344 9.761719 107.105469 10.085938 C 106.871094 9.988281 106.652344 9.871094 106.507812 9.683594 C 106.316406 9.3125 107.105469 9.015625 106.507812 8.886719 C 106.207031 9.117188 106.019531 9.460938 105.511719 9.484375 C 105.03125 9.097656 104.671875 8.589844 104.3125 8.085938 C 103.808594 8.332031 103.851562 7.742188 103.316406 8.484375 C 103.1875 7.546875 103.988281 6.921875 103.316406 6.285156 C 103.273438 6.640625 103.519531 7.289062 102.917969 7.085938 C 102.882812 6.785156 102.988281 6.347656 102.71875 6.285156 C 102.636719 6.496094 101.625 6.75 101.722656 6.484375 C 101.734375 6.230469 101.976562 6.207031 101.921875 5.886719 C 101.371094 5.75 101.46875 5.851562 101.125 5.285156 C 100.835938 5.730469 99.9375 5.5625 99.527344 5.886719 C 99.351562 5.464844 98.921875 5.296875 98.929688 4.6875 C 98.222656 4.375 98.808594 5.367188 98.332031 5.285156 C 98.058594 4.410156 96.820312 3.949219 96.9375 3.285156 C 96.742188 3.949219 96.542969 3.0625 96.339844 3.085938 C 96.140625 3.355469 95.804688 3.484375 95.539062 3.6875 C 95.632812 1.917969 94.007812 3.101562 93.347656 2.085938 C 93 3.1875 91.621094 3.210938 91.753906 4.285156 C 90.042969 0.324219 87.132812 5.105469 86.371094 6.683594 C 85.644531 6.34375 85.269531 5.65625 84.773438 5.085938 C 84.382812 5.265625 84.046875 6.105469 83.378906 5.6875 C 83.460938 5.347656 84.320312 4.785156 83.777344 4.484375 C 83.5 5.230469 83.75 3.898438 83.378906 4.085938 C 83.082031 4.320312 83.144531 4.917969 82.582031 4.886719 C 82.609375 3.671875 81.101562 5.699219 80.386719 5.285156 C 80.222656 5.851562 80.667969 5.804688 80.585938 6.285156 C 79.875 6.585938 80.003906 6.484375 79.589844 7.085938 C 79.550781 6.84375 79.371094 6.960938 79.191406 7.085938 C 79.246094 5.960938 79.246094 5.851562 79.589844 4.886719 C 77.476562 4.246094 79.496094 1.632812 78.394531 0.6875 C 78.230469 1.457031 78.164062 2.320312 77.199219 2.285156 C 76.878906 2.140625 77.242188 1.308594 76.601562 1.488281 C 76.058594 1.34375 76.742188 2.429688 76.199219 2.285156 C 75.804688 1.953125 75.949219 2.304688 75.402344 2.285156 C 75.015625 2.023438 75.800781 1.226562 75.003906 1.085938 C 74.648438 1.527344 74.464844 2.144531 73.808594 2.285156 C 73.839844 1.789062 73.707031 1.457031 73.410156 1.285156 C 73.328125 1.628906 73.152344 1.246094 72.8125 1.285156 C 72.992188 2.535156 72.167969 2.777344 71.617188 3.285156 C 71.929688 2.503906 71.097656 2.871094 71.015625 2.488281 C 71.34375 2.578125 71.34375 1.398438 71.015625 1.488281 C 70.886719 2.085938 70.589844 1.296875 70.21875 1.488281 C 69.882812 2.347656 68.855469 2.519531 68.226562 3.085938 C 68.117188 2.796875 68.460938 2.050781 68.027344 2.085938 C 67.660156 2.066406 67.195312 2.726562 66.632812 2.085938 C 66.9375 1.726562 67.351562 1.472656 67.230469 0.6875 C 66.839844 0.746094 66.835938 0.417969 66.632812 0.285156 C 66.050781 2.511719 64.210938 2.035156 61.847656 2.085938 C 61.84375 2.617188 61.957031 3.265625 61.449219 3.285156 C 61.304688 2.621094 60.621094 2.636719 61.050781 1.886719 C 60.359375 1.386719 59.683594 2.390625 59.253906 2.085938 C 59.054688 2.882812 59.265625 3.492188 59.054688 3.886719 C 58.246094 3.898438 58.113281 3.234375 57.0625 3.484375 C 56.863281 4.550781 57.644531 4.636719 57.660156 5.484375 C 56.699219 6.640625 55.503906 6.214844 54.273438 5.484375 C 53.609375 6.421875 52.539062 6.945312 52.277344 8.285156 C 52.363281 8.664062 52.707031 8.785156 52.675781 9.285156 C 53.320312 9.53125 52.828125 8.636719 53.472656 8.882812 C 53.359375 9.636719 52.796875 9.9375 52.277344 10.285156 C 51.96875 9.21875 49.828125 8.945312 49.6875 10.484375 C 49.269531 9.726562 49.140625 10.425781 48.6875 10.683594 C 48.6875 10.351562 48.6875 10.015625 48.6875 9.683594 C 47.628906 9.820312 47.566406 10.960938 46.894531 11.484375 C 47.574219 10.429688 45.96875 10.089844 45.5 10.082031 C 45.476562 11.085938 45.863281 11.609375 45.300781 12.285156 C 45.359375 11.46875 44.882812 12.175781 44.5 12.082031 C 44.660156 11.394531 44.316406 11.203125 43.902344 11.082031 C 43.535156 11.484375 43.242188 12.675781 42.507812 12.082031 C 42.503906 12.679688 42.527344 13.300781 41.910156 13.28125 C 42.363281 12.828125 41.621094 12.554688 41.113281 12.484375 C 41.035156 13.226562 41.921875 13.003906 41.710938 13.882812 C 41.457031 13.894531 41.433594 14.140625 41.113281 14.082031 C 41.09375 13.769531 41.136719 13.390625 40.714844 13.484375 C 40.222656 14.445312 40.367188 15.488281 40.515625 16.28125 C 39.675781 16.253906 38.898438 17.460938 38.519531 16.683594 C 38.261719 17.363281 38.964844 18.078125 38.519531 18.28125 C 38.375 17.695312 37.769531 17.566406 37.324219 17.28125 C 37.761719 18.84375 38.953125 19.648438 39.316406 21.28125 C 39.738281 21.265625 42.140625 20.976562 42.308594 21.878906 C 41.609375 21.324219 41.699219 22.894531 41.710938 23.679688 C 41.144531 23.210938 40.722656 24.171875 40.117188 24.28125 C 40.375 22.910156 39.539062 23.882812 39.714844 22.679688 C 38.683594 22.507812 39.167969 23.863281 38.320312 23.878906 C 38.316406 24.351562 38.664062 24.46875 38.519531 25.078125 C 37.894531 24.851562 38.035156 25.394531 37.722656 25.480469 C 37.660156 25.210938 37.441406 25.097656 37.523438 24.679688 C 36.816406 24.367188 37.402344 25.359375 36.925781 25.28125 C 36.761719 24.714844 37.207031 24.761719 37.125 24.28125 C 35.035156 25.5 32.132812 24.574219 30.746094 23.480469 C 30.738281 23.203125 30.839844 23.042969 30.945312 22.878906 C 29.925781 22.753906 30 22.082031 29.148438 22.679688 C 28.800781 21.0625 29.394531 24.085938 28.550781 23.28125 C 28.441406 23.570312 28.785156 24.3125 28.351562 24.28125 C 27.839844 23.75 28.066406 24.664062 27.554688 24.679688 C 27.570312 24.332031 27.511719 24.058594 27.355469 23.878906 C 26.890625 24.476562 26.335938 23.824219 25.960938 24.078125 C 26.222656 24.082031 26.214844 24.632812 25.960938 24.679688 C 25.472656 23.851562 25.746094 24.953125 24.964844 24.878906 C 24.917969 24.5 25.1875 24.4375 25.164062 24.078125 C 24.324219 24.765625 23.082031 25.683594 22.171875 24.679688 C 21.164062 25.785156 19.390625 24.75 17.785156 24.878906 C 17.785156 24.679688 17.945312 24.640625 17.984375 24.480469 C 16.96875 24.5625 16.910156 25.175781 15.992188 24.679688 C 16.046875 25.136719 15.945312 25.429688 15.59375 25.480469 C 15.460938 24.878906 15.167969 25.671875 14.796875 25.480469 C 14.855469 25.015625 15.296875 24.542969 14.398438 24.679688 C 14.503906 25.324219 13.367188 25.628906 13 25.679688 C 13.054688 24.828125 12.601562 24.484375 12.402344 23.878906 C 12.351562 24.191406 11.964844 24.019531 11.804688 23.878906 C 11.644531 24.25 11.546875 24.6875 11.207031 24.878906 C 11.742188 25.941406 12.441406 26.839844 12.601562 28.277344 C 13.601562 27.601562 14.523438 28.347656 14.597656 29.679688 C 14.132812 29.589844 14.0625 28.796875 13.597656 29.277344 C 13.292969 29.914062 13.527344 30.15625 13.597656 30.878906 C 12.261719 31.019531 12.449219 30.460938 11.40625 30.078125 C 11.246094 30.613281 10.605469 30.734375 10.011719 30.277344 C 10.03125 31.347656 9.621094 30.820312 9.011719 31.078125 C 8.585938 30.773438 8.363281 30.265625 7.617188 30.277344 C 7.496094 30.886719 6.722656 30.847656 7.019531 31.878906 C 6.394531 31.675781 5.671875 31.835938 4.828125 31.476562 C 4.554688 31.871094 4.921875 32.90625 4.03125 32.675781 C 4.5625 33.941406 6.902344 34.011719 6.023438 36.078125 C 6.648438 36.046875 6.707031 36.589844 6.820312 37.078125 C 6.558594 37.078125 6.636719 37.425781 6.421875 37.476562 C 5.796875 37.011719 6.476562 36.390625 5.625 37.078125 C 5.089844 35.96875 5.777344 34.699219 4.628906 34.078125 C 4.972656 34.898438 4.496094 35.371094 4.828125 36.277344 C 4.308594 36.023438 3.457031 35.394531 4.03125 34.675781 C 3.125 34.769531 2.707031 35.351562 2.234375 35.875 C 2.601562 36.441406 2.941406 37.035156 3.230469 37.675781 C 0.742188 38.140625 4.332031 41.152344 4.429688 39.277344 C 4.300781 40.386719 3.101562 38.453125 3.832031 38.074219 C 4.363281 38.609375 4.949219 39.085938 5.625 39.476562 C 5.703125 39.132812 5.328125 38.960938 5.625 38.875 C 6 39.257812 5.648438 39.378906 5.625 39.875 C 7.6875 39.960938 8.710938 39.519531 9.8125 39.875 C 9.652344 40.449219 9.40625 40.9375 9.214844 41.476562 C 9.851562 41.433594 9.539062 42.347656 10.210938 42.273438 C 10.234375 41.339844 10.5 42.492188 11.007812 42.273438 C 11.234375 41.882812 11.339844 41.777344 11.804688 41.273438 C 12.296875 41.511719 11.394531 42.03125 12.003906 42.273438 C 12.28125 41.402344 12.695312 42.421875 13 42.675781 C 13.191406 42.300781 12.402344 42.007812 13 41.875 C 13.625 42.839844 13.886719 43.511719 14.199219 45.074219 C 15.492188 45.117188 18.648438 45.695312 18.984375 46.671875 C 19.796875 46.003906 20.101562 46.109375 20.976562 46.671875 C 21.480469 46.179688 22.027344 45.726562 22.96875 45.671875 C 23.050781 46.15625 22.605469 46.109375 22.769531 46.671875 C 23.378906 46.617188 23.207031 45.78125 23.769531 45.671875 C 23.257812 45.652344 22.816406 45.5625 22.570312 45.273438 C 22.742188 44.710938 23.136719 44.375 23.96875 44.472656 C 23.988281 44.699219 23.679688 44.785156 23.96875 44.875 C 25.910156 45.011719 27.898438 44.675781 29.75 45.472656 C 31.457031 46.210938 33.460938 46.796875 33.9375 47.875 C 38.121094 48.339844 40.242188 50.878906 41.113281 54.671875 C 42.179688 55.070312 42.910156 55.800781 43.507812 56.671875 C 42.597656 56.644531 41.015625 55.210938 40.117188 56.472656 C 39.914062 56.273438 39.714844 56.074219 39.519531 55.871094 C 39.515625 55.570312 40.257812 55.054688 39.71875 54.871094 C 38.890625 54.910156 39.078125 55.964844 38.523438 56.269531 C 38.152344 55.363281 37.804688 55.667969 37.125 55.070312 C 36.714844 55.859375 36.671875 56.585938 37.324219 57.070312 C 36.695312 56.972656 37.25 58.0625 36.527344 57.871094 C 36.503906 57.539062 37.175781 56.597656 36.328125 56.671875 C 35.800781 56.605469 36.515625 57.789062 35.730469 57.46875 C 35.203125 57.535156 35.917969 56.351562 35.132812 56.671875 C 34.683594 57.332031 35.589844 58.339844 35.730469 59.070312 C 34.808594 59.210938 34.855469 60.324219 34.535156 61.070312 C 34.023438 60.472656 34.671875 59.957031 34.335938 59.269531 C 33.542969 59.074219 34.253906 60.386719 33.539062 60.269531 C 33.425781 59.28125 33.4375 60.476562 33.140625 60.46875 C 32.796875 59.8125 32.792969 58.816406 31.941406 58.671875 C 31.667969 59.300781 31.898438 59.335938 31.941406 60.070312 C 30.976562 59.4375 31.605469 61.058594 30.746094 61.070312 C 30.761719 60.71875 30.703125 60.445312 30.546875 60.269531 C 29.785156 60.386719 29.921875 60.261719 29.550781 60.867188 C 28.777344 60.019531 28.085938 60.117188 27.355469 59.46875 C 27.082031 59.925781 27.871094 60.222656 27.355469 60.269531 C 25.824219 59.40625 25.257812 61.628906 26.757812 62.269531 C 26.496094 62.269531 26.578125 62.621094 26.359375 62.667969 C 25.714844 62.914062 26.207031 62.023438 25.5625 62.269531 C 25.355469 63.34375 25.402344 62.753906 24.566406 62.667969 C 24.476562 63.179688 24.285156 63.589844 23.96875 63.867188 C 23.773438 63.597656 23.4375 63.46875 23.171875 63.269531 C 23.058594 63.757812 22.703125 64 22.371094 64.269531 C 22.046875 63.566406 21.832031 63.792969 21.175781 63.269531 C 20.800781 63.933594 21.367188 64.390625 20.777344 64.667969 C 21.730469 64.367188 21.855469 66.152344 21.175781 66.265625 C 21.269531 65.445312 20.675781 66.425781 20.378906 65.867188 C 19.949219 66.777344 20.496094 68.371094 21.574219 68.867188 C 21.777344 68.300781 21.867188 68.367188 21.972656 68.066406 C 22.082031 68.480469 22.917969 68.113281 22.371094 68.667969 C 23.496094 68.851562 23.933594 68.519531 24.566406 69.066406 C 25.179688 67.644531 27.015625 69.054688 28.355469 69.066406 C 29.328125 69.074219 30.132812 68.023438 30.347656 68.867188 C 31.152344 67.671875 32.472656 69.003906 34.136719 68.667969 C 34.089844 68.953125 33.808594 69.003906 33.738281 69.265625 C 34.503906 68.832031 35.996094 68.074219 37.125 68.667969 C 36.863281 69.203125 36.25 69.382812 35.929688 69.867188 C 37.179688 69.53125 37.023438 68.09375 38.722656 68.667969 C 38.640625 69.148438 39.085938 69.101562 38.921875 69.667969 C 38.550781 70.261719 37.25 71.640625 38.125 71.664062 C 37.898438 72.707031 37.371094 73.441406 36.726562 74.066406 C 37.628906 74.300781 37.175781 73.179688 38.125 73.464844 C 38.144531 72.175781 38.667969 72.152344 38.125 71.066406 C 38.847656 71.195312 38.371094 70.113281 38.921875 70.066406 C 39.433594 70.085938 39.207031 70.847656 39.71875 70.867188 C 40.429688 69.515625 42.972656 71.5625 43.109375 70.265625 C 42.609375 70.292969 42.484375 70.648438 42.308594 70.066406 C 42.542969 69.898438 42.84375 69.800781 43.308594 69.867188 C 43.332031 70.359375 43.339844 70.828125 43.109375 71.066406 C 43.929688 70.894531 43.957031 70.523438 44.902344 70.867188 C 45.273438 69.597656 44.828125 70.386719 44.503906 69.667969 C 44.902344 69.667969 45.300781 69.667969 45.699219 69.667969 C 45.679688 68.648438 46.609375 68.195312 46.699219 67.867188 C 47.472656 68 48.328125 68.273438 48.691406 68.265625 C 48.425781 68.269531 48.507812 68.617188 48.292969 68.667969 C 48.0625 68.605469 46.976562 68.277344 47.496094 68.667969 C 47.929688 68.628906 48.128906 68.828125 48.09375 69.265625 C 47.859375 69.296875 47.527344 69.230469 47.496094 69.464844 C 48.78125 69.949219 48.449219 67.765625 49.488281 68.667969 C 49.628906 69.40625 48.636719 69.011719 48.492188 69.464844 C 49.332031 69.707031 49.367188 69.144531 49.886719 69.066406 C 50.007812 69.421875 49.304688 69.898438 49.886719 70.066406 C 50.265625 69.5625 50.585938 70.25 51.082031 69.867188 C 52.253906 71.890625 54.046875 73.292969 56.667969 73.863281 C 57.542969 75.683594 59.46875 77.40625 59.65625 79.261719 C 59.945312 79.375 60.144531 79.574219 60.253906 79.863281 C 60.816406 80.027344 60.773438 79.582031 61.25 79.664062 C 61.261719 79.9375 61.15625 80.101562 61.050781 80.261719 C 62.21875 80.246094 62.359375 80.683594 62.449219 79.863281 C 63.605469 80.375 64.910156 81.007812 65.4375 80.0625 C 67.347656 83.980469 68.066406 89.132812 70.023438 93.660156 C 71.222656 96.433594 72.894531 98.828125 73.214844 101.65625 C 73.792969 106.78125 73.992188 109.464844 73.414062 114.253906 C 74.28125 119.144531 73.625 125.277344 73.449219 130.625 C 73.421875 131.449219 64.671875 132.257812 64.675781 133.039062 L 90.675781 133.039062 C 90.675781 133.039062 88.539062 131.933594 87.496094 131.777344 C 86.453125 131.621094 80.148438 130.46875 80.148438 130.46875 Z M 114.683594 73.464844 C 114.34375 73.660156 114.171875 74.019531 114.285156 74.664062 C 113.214844 74.6875 114.027344 72.792969 114.683594 73.464844 Z M 110.695312 65.46875 C 110.886719 65.472656 110.847656 65.714844 110.894531 65.867188 C 111.023438 66.070312 111.351562 66.074219 111.292969 66.46875 C 111.0625 66.300781 110.757812 66.203125 110.296875 66.269531 C 110.296875 65.871094 110.839844 66.011719 110.695312 65.46875 Z M 108.898438 75.066406 C 109.15625 74.777344 108.550781 74.621094 108.898438 73.867188 C 109.636719 74.285156 109.648438 73.457031 110.097656 73.066406 C 110.722656 72.96875 110.546875 73.679688 111.292969 73.464844 C 110.679688 74.453125 109.917969 75.285156 108.898438 75.867188 C 109.140625 75.601562 108.976562 75.550781 108.898438 75.265625 C 108.5625 75.191406 108.523438 75.421875 108.5 75.664062 C 108.019531 75.746094 108.066406 75.300781 107.503906 75.464844 C 107.792969 75.15625 108.28125 75.046875 108.898438 75.066406 Z M 110.296875 52.273438 C 109.875 52.785156 108.824219 52.664062 107.902344 52.671875 C 108.511719 51.757812 107.546875 52.535156 107.105469 52.074219 C 108.296875 51.496094 109.550781 52.179688 110.296875 52.273438 Z M 124.652344 17.480469 C 124.992188 17.410156 125.027344 17.640625 125.050781 17.882812 C 125.277344 17.8125 125.554688 17.53125 125.25 17.480469 C 125.304688 17.070312 126.132812 17.433594 126.046875 16.882812 C 126.347656 17.054688 125.992188 17.179688 126.246094 17.683594 C 125.808594 17.910156 125.429688 18.199219 124.652344 18.082031 C 124.652344 17.882812 124.652344 17.683594 124.652344 17.480469 Z M 7.617188 39.476562 C 7.125 39.503906 6.65625 39.507812 6.417969 39.277344 C 6.386719 38.839844 7.128906 39.183594 7.417969 39.078125 C 7.410156 38.882812 7.171875 38.921875 7.019531 38.875 C 7.195312 38.335938 7.828125 38.96875 7.617188 39.476562 Z M 6.621094 36.277344 C 7.070312 35.503906 6.382812 35.351562 6.417969 34.476562 C 7.347656 35.089844 6.800781 35.949219 8.015625 36.277344 C 7.714844 36.882812 7.140625 36.109375 6.621094 36.277344 Z M 10.40625 37.277344 C 10.113281 37.445312 9.980469 37.78125 10.007812 38.277344 C 9.332031 38.351562 8.46875 38.816406 8.613281 37.675781 C 9.480469 38.207031 9.53125 37.140625 9.609375 36.875 C 9.945312 36.523438 10.277344 37.054688 11.003906 36.875 C 11.097656 37.304688 10.71875 37.257812 10.40625 37.277344 Z M 11.203125 37.675781 C 11.425781 36.722656 12.761719 37.664062 12.003906 38.277344 C 11.597656 38.214844 11.472656 37.875 11.203125 37.675781 Z M 12.402344 40.273438 C 12.050781 40.226562 11.945312 39.929688 12.003906 39.476562 C 12.179688 39.320312 12.453125 39.261719 12.800781 39.277344 C 12.949219 39.890625 12.113281 39.519531 12.402344 40.273438 Z M 14.792969 40.875 C 14.234375 40.835938 13.945312 40.527344 13.996094 39.875 C 14.40625 39.753906 15.382812 40.199219 15.191406 39.476562 C 15.753906 39.445312 15.769531 39.964844 15.792969 40.476562 C 15.109375 40.675781 15.191406 40.390625 14.792969 40.875 Z M 16.191406 41.675781 C 16.515625 41.351562 16.011719 40.839844 16.191406 40.074219 C 16.457031 40.074219 16.722656 40.074219 16.988281 40.074219 C 16.582031 40.46875 16.96875 41.65625 16.191406 41.675781 Z M 17.585938 43.472656 C 17.617188 43.242188 17.542969 43.117188 17.386719 43.074219 C 17.566406 42.347656 17.976562 42.953125 18.582031 42.875 C 18.609375 43.4375 18.09375 43.453125 17.585938 43.472656 Z M 18.980469 42.675781 C 19.046875 42.273438 18.941406 42.046875 18.582031 42.074219 C 18.742188 41.449219 20.609375 41.851562 20.578125 42.675781 C 20.089844 42.183594 19.710938 42.824219 18.980469 42.675781 Z M 26.558594 44.273438 C 25.953125 44.144531 25.40625 43.960938 25.359375 43.273438 C 25.691406 43.609375 26.53125 43.433594 27.15625 43.472656 C 27.148438 43.816406 27.304688 43.992188 27.554688 44.074219 C 27.171875 44.65625 26.839844 43.402344 26.558594 44.273438 Z M 23.566406 66.46875 C 23.332031 66.5 23.398438 66.832031 23.367188 67.066406 C 23.152344 67.019531 23.230469 66.671875 22.96875 66.667969 C 23.867188 66.265625 23.085938 66.015625 23.367188 65.46875 C 24.105469 65.871094 23.753906 66.132812 24.164062 66.867188 C 24.464844 66.175781 24.898438 66.828125 25.359375 67.066406 C 24.792969 67.625 23.722656 66.988281 23.566406 66.46875 Z M 36.128906 57.671875 C 36.5625 57.847656 36.738281 58.785156 35.929688 58.671875 C 35.558594 58.316406 36.015625 58.085938 36.128906 57.671875 Z M 36.726562 62.46875 C 35.910156 62.421875 36.035156 61.429688 35.730469 60.871094 C 36.621094 60.84375 36.671875 61.660156 36.726562 62.46875 Z M 33.335938 66.867188 C 33.25 66.449219 33.472656 66.339844 33.535156 66.070312 C 33.859375 66.011719 33.878906 66.257812 34.132812 66.269531 C 34.195312 66.792969 33.859375 66.925781 33.335938 66.867188 Z M 33.734375 67.667969 C 33.96875 66.570312 35.277344 66.550781 36.328125 66.269531 C 36.320312 66.074219 36.082031 66.113281 35.929688 66.070312 C 35.472656 65.605469 36.550781 66.136719 36.925781 66.070312 C 36.746094 66.421875 36.191406 66.398438 36.128906 66.867188 C 36.753906 66.964844 36.578125 66.253906 37.324219 66.46875 C 37.316406 66.664062 37.078125 66.621094 36.925781 66.667969 C 36.945312 67.179688 37.289062 67.367188 37.523438 67.667969 C 36.570312 68.238281 34.980469 67.839844 33.734375 67.667969 Z M 36.527344 64.269531 C 36.445312 63.785156 36.890625 63.832031 36.726562 63.269531 C 37.082031 63.242188 37.144531 63.511719 37.523438 63.46875 C 37.1875 64.539062 38.121094 64.335938 38.121094 65.066406 C 37.535156 64.855469 37.320312 64.269531 36.527344 64.269531 Z M 42.507812 66.070312 C 42.511719 65.875 42.75 65.914062 42.90625 65.867188 C 42.414062 65.496094 41.488281 65.558594 41.113281 65.066406 C 41.367188 64.726562 41.523438 64.28125 42.109375 64.269531 C 42.234375 65.074219 43.363281 64.878906 43.105469 66.070312 C 43.996094 66.242188 42.648438 66.265625 42.507812 66.070312 Z M 96.738281 69.066406 C 96.652344 69.484375 96.875 69.597656 96.9375 69.867188 C 97.171875 69.835938 97.105469 69.5 97.136719 69.265625 C 98.074219 69.59375 97.40625 70.050781 97.136719 70.667969 C 95.566406 70.441406 94.738281 69.472656 93.347656 69.066406 C 94.199219 68.554688 95.796875 69.007812 96.738281 69.066406 Z M 95.34375 64.070312 C 95.34375 63.800781 95.34375 63.535156 95.34375 63.269531 C 95.542969 63.269531 95.742188 63.269531 95.941406 63.269531 C 95.855469 63.652344 95.867188 64.128906 95.34375 64.070312 Z M 95.34375 62.667969 C 95.320312 63.179688 95.304688 63.699219 94.746094 63.667969 C 94.765625 63.160156 94.78125 62.640625 95.34375 62.667969 Z M 95.34375 67.066406 C 95.34375 67.199219 95.34375 67.335938 95.34375 67.46875 C 95.171875 67.429688 95.152344 67.546875 95.144531 67.667969 C 94.898438 67.578125 94.734375 67.410156 94.746094 67.066406 C 94.574219 67.03125 94.554688 67.144531 94.546875 67.269531 C 93.96875 66.683594 94.878906 67.050781 95.34375 67.066406 Z M 91.554688 67.867188 C 90.898438 67.511719 91.789062 67.058594 91.953125 66.867188 C 92.441406 66.910156 92.683594 67.679688 92.949219 66.867188 C 93.40625 67.664062 93.363281 66.789062 94.148438 66.867188 C 93.832031 67.167969 94 67.6875 94.347656 67.867188 C 93.941406 68.257812 91.996094 67.4375 91.554688 67.867188 Z M 92.152344 64.667969 C 92.714844 64.832031 92.667969 64.386719 93.148438 64.46875 C 93.5 65 94.574219 65.59375 94.148438 66.269531 C 93.390625 66.292969 93.851562 65.097656 93.148438 65.070312 C 92.796875 65.070312 93.46875 66.011719 92.949219 66.269531 C 92.546875 65.429688 91.992188 66.382812 91.554688 66.667969 C 90.996094 66.429688 90.285156 66.34375 90.359375 65.46875 C 90.9375 66 92.359375 65.402344 92.152344 64.667969 Z M 90.558594 65.070312 C 90.476562 65.453125 89.785156 65.226562 89.960938 65.867188 C 89.78125 65.714844 89.507812 65.652344 89.160156 65.667969 C 89.363281 65.203125 89.847656 65.023438 90.558594 65.070312 Z M 90.558594 66.867188 C 89.613281 69.433594 85.398438 67.851562 83.777344 67.066406 C 83.925781 66.28125 84.195312 65.617188 84.375 64.867188 C 85.125 64.71875 84.8125 65.632812 85.375 65.667969 C 85.269531 65.507812 85.164062 65.34375 85.175781 65.066406 C 87.398438 65.234375 88.863281 66.167969 90.558594 66.867188 Z M 84.976562 63.269531 C 85.292969 63.550781 85.484375 63.957031 85.574219 64.46875 C 85.214844 64.492188 85.152344 64.222656 84.777344 64.269531 C 84.695312 63.785156 85.140625 63.832031 84.976562 63.269531 Z M 89.558594 44.472656 C 88.914062 44.324219 88.296875 44.140625 88.363281 43.273438 C 88.925781 43.480469 89.988281 43.898438 89.558594 44.472656 Z M 89.558594 34.078125 C 89.558594 33.808594 89.558594 33.542969 89.558594 33.277344 C 90 33.503906 90.660156 33.507812 90.757812 34.078125 C 90.066406 33.914062 89.914062 34.449219 89.558594 34.078125 Z M 97.535156 47.074219 C 98.785156 47.753906 100.5625 47.90625 101.324219 49.074219 C 100.285156 48.183594 98.011719 48.527344 97.535156 47.074219 Z M 100.726562 47.875 C 100.117188 47.882812 99.949219 47.449219 99.53125 47.273438 C 99.726562 46.539062 100.742188 48.195312 100.726562 47.074219 C 101.019531 47.175781 101.226562 47.371094 101.523438 47.472656 C 101.460938 48.140625 100.578125 46.871094 100.726562 47.875 Z M 100.726562 45.273438 C 100.988281 45.609375 101.253906 45.945312 101.125 46.671875 C 100.386719 46.546875 99.957031 46.109375 99.332031 45.875 C 99.328125 45.140625 100.027344 45.105469 100.328125 44.675781 C 100.386719 44.269531 99.75 44.714844 99.730469 44.875 C 99.273438 44.285156 101.070312 43.375 101.722656 43.875 C 101.777344 44.730469 101.144531 44.894531 100.726562 45.273438 Z M 102.320312 43.472656 C 102.425781 42.847656 103.0625 42.753906 103.714844 42.675781 C 103.199219 42.890625 103.25 43.671875 102.320312 43.472656 Z M 122.257812 18.082031 C 121.878906 18.488281 121.414062 18.785156 120.863281 18.28125 C 120.949219 17.835938 121.84375 18.199219 122.257812 18.082031 Z M 120.664062 18.082031 C 120.738281 18.6875 120.015625 18.496094 119.667969 18.683594 C 119.636719 18.121094 120.15625 18.105469 120.664062 18.082031 Z M 115.679688 31.078125 C 116.472656 30.34375 117.664062 30.894531 117.671875 29.679688 C 118.957031 29.671875 120.84375 27.34375 121.261719 29.476562 C 118 30.609375 114.738281 31.734375 111.890625 33.277344 C 112.011719 32.757812 111.8125 32.558594 111.292969 32.675781 C 111.144531 31.59375 112.367188 31.890625 112.089844 30.679688 C 113.5625 30.980469 115.144531 29.972656 115.679688 31.078125 Z M 111.492188 24.878906 C 111.695312 25.503906 111.503906 26.09375 112.089844 26.679688 C 111.671875 26.5 111.203125 26.367188 110.894531 26.078125 C 110.675781 25.570312 111.828125 25.304688 110.894531 25.28125 C 110.941406 24.992188 111.488281 25.210938 111.492188 24.878906 Z M 109.097656 25.078125 C 109.71875 25.191406 110.398438 25.242188 110.894531 25.480469 C 110.417969 26.113281 110.539062 26.296875 111.292969 26.480469 C 110.992188 27.109375 110.101562 27.152344 109.699219 27.679688 C 109.8125 27.261719 110.191406 27.109375 110.097656 26.480469 C 109.46875 26.382812 109.945312 27.394531 109.496094 27.480469 C 108.921875 27.742188 109.59375 25.316406 109.097656 25.878906 C 108.605469 25.847656 109.042969 25.203125 109.097656 25.078125 Z M 108.699219 26.28125 C 109.160156 26.4375 108.894531 27.515625 108.300781 27.277344 C 108.269531 26.78125 108.617188 26.660156 108.699219 26.28125 Z M 110.496094 28.679688 C 109.378906 29.363281 111.863281 30.125 110.894531 31.277344 C 109.492188 30.550781 108.066406 29.851562 108.101562 27.679688 C 109.125 27.789062 109.441406 28.601562 110.496094 28.679688 Z M 103.714844 10.484375 C 104.242188 10.824219 104.613281 11.316406 104.714844 12.082031 C 104.070312 11.796875 103.429688 11.503906 103.316406 10.683594 C 103.550781 10.714844 103.671875 10.640625 103.714844 10.484375 Z M 104.515625 24.878906 C 105.085938 25.09375 106.761719 24.933594 107.503906 24.679688 C 108.386719 26.042969 106.265625 27.789062 105.113281 26.679688 C 105.171875 26.273438 105.511719 26.148438 105.710938 25.878906 C 105.433594 25.300781 104.726562 25.9375 104.515625 26.078125 C 104.644531 26.28125 104.972656 26.285156 104.914062 26.679688 C 104.148438 26.445312 103.625 25.972656 102.917969 25.679688 C 103.089844 25.050781 104.90625 26.074219 104.515625 24.878906 Z M 102.519531 26.078125 C 102.082031 26.496094 102.695312 26.726562 102.320312 27.078125 C 101.933594 27.007812 101.234375 26.125 101.324219 27.28125 C 101.15625 27.316406 101.136719 27.203125 101.125 27.078125 C 100.992188 27.078125 100.859375 27.078125 100.726562 27.078125 C 101.058594 26.476562 101.410156 25.898438 102.519531 26.078125 Z M 100.128906 28.679688 C 99.355469 28.785156 99.304688 28.167969 98.730469 28.078125 C 99.0625 27.632812 100.023438 28.238281 100.128906 28.679688 Z M 95.542969 31.078125 C 96.195312 31.011719 96.300781 31.367188 96.339844 30.078125 C 97.3125 30.121094 97.375 29.25 97.933594 28.878906 C 98.222656 28.925781 98.003906 29.476562 98.332031 29.476562 C 98.601562 29.347656 98.703125 29.050781 98.730469 28.679688 C 99.28125 28.792969 99.851562 28.890625 99.730469 29.679688 C 100.398438 29 101.117188 29.445312 101.324219 30.277344 C 102.199219 29.960938 102.667969 30.195312 103.714844 29.679688 C 103.839844 30.320312 103 29.953125 103.515625 30.476562 C 104.316406 30.011719 105.472656 29.90625 105.710938 28.878906 C 105.871094 29.015625 106.257812 29.191406 106.308594 28.878906 C 107.761719 30.214844 107.859375 31.699219 109.898438 32.476562 C 108.957031 37.132812 105.75 39.515625 101.523438 40.875 C 101.78125 40.164062 101.972656 40.148438 101.722656 39.277344 C 101.402344 39.859375 100.695312 38.957031 100.527344 39.476562 C 100.042969 39.09375 100.8125 38.433594 100.328125 37.875 C 100.054688 37.9375 100.160156 38.375 100.128906 38.675781 C 99.773438 38.175781 99.875 38.460938 99.132812 38.476562 C 98.964844 38.242188 98.867188 37.941406 98.929688 37.476562 C 98.367188 37.851562 98.644531 38.136719 97.734375 37.875 C 97.734375 37.609375 97.734375 37.34375 97.734375 37.078125 C 96.695312 37.394531 96.859375 37.839844 96.339844 38.277344 C 96.757812 36.957031 96.203125 37.703125 95.542969 37.078125 C 96.445312 36.449219 96.535156 35.007812 97.335938 34.277344 C 96.882812 33.066406 96.132812 32.152344 95.542969 31.078125 Z M 97.335938 45.875 C 97.140625 45.667969 96.941406 45.46875 96.738281 45.273438 C 96.566406 45.238281 96.550781 45.351562 96.539062 45.472656 C 96.054688 44.710938 98.167969 45.683594 98.332031 44.675781 C 99.132812 44.894531 98.464844 45.464844 98.132812 45.671875 C 98.15625 46.164062 98.792969 45.714844 98.730469 45.472656 C 99.019531 45.519531 98.800781 46.070312 99.132812 46.074219 C 98.945312 46.433594 97.253906 46.441406 96.9375 47.273438 C 95.945312 46.625 94.984375 47.128906 94.546875 46.074219 C 95.699219 46.230469 96.25 45.785156 97.335938 45.875 Z M 93.347656 25.480469 C 93.8125 25.414062 94.113281 25.511719 94.347656 25.679688 C 94.320312 26.1875 94.054688 26.457031 93.546875 26.480469 C 93.628906 25.996094 93.183594 26.046875 93.347656 25.480469 Z M 89.960938 31.878906 C 90.144531 32.089844 90.695312 31.941406 90.558594 32.476562 C 91.53125 31.824219 92.050781 31.953125 93.546875 31.878906 C 93.441406 32.039062 93.339844 32.203125 93.347656 32.476562 C 93.957031 32.554688 93.6875 31.75 94.144531 31.679688 C 97.4375 34.265625 92.464844 38.386719 90.957031 36.675781 C 90.480469 36.753906 91.066406 35.765625 90.359375 36.078125 C 90.378906 35.578125 90.730469 35.457031 90.359375 35.078125 C 89.980469 35.226562 90.21875 35.671875 89.761719 35.277344 C 89.90625 34.6875 90.382812 34.433594 91.15625 34.476562 C 91.804688 36.082031 93.914062 34.984375 93.546875 33.675781 C 92.675781 34.070312 92.421875 33.996094 91.753906 33.277344 C 91.285156 33.339844 91.636719 34.226562 90.957031 34.078125 C 91.472656 32.328125 89.878906 33.621094 90.359375 32.476562 C 89.609375 32.921875 89.480469 33.316406 88.761719 32.675781 C 88.175781 32.851562 89.226562 32.976562 88.960938 33.476562 C 88.550781 33.355469 88.207031 33.167969 88.363281 32.476562 C 89.3125 32.796875 89.683594 32.976562 89.960938 31.878906 Z M 86.371094 22.082031 C 86.898438 22.511719 88.476562 21.683594 87.964844 22.878906 C 88.304688 22.953125 88.339844 22.722656 88.363281 22.480469 C 89.15625 22.886719 89.257812 23.984375 89.558594 24.878906 C 88.570312 24.511719 88.816406 24.964844 88.164062 25.28125 C 88.285156 24.761719 88.085938 24.558594 87.566406 24.679688 C 87.566406 24.28125 87.566406 23.878906 87.566406 23.480469 C 86.964844 23.753906 86.855469 23.386719 85.972656 23.480469 C 85.742188 22.652344 86.390625 22.703125 86.371094 22.082031 Z M 86.171875 46.875 C 86.3125 47.949219 85.945312 48.511719 85.773438 49.273438 C 84.417969 49.367188 83.335938 49.183594 82.382812 48.871094 C 82.226562 48.050781 83.339844 48.496094 83.179688 47.671875 C 83.121094 47.199219 82.640625 47.894531 82.582031 48.074219 C 82.609375 46.964844 84.730469 46.710938 86.171875 46.875 Z M 80.390625 44.675781 C 79.789062 44.871094 79.445312 45.328125 78.59375 45.273438 C 78.488281 44.648438 77.902344 44.5 77.796875 43.875 C 78.171875 44.035156 78.527344 44.207031 78.992188 44.273438 C 78.992188 44.472656 78.992188 44.675781 78.992188 44.875 C 79.292969 44.234375 79.710938 44.644531 80.390625 44.675781 Z M 81.386719 50.671875 C 81.003906 50.296875 81.027344 50.792969 80.390625 50.671875 C 80.058594 49.414062 79.515625 50.808594 78.394531 50.472656 C 78.617188 49.28125 81.171875 49.964844 81.386719 50.671875 Z M 79.390625 48.074219 C 79.542969 47.457031 78.707031 47.828125 78.992188 47.074219 C 80.464844 48.390625 81.0625 46.769531 81.984375 45.671875 C 81.523438 45.515625 81.363281 45.464844 80.789062 45.074219 C 81.816406 44.746094 82.535156 45.203125 83.578125 45.472656 C 83.664062 45.707031 83.101562 45.882812 83.191406 46 C 83.253906 46.015625 83.316406 46.039062 83.378906 46.074219 C 83.269531 46.050781 83.214844 46.027344 83.191406 46 C 82.128906 45.722656 81.449219 48.082031 79.390625 48.074219 Z M 83.976562 43.273438 C 84.273438 44.375 85.320312 44.726562 85.574219 45.875 C 85.09375 45.957031 85.140625 45.507812 84.578125 45.671875 C 84.4375 45.058594 84.4375 45.289062 84.578125 44.675781 C 83.914062 44.738281 83.347656 44.703125 83.179688 44.273438 C 83.207031 44.816406 82.675781 45.179688 82.382812 44.273438 C 82.246094 44.75 81.277344 44.890625 81.386719 44.074219 C 81.152344 44.105469 81.21875 44.4375 81.1875 44.675781 C 80.707031 44.753906 80.753906 44.308594 80.191406 44.472656 C 80.226562 44.3125 80.390625 44.273438 80.390625 44.074219 C 79.0625 44.203125 78.324219 43.746094 77.398438 43.472656 C 79.238281 43.511719 81.710938 44.015625 83.976562 43.273438 Z M 76.003906 39.476562 C 76.355469 39.933594 76.421875 40.535156 76.203125 41.074219 C 76.871094 41.082031 76.609375 40.148438 77 39.875 C 77.902344 40.191406 78.972656 40.738281 80.191406 40.074219 C 80.539062 40.257812 80.882812 40.449219 80.789062 41.074219 C 81.59375 41.351562 81.417969 40.640625 81.984375 40.675781 C 81.761719 41.566406 82.597656 41.394531 82.980469 41.675781 C 82.980469 42.007812 82.980469 42.339844 82.980469 42.675781 C 80.726562 43.976562 77.652344 42.753906 75.402344 42.273438 C 75.515625 41.988281 75.714844 41.789062 76.003906 41.675781 C 75.871094 41.40625 75.578125 41.300781 75.203125 41.273438 C 75.3125 40.515625 75.789062 40.125 76.003906 39.476562 Z M 74.605469 39.875 C 75.300781 40.179688 74.898438 41.582031 75.605469 41.875 C 75.046875 42.128906 74.617188 42.367188 74.007812 42.074219 C 73.851562 40.917969 75.214844 40.902344 74.605469 39.875 Z M 74.605469 43.074219 C 74.40625 43.539062 73.921875 43.71875 73.210938 43.675781 C 73.945312 44.332031 74.839844 43.449219 75.203125 43.074219 C 75.726562 43.484375 76.441406 43.703125 77.398438 43.675781 C 77.253906 44.574219 77.460938 44.671875 77.199219 45.273438 C 76.773438 44.769531 76.09375 44.515625 75.40625 44.273438 C 75.902344 44.628906 75.621094 44.527344 75.605469 45.273438 C 76.289062 45.394531 76.289062 45.558594 75.605469 46.074219 C 75.902344 46.503906 76.167969 45.855469 76.402344 46.472656 C 75.964844 47.464844 74.753906 46.039062 75.402344 45.273438 C 74.976562 45.179688 75.023438 45.558594 75.003906 45.875 C 74.816406 45.527344 74.269531 45.546875 74.40625 44.875 C 74.949219 45.105469 75.1875 45.523438 75.203125 44.472656 C 74.546875 44.484375 74.210938 44.8125 73.410156 44.675781 C 73.199219 44.019531 72.527344 43.824219 72.015625 43.472656 C 72.488281 43.285156 72.605469 42.734375 73.410156 42.875 C 73.386719 43.25 72.75 43.015625 72.8125 43.472656 C 73.191406 43.390625 73.671875 43.402344 73.609375 42.875 C 73.839844 43.042969 74.144531 43.140625 74.605469 43.074219 Z M 72.015625 50.871094 C 71.21875 50.871094 69.792969 52.152344 70.421875 52.273438 C 70.246094 52.851562 70.121094 52.496094 69.621094 52.472656 C 69.59375 51.976562 69.726562 51.640625 70.019531 51.472656 C 69.371094 51.519531 69.867188 50.667969 69.621094 50.074219 C 69.96875 50.253906 70.390625 50.519531 70.019531 50.871094 C 70.441406 50.519531 70.609375 50.421875 71.21875 50.671875 C 71.238281 49.71875 69.476562 50.550781 69.621094 49.472656 C 69.335938 49.585938 69.136719 49.785156 69.023438 50.074219 C 69.152344 50.277344 69.484375 50.28125 69.421875 50.671875 C 68.972656 50.050781 67.976562 49.820312 67.828125 50.871094 C 67.007812 50.546875 66.949219 48.902344 65.636719 49.671875 C 65.425781 48.269531 64.9375 44.703125 66.832031 44.273438 C 67.578125 44.574219 70.25 45.199219 70.019531 44.074219 C 71.253906 44.503906 71.566406 45.855469 72.8125 46.273438 C 72.542969 47.03125 72.890625 47.246094 72.414062 47.875 C 72.570312 48.316406 73.113281 48.375 73.410156 48.671875 C 73.105469 49.160156 72.523438 48.246094 72.015625 48.273438 C 72.015625 48.074219 72.015625 47.875 72.015625 47.671875 C 71.867188 47.488281 71.652344 47.371094 71.417969 47.273438 C 70.941406 47.332031 71.636719 47.816406 71.816406 47.875 C 71.410156 48.222656 71.246094 47.417969 70.421875 47.875 C 71.679688 48.410156 72.171875 49.714844 73.011719 50.671875 C 72.449219 51.414062 72.234375 50.136719 71.816406 50.074219 C 71.085938 50.386719 72.28125 50.371094 72.015625 50.871094 Z M 67.628906 58.46875 C 66.488281 57.945312 65.820312 56.953125 65.4375 55.671875 C 66.382812 55.589844 66.050781 56.789062 66.433594 57.269531 C 66.796875 56.585938 66.441406 56.171875 66.234375 55.472656 C 66.574219 55.398438 66.609375 55.625 66.632812 55.871094 C 66.835938 55.742188 66.839844 55.410156 67.230469 55.472656 C 66.757812 56.359375 67.792969 57.246094 67.628906 58.46875 Z M 67.828125 43.675781 C 67.925781 43.039062 70.03125 42.972656 69.621094 44.074219 C 68.871094 44.355469 68.398438 44.207031 67.828125 43.675781 Z M 72.8125 49.671875 C 73.277344 50.566406 74.019531 49.632812 74.808594 49.671875 C 75.078125 49.65625 72.683594 51.066406 72.8125 49.671875 Z M 73.609375 47.273438 C 74.011719 47.535156 74.285156 47.929688 74.40625 48.472656 C 74.03125 48.183594 73.523438 48.027344 73.609375 47.273438 Z M 72.613281 21.28125 C 73.136719 21.558594 73.578125 21.914062 73.808594 22.480469 C 73.488281 22.421875 73.464844 22.667969 73.210938 22.679688 C 72.28125 22.460938 72.152344 21.996094 72.613281 21.28125 Z M 71.617188 37.476562 C 71.8125 36.863281 72.148438 37.707031 72.414062 37.675781 C 72.15625 38.300781 72 37.777344 71.417969 38.074219 C 71.0625 37.539062 72.296875 37.6875 71.617188 37.476562 Z M 70.621094 31.476562 C 69.902344 31.117188 70.898438 30.851562 71.019531 30.679688 C 71.324219 31.039062 71.738281 31.289062 71.617188 32.078125 C 71.109375 32 71.082031 30.421875 70.621094 31.476562 Z M 70.421875 19.882812 C 70.773438 20.058594 70.925781 20.4375 71.617188 20.28125 C 71.636719 20.792969 71.980469 20.980469 72.214844 21.28125 C 71.695312 21.480469 71.492188 20.179688 70.621094 20.480469 C 70.59375 20.839844 70.863281 20.902344 70.820312 21.28125 C 70.25 21.253906 70.453125 20.445312 70.421875 19.882812 Z M 70.820312 30.078125 C 70.535156 30.0625 70.253906 30.046875 70.21875 30.277344 C 70.078125 29.484375 69.980469 30.222656 69.820312 29.277344 C 70.296875 29.402344 70.75 29.546875 70.820312 30.078125 Z M 68.824219 29.277344 C 69.058594 29.578125 69.402344 29.765625 69.421875 30.277344 C 68.601562 29.648438 69.183594 30.421875 67.828125 30.277344 C 67.535156 29.316406 68.972656 30.09375 68.824219 29.277344 Z M 66.632812 18.480469 C 67.828125 19.015625 67.195312 18 68.625 18.480469 C 69.171875 19.792969 69.507812 21.957031 69.023438 23.679688 C 68.566406 23.273438 68.558594 23.394531 68.027344 22.878906 C 68.253906 22.640625 68.597656 22.519531 68.425781 21.878906 C 68.304688 21.644531 67.558594 22.128906 67.828125 21.082031 C 67.433594 21.082031 67.574219 21.625 67.03125 21.480469 C 67.324219 21.042969 67.21875 19.664062 66.433594 19.679688 C 66.289062 19.070312 66.777344 19.09375 66.632812 18.480469 Z M 62.84375 30.878906 C 63.421875 30.375 64.664062 30.910156 64.835938 31.476562 C 65.527344 31.207031 66.589844 31.519531 67.429688 31.679688 C 66.988281 33.746094 69.074219 35.324219 69.621094 35.078125 C 69.796875 35.324219 70.257812 36.28125 69.824219 36.476562 C 70.085938 36.53125 70.714844 36.570312 71.21875 36.875 C 70.917969 37.109375 70.984375 37.707031 70.421875 37.675781 C 70.503906 37.257812 70.285156 37.144531 70.222656 36.875 C 69.652344 37.144531 70.375 37.765625 70.421875 38.074219 C 71.867188 38.226562 73.402344 38.28125 73.808594 39.476562 C 73.179688 40.105469 71.914062 39.59375 72.414062 40.476562 C 71.695312 40.265625 71.308594 39.714844 70.820312 39.273438 C 70.597656 39.457031 70.757812 39.648438 70.621094 40.273438 C 69.875 39.699219 69.152344 39.410156 68.625 39.074219 C 68.390625 39.109375 68.457031 39.441406 68.425781 39.675781 C 67.960938 39.625 68.3125 38.796875 68.425781 38.675781 C 67.957031 38.664062 67.539062 40.320312 67.429688 38.875 C 66.964844 39.175781 67.125 39.363281 67.230469 39.875 C 66.945312 40.046875 66.945312 38.949219 66.332031 39.570312 C 66.832031 38.933594 65.449219 38.617188 66.035156 38.074219 C 66.847656 39.113281 66.328125 36.957031 67.230469 37.277344 C 67.457031 35.648438 66.035156 35.675781 66.035156 34.277344 C 65.226562 34.75 65.449219 34.492188 65.835938 33.878906 C 64.628906 33.609375 63.644531 35.171875 63.242188 33.476562 C 63.007812 33.507812 63.074219 33.839844 63.042969 34.078125 C 61.898438 33.015625 63.582031 31.414062 62.84375 30.878906 Z M 62.644531 38.675781 C 62.457031 38.460938 61.910156 38.613281 62.046875 38.074219 C 61.421875 38.214844 61.785156 38.609375 61.847656 39.074219 C 61.140625 39.140625 61.355469 39.625 60.652344 39.277344 C 60.652344 39.675781 60.652344 40.074219 60.652344 40.476562 C 61.191406 40.617188 60.507812 39.53125 61.050781 39.675781 C 61.953125 39.667969 61.113281 40.601562 61.050781 40.875 C 60.273438 40.597656 59.894531 40.230469 60.253906 39.277344 C 60.625 39.117188 60.984375 38.941406 61.449219 38.875 C 60.691406 38.0625 60.378906 39.390625 59.652344 39.277344 C 59.28125 38.894531 59.773438 38.914062 59.652344 38.277344 C 61.074219 38.375 62.21875 36.960938 62.644531 38.675781 Z M 62.84375 41.476562 C 61.898438 41.652344 61.453125 40.613281 61.847656 40.074219 C 62.039062 40.082031 62 40.320312 62.046875 40.476562 C 62.234375 40.328125 62.347656 40.113281 62.445312 39.875 C 62.761719 40.226562 62.710938 40.941406 62.84375 41.476562 Z M 59.054688 29.878906 C 59.386719 29.878906 59.722656 29.878906 60.054688 29.878906 C 60.359375 30.492188 58.75 30.492188 59.054688 29.878906 Z M 61.847656 31.277344 C 61.710938 32.007812 61.570312 32.730469 61.648438 33.675781 C 61.113281 34.035156 61.261719 32.796875 61.050781 33.476562 C 60.550781 32.980469 60.46875 32.664062 60.652344 31.878906 C 59.929688 31.6875 60.449219 32.742188 60.054688 32.878906 C 59.484375 32.25 58.34375 32.195312 58.058594 31.277344 C 59.320312 30.605469 60.976562 31.078125 61.847656 31.277344 Z M 58.257812 44.273438 C 59.140625 44.390625 59.707031 44.820312 60.253906 45.273438 C 60.226562 44.765625 59.960938 44.5 59.453125 44.472656 C 60.207031 43.859375 60.828125 44.359375 61.050781 43.273438 C 62.101562 43.328125 63.054688 42.445312 64.039062 43.074219 C 64.070312 44.683594 64.410156 47.140625 63.441406 49.074219 C 63.03125 49.015625 63.042969 48.539062 62.84375 48.273438 C 62.492188 48.320312 62.390625 48.617188 62.445312 49.074219 C 62.066406 48.988281 62.085938 48.5 61.449219 48.671875 C 61.519531 48.410156 61.800781 48.359375 61.847656 48.074219 C 61.84375 47.675781 61.304688 47.816406 61.449219 47.273438 C 60.433594 47.300781 60.167969 48.414062 59.453125 47.671875 C 58.929688 48.097656 58.855469 49.285156 58.257812 49.074219 C 55.308594 48.417969 55.507812 44.953125 58.257812 44.273438 Z M 60.453125 54.269531 C 59.5625 54.363281 59.746094 53.378906 59.253906 53.070312 C 59.992188 52.96875 60.175781 53.402344 60.253906 52.273438 C 61.042969 52.675781 61.789062 53.128906 62.046875 54.070312 C 62.042969 54.378906 61.105469 53.972656 60.851562 53.871094 C 60.703125 53.324219 61.246094 53.46875 61.25 53.070312 C 60.609375 53.097656 60.371094 53.523438 60.453125 54.269531 Z M 59.453125 56.871094 C 58.546875 57.0625 58.199219 56.03125 58.65625 55.472656 C 59.339844 55.96875 59.058594 56.238281 59.453125 56.871094 Z M 60.453125 48.273438 C 60.585938 48.273438 60.71875 48.273438 60.851562 48.273438 C 60.8125 48.441406 60.929688 48.460938 61.050781 48.472656 C 60.679688 48.859375 60.683594 48.628906 60.851562 49.273438 C 60.25 49.070312 60.496094 49.71875 60.453125 50.074219 C 60.25 49.941406 60.246094 49.613281 59.855469 49.671875 C 60.089844 49.242188 60.703125 49.195312 60.453125 48.273438 Z M 55.667969 43.875 C 55.667969 43.542969 55.667969 43.207031 55.667969 42.875 C 56.230469 42.710938 56.183594 43.15625 56.664062 43.074219 C 56.40625 43.417969 56.25 43.859375 55.667969 43.875 Z M 56.664062 30.679688 C 57.011719 30.269531 56.515625 30.285156 56.863281 29.878906 C 57.183594 29.820312 57.207031 30.066406 57.460938 30.078125 C 57.289062 30.371094 57.300781 30.851562 56.664062 30.679688 Z M 55.667969 9.683594 C 56.65625 9.480469 56.300781 10.316406 57.0625 9.882812 C 57.183594 10.617188 55.347656 10.417969 55.667969 9.683594 Z M 54.667969 9.683594 C 54.839844 10.3125 55.667969 10.285156 55.46875 11.285156 C 54.832031 11.148438 54.261719 10.238281 54.667969 9.683594 Z M 54.070312 51.074219 C 54.308594 50.644531 55.152344 50.824219 54.867188 49.871094 C 55.800781 50.625 54.285156 51.445312 53.871094 52.070312 C 53.539062 51.445312 54.613281 51.253906 54.070312 51.074219 Z M 53.472656 9.285156 C 54.140625 9.148438 54.203125 9.621094 54.269531 10.085938 C 53.746094 9.273438 53.40625 10.683594 53.472656 9.285156 Z M 50.882812 41.273438 C 51.074219 41.28125 51.035156 41.519531 51.082031 41.675781 C 51.265625 41.527344 51.382812 41.3125 51.480469 41.074219 C 51.910156 41.246094 52.183594 41.566406 52.078125 42.273438 C 51.738281 42.203125 51.703125 42.429688 51.679688 42.675781 C 51.304688 42.257812 51.445312 41.640625 50.683594 42.074219 C 50.65625 41.714844 50.925781 41.652344 50.882812 41.273438 Z M 51.878906 45.074219 C 51.402344 45.792969 51.289062 44.484375 50.484375 44.875 C 50.792969 44.324219 51.679688 44.855469 51.878906 45.074219 Z M 50.480469 40.675781 C 50.480469 41.007812 50.480469 41.34375 50.480469 41.675781 C 49.980469 41.511719 49.414062 41.414062 49.484375 40.675781 C 49.816406 40.675781 50.148438 40.675781 50.480469 40.675781 Z M 47.890625 12.484375 C 48.160156 12.738281 48.289062 13.089844 48.488281 12.484375 C 48.59375 13.683594 49.722656 12.675781 49.683594 14.082031 C 49.125 14.121094 49.109375 13.21875 49.085938 14.28125 C 48.820312 14.28125 48.554688 14.28125 48.289062 14.28125 C 48.410156 13.761719 48.210938 13.5625 47.691406 13.683594 C 47.664062 13.191406 47.660156 12.71875 47.890625 12.484375 Z M 49.085938 43.472656 C 48.671875 43.875 47.644531 43.195312 47.890625 42.273438 C 48.378906 42.585938 48.535156 43.226562 49.085938 43.472656 Z M 46.496094 41.476562 C 46.8125 42.023438 47.179688 42.519531 47.09375 43.472656 C 46.578125 43.164062 45.933594 42.230469 46.496094 41.476562 Z M 43.902344 41.675781 C 44.226562 41.617188 44.246094 41.863281 44.5 41.875 C 44.082031 43.140625 44.6875 43.40625 45.5 43.875 C 45.007812 44.414062 44.523438 43.265625 43.703125 43.472656 C 43.546875 42.652344 44.007812 42.449219 43.902344 41.675781 Z M 50.285156 46.273438 C 50.203125 46.792969 49.6875 46.875 49.683594 47.472656 C 49.734375 47.691406 50.082031 47.609375 50.082031 47.875 C 50.902344 47.710938 49.980469 47.050781 50.480469 46.671875 C 51.84375 47.835938 53.480469 47.511719 54.46875 49.074219 C 54.355469 49.890625 53.59375 50.0625 53.472656 50.871094 C 53.023438 50.761719 53.714844 50.5625 53.273438 50.273438 C 52.648438 50.550781 53.546875 51.261719 53.074219 51.472656 C 53.160156 51.769531 53.328125 51.394531 53.671875 51.472656 C 53.511719 52.164062 54.042969 52.316406 53.671875 52.671875 C 50.488281 50.070312 45.445312 49.324219 43.503906 45.472656 C 45.160156 45.105469 47.976562 46.074219 50.285156 46.273438 Z M 29.546875 43.273438 C 29.550781 42.96875 30.09375 42.617188 29.945312 43.273438 C 30.742188 43.402344 30.75 42.746094 31.542969 42.875 C 31.511719 43.96875 32.148438 44.402344 32.339844 45.273438 C 31.019531 44.996094 30.570312 43.851562 29.546875 43.273438 Z M 33.136719 45.875 C 33.558594 45.425781 32.785156 45.050781 32.539062 44.675781 C 32.335938 44.074219 32.984375 44.320312 33.335938 44.273438 C 33.257812 43.484375 31.5625 44.320312 31.941406 43.074219 C 33.027344 43.183594 33.675781 43.734375 34.53125 44.074219 C 34.308594 43.164062 33.128906 43.214844 32.339844 42.875 C 33.449219 42.210938 36.488281 41.800781 37.921875 42.472656 C 38.289062 42.148438 38.753906 41.851562 38.121094 41.476562 C 39.355469 41.277344 41.191406 42.765625 41.3125 44.875 C 42.113281 45.867188 43.121094 46.65625 43.503906 48.074219 C 40.511719 46.875 36.90625 46.292969 33.136719 45.875 Z M 42.109375 53.871094 C 41.605469 51.109375 39.527344 49.925781 38.320312 47.875 C 40.855469 48.332031 43.957031 49.09375 46.695312 50.472656 C 47.613281 50.9375 48.363281 51.730469 49.285156 52.273438 C 52.085938 53.910156 55.507812 54.777344 55.066406 58.46875 C 50.824219 56.609375 45.78125 55.847656 42.109375 53.871094 Z M 49.285156 65.46875 C 49.171875 65.050781 48.792969 64.898438 48.886719 64.269531 C 48.15625 63.988281 47.347656 65.027344 47.492188 63.867188 C 46.90625 63.882812 46.75 64.324219 46.496094 64.667969 C 47.113281 64.710938 46.539062 65.476562 46.296875 66.070312 C 46.527344 66.101562 46.648438 66.023438 46.695312 65.867188 C 47.160156 66.613281 45.828125 66.414062 45.496094 65.867188 C 45.582031 65.488281 46.066406 65.507812 45.898438 64.867188 C 45.222656 65.257812 44.808594 65.910156 43.902344 66.070312 C 43.695312 64.0625 45.371094 64.171875 46.894531 62.871094 C 46.34375 63.660156 48.519531 63.222656 48.6875 62.871094 C 48.425781 64.652344 50.351562 61.152344 50.882812 62.46875 C 50.746094 62.691406 50.21875 62.429688 50.082031 63.070312 C 50.597656 63.507812 51.378906 62.507812 51.480469 61.867188 C 50.769531 61.933594 50.277344 61.28125 51.082031 60.667969 C 50.945312 60.355469 49.277344 60.175781 49.683594 61.070312 C 49.117188 60.613281 49.566406 60.296875 49.285156 59.46875 C 49.699219 59.351562 49.964844 59.085938 50.082031 58.671875 C 50.035156 58.453125 49.6875 58.535156 49.683594 58.269531 C 49.101562 58.554688 49.050781 59.367188 48.6875 59.871094 C 47.953125 59.726562 48.324219 58.492188 48.886719 58.46875 C 47.308594 57.574219 46.121094 57.015625 43.703125 57.46875 C 43.554688 56.855469 44.25 57.085938 44.101562 56.472656 C 48.273438 56.550781 50.4375 58.648438 53.671875 59.667969 C 53.425781 60.316406 54.316406 59.824219 54.070312 60.46875 C 56.539062 59.191406 57.226562 61.472656 57.859375 63.269531 C 57.25 62.882812 56.859375 62.273438 56.265625 61.871094 C 55.40625 62.535156 54.941406 61.421875 54.269531 61.269531 C 52.179688 62.289062 54.25 63.816406 54.46875 65.269531 C 52.824219 65.808594 50.898438 65.847656 49.285156 65.46875 Z M 48.089844 62.269531 C 48.164062 62.875 47.441406 62.683594 47.09375 62.867188 C 47.066406 62.308594 47.582031 62.292969 48.089844 62.269531 Z M 48.089844 60.070312 C 48.269531 60.226562 48.539062 60.285156 48.886719 60.269531 C 48.964844 61.148438 48.648438 61.628906 48.089844 61.867188 C 47.597656 61.550781 48.007812 60.46875 48.089844 60.070312 Z M 55.867188 69.464844 C 55.128906 69.605469 55.367188 68.765625 55.066406 68.46875 C 54.578125 69.03125 54.101562 69.300781 54.46875 70.265625 C 55.195312 70.339844 54.96875 71.367188 55.867188 71.265625 C 55.804688 71.625 54.8125 72.050781 55.464844 72.464844 C 54.300781 72.699219 52.996094 71.347656 52.476562 70.265625 C 53.132812 70.125 53.148438 69.339844 53.871094 69.265625 C 53.273438 68.773438 53.296875 67.851562 53.472656 67.066406 C 53.671875 67.066406 53.871094 67.066406 54.070312 67.066406 C 54.183594 67.542969 55.269531 68.539062 56.066406 68.46875 C 56.03125 68.699219 56.109375 68.824219 56.265625 68.867188 C 56.136719 69.070312 55.804688 69.074219 55.867188 69.464844 Z M 56.664062 68.667969 C 56.015625 68.171875 56.660156 67.617188 55.867188 67.265625 C 56.3125 66.988281 57.074219 67.90625 56.664062 68.667969 Z M 56.664062 66.269531 C 56.730469 65.488281 56.667969 65.128906 56.066406 64.269531 C 57.015625 64.84375 59.90625 66.238281 58.257812 67.46875 C 57.949219 66.597656 57.933594 66.507812 57.460938 65.667969 C 57.195312 65.867188 56.859375 65.996094 56.664062 66.269531 Z M 57.859375 74.464844 C 58.972656 74.847656 59.238281 75.601562 59.253906 76.664062 C 58.359375 76.363281 57.988281 75.535156 57.859375 74.464844 Z M 59.054688 74.867188 C 59.707031 74.6875 61.296875 75.277344 62.046875 75.664062 C 61.4375 76.046875 59.992188 75.296875 59.054688 74.867188 Z M 62.046875 78.265625 C 62.574219 78.332031 62.71875 78.789062 62.84375 79.265625 C 62.316406 79.195312 62.171875 78.738281 62.046875 78.265625 Z M 63.640625 75.664062 C 63.40625 75.699219 63.472656 76.03125 63.441406 76.265625 C 62.902344 76.15625 62.945312 76.105469 62.246094 75.867188 C 62.203125 75.523438 62.585938 75.347656 62.246094 75.265625 C 62.910156 75.445312 62.902344 75.339844 63.441406 74.464844 C 64.121094 74.71875 64.167969 75.601562 64.238281 76.464844 C 63.402344 76.617188 64.511719 75.703125 63.640625 75.664062 Z M 63.042969 65.070312 C 62.152344 65.421875 61.265625 63.226562 60.652344 62.070312 C 62.445312 64.339844 66.03125 65.863281 66.632812 68.667969 C 64.78125 69.023438 63.0625 66.550781 63.042969 65.070312 Z M 60.453125 59.46875 C 60.527344 58.945312 61.089844 58.910156 60.851562 58.070312 C 60.28125 59.011719 60.382812 58.34375 60.054688 57.671875 C 59.496094 57.582031 60.210938 58.761719 59.652344 58.671875 C 58.636719 58.824219 58.972656 57.621094 58.457031 57.269531 C 59.351562 57.292969 59.730469 57.351562 60.253906 56.269531 C 61.1875 56.539062 62.5 57.476562 63.441406 57.070312 C 66.050781 60.054688 69.023438 62.667969 70.222656 67.066406 C 69.589844 67.035156 69.554688 67.597656 68.824219 67.46875 C 66.488281 64.34375 63.160156 62.21875 60.453125 59.46875 Z M 74.605469 92.660156 C 73.503906 91.734375 72.890625 90.265625 72.414062 88.863281 C 71.160156 85.164062 69.839844 81.09375 68.824219 77.066406 C 69.769531 77.15625 69.121094 76.890625 69.222656 76.265625 C 69.46875 76.351562 69.632812 76.519531 69.621094 76.867188 C 70.488281 76.734375 70.269531 75.515625 71.21875 75.464844 C 71.164062 75.054688 70.472656 75.277344 70.421875 74.867188 C 70.050781 74.894531 70.296875 75.542969 70.019531 75.664062 C 70.089844 74.570312 69.339844 75.039062 69.222656 73.867188 C 68.988281 73.898438 69.054688 74.230469 69.023438 74.464844 C 68.847656 74.3125 68.574219 74.25 68.226562 74.265625 C 66.953125 71.519531 69.878906 69.9375 71.21875 69.667969 C 73.734375 73.210938 75.617188 77.386719 75.605469 83.464844 C 75.308594 84.167969 74.75 84.605469 74.40625 85.261719 C 75.175781 87.246094 75.609375 90.570312 74.605469 92.660156 Z M 76.003906 73.066406 C 74.402344 71.082031 74.910156 67.761719 78.394531 68.265625 C 77.433594 69.703125 76.714844 71.378906 76.003906 73.066406 Z M 76.402344 63.867188 C 75.300781 64.59375 76.589844 65.789062 76.601562 66.667969 C 75.371094 66.96875 73.933594 67.0625 73.410156 68.066406 C 72.6875 67.65625 73.226562 67.023438 73.410156 66.46875 C 70.992188 65.226562 71.230469 62.308594 70.421875 60.269531 C 70.621094 59.234375 72.183594 58.488281 71.21875 57.46875 C 71.347656 56.871094 71.644531 57.660156 72.015625 57.46875 C 71.648438 56.839844 70.453125 55.820312 69.820312 56.671875 C 69.851562 57.039062 70.496094 56.792969 70.617188 57.070312 C 69.660156 57.507812 69.144531 58.390625 68.027344 58.671875 C 68.207031 57.355469 67.355469 57.078125 67.429688 55.871094 C 68.726562 55.871094 70.523438 56.46875 72.015625 55.871094 C 71.996094 56.222656 72.40625 56.285156 72.613281 56.871094 C 72.132812 56.953125 72.179688 56.503906 71.617188 56.671875 C 71.785156 56.964844 72.117188 57.101562 72.613281 57.070312 C 72.9375 57.214844 72.9375 56.128906 72.613281 56.269531 C 73.164062 55.601562 73.242188 57.089844 73.609375 57.269531 C 73.632812 56.21875 74.0625 57.355469 75.003906 56.871094 C 74.894531 56.382812 74.835938 55.84375 74.207031 55.871094 C 74.800781 55.25 74.328125 54.582031 75.203125 54.871094 C 75.1875 54.125 74.980469 54.300781 75.203125 53.671875 C 75.058594 53.21875 74.445312 53.234375 74.40625 52.671875 C 74.042969 53.371094 73.5 53.894531 73.210938 54.671875 C 73.109375 53.425781 74.542969 52.371094 74.007812 50.472656 C 74.324219 50.457031 74.769531 50.566406 74.804688 50.273438 C 75.03125 50.308594 74.917969 50.472656 74.804688 50.472656 C 75.550781 51.355469 76.414062 51.859375 77.597656 51.070312 C 77.59375 50.71875 76.65625 51.390625 76.402344 50.871094 C 76.71875 49.992188 77.886719 50.726562 77.996094 51.273438 C 78.765625 50.09375 81.164062 51.378906 81.785156 51.273438 C 82.125 50.253906 83.328125 51.332031 85.175781 51.074219 C 84.171875 53.867188 82.875 56.367188 81.1875 58.46875 C 80.914062 58.410156 81.019531 57.96875 80.988281 57.671875 C 80.359375 57.640625 80.300781 58.183594 80.1875 58.671875 C 79.574219 58.53125 79.804688 58.53125 79.191406 58.671875 C 79.589844 58.46875 79.648438 57.925781 79.988281 57.671875 C 79.746094 57.382812 79.230469 57.367188 78.992188 57.070312 C 78.578125 57.1875 79.28125 57.824219 79.191406 58.269531 C 78.628906 58.386719 77.460938 57.972656 77.398438 58.871094 C 76.984375 58.757812 76.976562 58.558594 77.199219 58.269531 C 76.617188 58.21875 76.433594 59.046875 77 59.070312 C 76.976562 59.449219 76.339844 59.207031 76.402344 59.667969 C 75.941406 59.066406 76.40625 58.777344 75.601562 59.269531 C 75.929688 58.078125 75.042969 58.097656 74.40625 57.871094 C 73.691406 58.460938 74.359375 59.9375 73.808594 60.46875 C 75.378906 61.527344 77.613281 62.871094 79.390625 63.070312 C 79.371094 63.566406 79.019531 63.6875 79.390625 64.070312 C 79.921875 64.132812 79.203125 62.949219 79.988281 63.269531 C 79.835938 64.578125 79.292969 65.5 78.992188 66.667969 C 77.203125 66.664062 77.695312 64.371094 76.402344 63.867188 Z M 76.402344 63.867188 " fill-opacity="1" fill-rule="nonzero"/></g></g></g></g><g mask="url(#8b7c884804)"><g transform="matrix(1, 0, 0, 1, 130, 159)"><g clip-path="url(#0a50b1d214)"><g fill="#000000" fill-opacity="1"><g transform="translate(0.368548, 43.874972)"><g><path d="M 2.765625 0 L 2.765625 -0.703125 C 3.597656 -0.953125 4.164062 -1.492188 4.46875 -2.328125 C 4.78125 -3.160156 4.9375 -4.679688 4.9375 -6.890625 L 4.9375 -31.078125 C 4.9375 -33.328125 4.78125 -34.859375 4.46875 -35.671875 C 4.164062 -36.484375 3.597656 -37.015625 2.765625 -37.265625 L 2.765625 -37.96875 L 15.734375 -37.96875 C 19.453125 -37.96875 22.628906 -37.4375 25.265625 -36.375 C 27.910156 -35.3125 30.066406 -33.890625 31.734375 -32.109375 C 33.398438 -30.335938 34.617188 -28.375 35.390625 -26.21875 C 36.171875 -24.070312 36.5625 -21.894531 36.5625 -19.6875 C 36.601562 -15.894531 35.816406 -12.515625 34.203125 -9.546875 C 32.597656 -6.578125 30.320312 -4.242188 27.375 -2.546875 C 24.425781 -0.847656 20.960938 0 16.984375 0 Z M 9.390625 -4.78125 C 9.390625 -3.507812 9.601562 -2.53125 10.03125 -1.84375 C 10.46875 -1.15625 11.425781 -0.8125 12.90625 -0.8125 L 16.875 -0.8125 C 21.613281 -0.8125 25.253906 -2.175781 27.796875 -4.90625 C 30.347656 -7.632812 31.625 -11.835938 31.625 -17.515625 C 31.625 -21.140625 30.914062 -24.429688 29.5 -27.390625 C 28.09375 -30.359375 26.015625 -32.726562 23.265625 -34.5 C 20.523438 -36.269531 17.128906 -37.15625 13.078125 -37.15625 L 9.390625 -37.15625 Z M 9.390625 -4.78125 "/></g></g></g><g fill="#000000" fill-opacity="1"><g transform="translate(39.696945, 43.874972)"><g><path d="M 10.25 0 L 10.25 -0.703125 C 11.082031 -0.953125 11.648438 -1.492188 11.953125 -2.328125 C 12.265625 -3.160156 12.40625 -4.679688 12.375 -6.890625 L 12.375 -17.09375 L 4.171875 -31.953125 C 3.128906 -33.867188 2.207031 -35.171875 1.40625 -35.859375 C 0.613281 -36.546875 -0.0703125 -37.015625 -0.65625 -37.265625 L -0.65625 -37.96875 L 7.921875 -37.96875 L 7.921875 -37.265625 C 7.128906 -37.015625 6.859375 -36.546875 7.109375 -35.859375 C 7.359375 -35.171875 8.023438 -33.867188 9.109375 -31.953125 L 16.65625 -18.5 L 24.25 -31.953125 C 25.1875 -33.617188 25.65625 -34.875 25.65625 -35.71875 C 25.65625 -36.570312 25.132812 -37.085938 24.09375 -37.265625 L 24.09375 -37.96875 L 30.546875 -37.96875 L 30.546875 -37.265625 C 29.816406 -37.015625 29.019531 -36.546875 28.15625 -35.859375 C 27.289062 -35.171875 26.3125 -33.867188 25.21875 -31.953125 L 16.921875 -17.203125 L 16.921875 -6.890625 C 16.921875 -4.679688 17.070312 -3.160156 17.375 -2.328125 C 17.6875 -1.492188 18.257812 -0.953125 19.09375 -0.703125 L 19.09375 0 Z M 10.25 0 "/></g></g></g><g fill="#000000" fill-opacity="1"><g transform="translate(69.532286, 43.874972)"><g><path d="M 2.71875 0 L 2.71875 -0.703125 C 3.539062 -0.953125 4.101562 -1.492188 4.40625 -2.328125 C 4.71875 -3.160156 4.875 -4.679688 4.875 -6.890625 L 4.875 -28.921875 C 4.875 -30.972656 4.75 -32.566406 4.5 -33.703125 C 4.25 -34.847656 3.878906 -35.671875 3.390625 -36.171875 C 2.898438 -36.679688 2.296875 -37.046875 1.578125 -37.265625 L 1.578125 -37.96875 L 8.140625 -37.96875 L 22.296875 -14.59375 L 36.1875 -37.96875 L 42.3125 -37.96875 L 42.3125 -37.265625 C 41.59375 -37.046875 40.988281 -36.679688 40.5 -36.171875 C 40.007812 -35.671875 39.632812 -34.847656 39.375 -33.703125 C 39.125 -32.566406 39 -30.972656 39 -28.921875 L 39 -6.890625 C 39 -4.679688 39.148438 -3.160156 39.453125 -2.328125 C 39.765625 -1.492188 40.335938 -0.953125 41.171875 -0.703125 L 41.171875 0 L 32.390625 0 L 32.390625 -0.703125 C 33.222656 -0.953125 33.789062 -1.492188 34.09375 -2.328125 C 34.40625 -3.160156 34.5625 -4.679688 34.5625 -6.890625 L 34.5625 -33.578125 L 20.78125 -10.3125 L 19.75 -10.3125 L 5.859375 -33.140625 L 5.859375 -9.0625 C 5.859375 -7 6.003906 -5.40625 6.296875 -4.28125 C 6.585938 -3.164062 7.003906 -2.34375 7.546875 -1.8125 C 8.085938 -1.289062 8.753906 -0.921875 9.546875 -0.703125 L 9.546875 0 Z M 2.71875 0 "/></g></g></g></g></g></g><g clip-path="url(#bb1e94825e)"><path fill="#000000" d="M 102.433594 151.390625 C 102.433594 151.390625 96.132812 151.386719 90.679688 151.429688 C 86.515625 151.460938 82.84375 151.523438 82.84375 151.523438 C 82.414062 151.53125 82.070312 151.882812 82.074219 152.316406 C 82.074219 152.316406 82.164062 181.066406 82.261719 201.957031 C 82.320312 213.871094 82.382812 223.230469 82.382812 223.230469 C 82.386719 223.636719 82.710938 223.964844 83.117188 223.964844 L 102.90625 223.847656 C 103.191406 223.847656 103.421875 223.617188 103.425781 223.332031 C 103.425781 223.042969 103.195312 222.808594 102.910156 222.808594 L 83.855469 222.5 C 83.851562 220.089844 83.84375 211.914062 83.820312 201.949219 C 83.773438 183.085938 83.667969 157.804688 83.648438 153.085938 C 84.941406 153.054688 87.695312 152.988281 90.707031 152.898438 C 96.160156 152.730469 102.453125 152.484375 102.453125 152.484375 C 102.753906 152.480469 102.996094 152.230469 102.988281 151.929688 C 102.984375 151.625 102.734375 151.382812 102.433594 151.390625 Z M 102.433594 151.390625 " fill-opacity="1" fill-rule="evenodd"/></g><g clip-path="url(#dd0cee8d44)"><path fill="#000000" d="M 272.453125 223.875 C 272.453125 223.875 278.75 223.878906 284.207031 223.839844 C 288.371094 223.808594 292.042969 223.746094 292.042969 223.746094 C 292.472656 223.738281 292.816406 223.382812 292.8125 222.953125 C 292.8125 222.953125 292.722656 194.199219 292.621094 173.3125 C 292.566406 161.394531 292.5 152.039062 292.5 152.039062 C 292.5 151.632812 292.171875 151.304688 291.769531 151.300781 L 271.980469 151.417969 C 271.695312 151.417969 271.460938 151.648438 271.460938 151.9375 C 271.460938 152.222656 271.691406 152.457031 271.976562 152.457031 L 291.03125 152.765625 C 291.03125 155.175781 291.039062 163.351562 291.066406 173.316406 C 291.113281 192.183594 291.214844 217.460938 291.234375 222.183594 C 289.941406 222.210938 287.1875 222.277344 284.179688 222.371094 C 278.726562 222.535156 272.433594 222.78125 272.433594 222.78125 C 272.128906 222.785156 271.890625 223.035156 271.898438 223.339844 C 271.902344 223.640625 272.152344 223.882812 272.453125 223.875 Z M 272.453125 223.875 " fill-opacity="1" fill-rule="evenodd"/></g><g fill="#000000" fill-opacity="1"><g transform="translate(143.114732, 214.573462)"><g><path d="M 1.140625 -6.546875 L 3.734375 -6.546875 C 4.410156 -6.546875 5.015625 -6.40625 5.546875 -6.125 C 6.078125 -5.84375 6.488281 -5.453125 6.78125 -4.953125 C 7.070312 -4.460938 7.21875 -3.90625 7.21875 -3.28125 C 7.21875 -2.644531 7.070312 -2.078125 6.78125 -1.578125 C 6.488281 -1.085938 6.078125 -0.703125 5.546875 -0.421875 C 5.015625 -0.140625 4.410156 0 3.734375 0 L 1.140625 0 Z M 3.703125 -0.4375 C 4.304688 -0.4375 4.835938 -0.554688 5.296875 -0.796875 C 5.753906 -1.035156 6.109375 -1.367188 6.359375 -1.796875 C 6.609375 -2.222656 6.734375 -2.71875 6.734375 -3.28125 C 6.734375 -3.832031 6.609375 -4.320312 6.359375 -4.75 C 6.109375 -5.1875 5.753906 -5.523438 5.296875 -5.765625 C 4.835938 -6.003906 4.304688 -6.125 3.703125 -6.125 L 1.625 -6.125 L 1.625 -0.4375 Z M 3.703125 -0.4375 "/></g></g></g><g fill="#000000" fill-opacity="1"><g transform="translate(150.839161, 214.573462)"><g><path d="M 5.125 -2.328125 L 0.921875 -2.328125 C 0.929688 -1.953125 1.023438 -1.613281 1.203125 -1.3125 C 1.390625 -1.019531 1.632812 -0.789062 1.9375 -0.625 C 2.25 -0.46875 2.597656 -0.390625 2.984375 -0.390625 C 3.304688 -0.390625 3.601562 -0.445312 3.875 -0.5625 C 4.144531 -0.675781 4.367188 -0.84375 4.546875 -1.0625 L 4.8125 -0.765625 C 4.601562 -0.503906 4.335938 -0.304688 4.015625 -0.171875 C 3.691406 -0.0351562 3.34375 0.03125 2.96875 0.03125 C 2.488281 0.03125 2.054688 -0.0703125 1.671875 -0.28125 C 1.296875 -0.488281 1 -0.78125 0.78125 -1.15625 C 0.5625 -1.53125 0.453125 -1.957031 0.453125 -2.4375 C 0.453125 -2.914062 0.550781 -3.34375 0.75 -3.71875 C 0.957031 -4.09375 1.238281 -4.382812 1.59375 -4.59375 C 1.957031 -4.8125 2.359375 -4.921875 2.796875 -4.921875 C 3.242188 -4.921875 3.640625 -4.816406 3.984375 -4.609375 C 4.335938 -4.398438 4.613281 -4.109375 4.8125 -3.734375 C 5.019531 -3.359375 5.125 -2.9375 5.125 -2.46875 Z M 2.796875 -4.515625 C 2.453125 -4.515625 2.140625 -4.4375 1.859375 -4.28125 C 1.585938 -4.125 1.367188 -3.90625 1.203125 -3.625 C 1.046875 -3.351562 0.953125 -3.046875 0.921875 -2.703125 L 4.671875 -2.703125 C 4.648438 -3.046875 4.554688 -3.351562 4.390625 -3.625 C 4.222656 -3.90625 4 -4.125 3.71875 -4.28125 C 3.445312 -4.4375 3.140625 -4.515625 2.796875 -4.515625 Z M 2.796875 -4.515625 "/></g></g></g><g fill="#000000" fill-opacity="1"><g transform="translate(156.42207, 214.573462)"><g><path d="M 4.90625 -4.890625 L 2.703125 0 L 2.234375 0 L 0.03125 -4.890625 L 0.53125 -4.890625 L 2.46875 -0.515625 L 4.4375 -4.890625 Z M 4.90625 -4.890625 "/></g></g></g><g fill="#000000" fill-opacity="1"><g transform="translate(161.359726, 214.573462)"><g><path d="M 5.125 -2.328125 L 0.921875 -2.328125 C 0.929688 -1.953125 1.023438 -1.613281 1.203125 -1.3125 C 1.390625 -1.019531 1.632812 -0.789062 1.9375 -0.625 C 2.25 -0.46875 2.597656 -0.390625 2.984375 -0.390625 C 3.304688 -0.390625 3.601562 -0.445312 3.875 -0.5625 C 4.144531 -0.675781 4.367188 -0.84375 4.546875 -1.0625 L 4.8125 -0.765625 C 4.601562 -0.503906 4.335938 -0.304688 4.015625 -0.171875 C 3.691406 -0.0351562 3.34375 0.03125 2.96875 0.03125 C 2.488281 0.03125 2.054688 -0.0703125 1.671875 -0.28125 C 1.296875 -0.488281 1 -0.78125 0.78125 -1.15625 C 0.5625 -1.53125 0.453125 -1.957031 0.453125 -2.4375 C 0.453125 -2.914062 0.550781 -3.34375 0.75 -3.71875 C 0.957031 -4.09375 1.238281 -4.382812 1.59375 -4.59375 C 1.957031 -4.8125 2.359375 -4.921875 2.796875 -4.921875 C 3.242188 -4.921875 3.640625 -4.816406 3.984375 -4.609375 C 4.335938 -4.398438 4.613281 -4.109375 4.8125 -3.734375 C 5.019531 -3.359375 5.125 -2.9375 5.125 -2.46875 Z M 2.796875 -4.515625 C 2.453125 -4.515625 2.140625 -4.4375 1.859375 -4.28125 C 1.585938 -4.125 1.367188 -3.90625 1.203125 -3.625 C 1.046875 -3.351562 0.953125 -3.046875 0.921875 -2.703125 L 4.671875 -2.703125 C 4.648438 -3.046875 4.554688 -3.351562 4.390625 -3.625 C 4.222656 -3.90625 4 -4.125 3.71875 -4.28125 C 3.445312 -4.4375 3.140625 -4.515625 2.796875 -4.515625 Z M 2.796875 -4.515625 "/></g></g></g><g fill="#000000" fill-opacity="1"><g transform="translate(166.942634, 214.573462)"><g><path d="M 0.984375 -6.9375 L 1.453125 -6.9375 L 1.453125 0 L 0.984375 0 Z M 0.984375 -6.9375 "/></g></g></g><g fill="#000000" fill-opacity="1"><g transform="translate(169.383407, 214.573462)"><g><path d="M 2.90625 0.03125 C 2.4375 0.03125 2.015625 -0.0703125 1.640625 -0.28125 C 1.273438 -0.488281 0.984375 -0.78125 0.765625 -1.15625 C 0.554688 -1.539062 0.453125 -1.96875 0.453125 -2.4375 C 0.453125 -2.914062 0.554688 -3.34375 0.765625 -3.71875 C 0.984375 -4.09375 1.273438 -4.382812 1.640625 -4.59375 C 2.015625 -4.8125 2.4375 -4.921875 2.90625 -4.921875 C 3.363281 -4.921875 3.773438 -4.8125 4.140625 -4.59375 C 4.515625 -4.382812 4.804688 -4.09375 5.015625 -3.71875 C 5.234375 -3.34375 5.34375 -2.914062 5.34375 -2.4375 C 5.34375 -1.96875 5.234375 -1.539062 5.015625 -1.15625 C 4.804688 -0.78125 4.515625 -0.488281 4.140625 -0.28125 C 3.773438 -0.0703125 3.363281 0.03125 2.90625 0.03125 Z M 2.90625 -0.390625 C 3.28125 -0.390625 3.613281 -0.472656 3.90625 -0.640625 C 4.207031 -0.816406 4.441406 -1.0625 4.609375 -1.375 C 4.773438 -1.6875 4.859375 -2.039062 4.859375 -2.4375 C 4.859375 -2.84375 4.773438 -3.203125 4.609375 -3.515625 C 4.441406 -3.828125 4.207031 -4.066406 3.90625 -4.234375 C 3.613281 -4.410156 3.28125 -4.5 2.90625 -4.5 C 2.53125 -4.5 2.191406 -4.410156 1.890625 -4.234375 C 1.597656 -4.066406 1.363281 -3.828125 1.1875 -3.515625 C 1.019531 -3.203125 0.9375 -2.84375 0.9375 -2.4375 C 0.9375 -2.039062 1.019531 -1.6875 1.1875 -1.375 C 1.363281 -1.0625 1.597656 -0.816406 1.890625 -0.640625 C 2.191406 -0.472656 2.53125 -0.390625 2.90625 -0.390625 Z M 2.90625 -0.390625 "/></g></g></g><g fill="#000000" fill-opacity="1"><g transform="translate(175.181407, 214.573462)"><g><path d="M 3.4375 -4.921875 C 3.894531 -4.921875 4.304688 -4.8125 4.671875 -4.59375 C 5.046875 -4.382812 5.335938 -4.09375 5.546875 -3.71875 C 5.753906 -3.34375 5.859375 -2.914062 5.859375 -2.4375 C 5.859375 -1.957031 5.753906 -1.53125 5.546875 -1.15625 C 5.335938 -0.78125 5.046875 -0.488281 4.671875 -0.28125 C 4.304688 -0.0703125 3.894531 0.03125 3.4375 0.03125 C 3.007812 0.03125 2.617188 -0.0664062 2.265625 -0.265625 C 1.921875 -0.472656 1.648438 -0.753906 1.453125 -1.109375 L 1.453125 1.8125 L 0.984375 1.8125 L 0.984375 -4.890625 L 1.4375 -4.890625 L 1.4375 -3.734375 C 1.632812 -4.109375 1.910156 -4.398438 2.265625 -4.609375 C 2.617188 -4.816406 3.007812 -4.921875 3.4375 -4.921875 Z M 3.421875 -0.390625 C 3.796875 -0.390625 4.128906 -0.472656 4.421875 -0.640625 C 4.722656 -0.816406 4.957031 -1.0625 5.125 -1.375 C 5.300781 -1.6875 5.390625 -2.039062 5.390625 -2.4375 C 5.390625 -2.84375 5.300781 -3.203125 5.125 -3.515625 C 4.957031 -3.828125 4.722656 -4.066406 4.421875 -4.234375 C 4.128906 -4.410156 3.796875 -4.5 3.421875 -4.5 C 3.046875 -4.5 2.707031 -4.410156 2.40625 -4.234375 C 2.113281 -4.066406 1.878906 -3.828125 1.703125 -3.515625 C 1.535156 -3.203125 1.453125 -2.84375 1.453125 -2.4375 C 1.453125 -2.039062 1.535156 -1.6875 1.703125 -1.375 C 1.878906 -1.0625 2.113281 -0.816406 2.40625 -0.640625 C 2.707031 -0.472656 3.046875 -0.390625 3.421875 -0.390625 Z M 3.421875 -0.390625 "/></g></g></g><g fill="#000000" fill-opacity="1"><g transform="translate(181.493738, 214.573462)"><g/></g></g><g fill="#000000" fill-opacity="1"><g transform="translate(183.897101, 214.573462)"><g><path d="M 3.15625 -2.25 L 3.15625 0 L 2.6875 0 L 2.6875 -2.25 L 0.046875 -6.546875 L 0.578125 -6.546875 L 2.9375 -2.703125 L 5.3125 -6.546875 L 5.796875 -6.546875 Z M 3.15625 -2.25 "/></g></g></g><g fill="#000000" fill-opacity="1"><g transform="translate(189.741861, 214.573462)"><g><path d="M 2.90625 0.03125 C 2.4375 0.03125 2.015625 -0.0703125 1.640625 -0.28125 C 1.273438 -0.488281 0.984375 -0.78125 0.765625 -1.15625 C 0.554688 -1.539062 0.453125 -1.96875 0.453125 -2.4375 C 0.453125 -2.914062 0.554688 -3.34375 0.765625 -3.71875 C 0.984375 -4.09375 1.273438 -4.382812 1.640625 -4.59375 C 2.015625 -4.8125 2.4375 -4.921875 2.90625 -4.921875 C 3.363281 -4.921875 3.773438 -4.8125 4.140625 -4.59375 C 4.515625 -4.382812 4.804688 -4.09375 5.015625 -3.71875 C 5.234375 -3.34375 5.34375 -2.914062 5.34375 -2.4375 C 5.34375 -1.96875 5.234375 -1.539062 5.015625 -1.15625 C 4.804688 -0.78125 4.515625 -0.488281 4.140625 -0.28125 C 3.773438 -0.0703125 3.363281 0.03125 2.90625 0.03125 Z M 2.90625 -0.390625 C 3.28125 -0.390625 3.613281 -0.472656 3.90625 -0.640625 C 4.207031 -0.816406 4.441406 -1.0625 4.609375 -1.375 C 4.773438 -1.6875 4.859375 -2.039062 4.859375 -2.4375 C 4.859375 -2.84375 4.773438 -3.203125 4.609375 -3.515625 C 4.441406 -3.828125 4.207031 -4.066406 3.90625 -4.234375 C 3.613281 -4.410156 3.28125 -4.5 2.90625 -4.5 C 2.53125 -4.5 2.191406 -4.410156 1.890625 -4.234375 C 1.597656 -4.066406 1.363281 -3.828125 1.1875 -3.515625 C 1.019531 -3.203125 0.9375 -2.84375 0.9375 -2.4375 C 0.9375 -2.039062 1.019531 -1.6875 1.1875 -1.375 C 1.363281 -1.0625 1.597656 -0.816406 1.890625 -0.640625 C 2.191406 -0.472656 2.53125 -0.390625 2.90625 -0.390625 Z M 2.90625 -0.390625 "/></g></g></g><g fill="#000000" fill-opacity="1"><g transform="translate(195.539861, 214.573462)"><g><path d="M 5.265625 -4.890625 L 5.265625 0 L 4.8125 0 L 4.8125 -1.046875 C 4.65625 -0.703125 4.414062 -0.4375 4.09375 -0.25 C 3.78125 -0.0625 3.40625 0.03125 2.96875 0.03125 C 2.332031 0.03125 1.832031 -0.144531 1.46875 -0.5 C 1.113281 -0.851562 0.9375 -1.363281 0.9375 -2.03125 L 0.9375 -4.890625 L 1.40625 -4.890625 L 1.40625 -2.0625 C 1.40625 -1.519531 1.546875 -1.101562 1.828125 -0.8125 C 2.109375 -0.53125 2.503906 -0.390625 3.015625 -0.390625 C 3.566406 -0.390625 4 -0.554688 4.3125 -0.890625 C 4.632812 -1.234375 4.796875 -1.695312 4.796875 -2.28125 L 4.796875 -4.890625 Z M 5.265625 -4.890625 "/></g></g></g><g fill="#000000" fill-opacity="1"><g transform="translate(201.796094, 214.573462)"><g><path d="M 1.4375 -3.8125 C 1.59375 -4.175781 1.828125 -4.453125 2.140625 -4.640625 C 2.460938 -4.828125 2.847656 -4.921875 3.296875 -4.921875 L 3.296875 -4.46875 L 3.1875 -4.46875 C 2.644531 -4.46875 2.21875 -4.296875 1.90625 -3.953125 C 1.601562 -3.617188 1.453125 -3.148438 1.453125 -2.546875 L 1.453125 0 L 0.984375 0 L 0.984375 -4.890625 L 1.4375 -4.890625 Z M 1.4375 -3.8125 "/></g></g></g><g fill="#000000" fill-opacity="1"><g transform="translate(205.480633, 214.573462)"><g/></g></g><g fill="#000000" fill-opacity="1"><g transform="translate(207.883995, 214.573462)"><g><path d="M 7.34375 0 L 7.328125 -5.609375 L 4.59375 -0.875 L 4.359375 -0.875 L 1.609375 -5.59375 L 1.609375 0 L 1.140625 0 L 1.140625 -6.546875 L 1.546875 -6.546875 L 4.46875 -1.484375 L 7.40625 -6.546875 L 7.796875 -6.546875 L 7.8125 0 Z M 7.34375 0 "/></g></g></g><g fill="#000000" fill-opacity="1"><g transform="translate(216.824131, 214.573462)"><g><path d="M 0.984375 -4.890625 L 1.453125 -4.890625 L 1.453125 0 L 0.984375 0 Z M 1.21875 -6.078125 C 1.113281 -6.078125 1.023438 -6.113281 0.953125 -6.1875 C 0.878906 -6.257812 0.84375 -6.347656 0.84375 -6.453125 C 0.84375 -6.554688 0.878906 -6.644531 0.953125 -6.71875 C 1.023438 -6.789062 1.113281 -6.828125 1.21875 -6.828125 C 1.320312 -6.828125 1.410156 -6.789062 1.484375 -6.71875 C 1.566406 -6.644531 1.609375 -6.554688 1.609375 -6.453125 C 1.609375 -6.347656 1.566406 -6.257812 1.484375 -6.1875 C 1.410156 -6.113281 1.320312 -6.078125 1.21875 -6.078125 Z M 1.21875 -6.078125 "/></g></g></g><g fill="#000000" fill-opacity="1"><g transform="translate(219.264904, 214.573462)"><g><path d="M 3.375 -4.921875 C 3.988281 -4.921875 4.472656 -4.742188 4.828125 -4.390625 C 5.179688 -4.035156 5.359375 -3.523438 5.359375 -2.859375 L 5.359375 0 L 4.890625 0 L 4.890625 -2.8125 C 4.890625 -3.363281 4.75 -3.78125 4.46875 -4.0625 C 4.195312 -4.351562 3.8125 -4.5 3.3125 -4.5 C 2.738281 -4.5 2.285156 -4.328125 1.953125 -3.984375 C 1.617188 -3.640625 1.453125 -3.179688 1.453125 -2.609375 L 1.453125 0 L 0.984375 0 L 0.984375 -4.890625 L 1.4375 -4.890625 L 1.4375 -3.828125 C 1.601562 -4.171875 1.851562 -4.4375 2.1875 -4.625 C 2.53125 -4.820312 2.925781 -4.921875 3.375 -4.921875 Z M 3.375 -4.921875 "/></g></g></g><g fill="#000000" fill-opacity="1"><g transform="translate(225.558536, 214.573462)"><g><path d="M 5.328125 -6.9375 L 5.328125 0 L 4.875 0 L 4.875 -1.15625 C 4.6875 -0.769531 4.414062 -0.472656 4.0625 -0.265625 C 3.707031 -0.0664062 3.3125 0.03125 2.875 0.03125 C 2.414062 0.03125 2 -0.0703125 1.625 -0.28125 C 1.257812 -0.488281 0.972656 -0.78125 0.765625 -1.15625 C 0.554688 -1.53125 0.453125 -1.957031 0.453125 -2.4375 C 0.453125 -2.914062 0.554688 -3.34375 0.765625 -3.71875 C 0.972656 -4.101562 1.257812 -4.398438 1.625 -4.609375 C 2 -4.816406 2.414062 -4.921875 2.875 -4.921875 C 3.3125 -4.921875 3.703125 -4.816406 4.046875 -4.609375 C 4.390625 -4.410156 4.660156 -4.125 4.859375 -3.75 L 4.859375 -6.9375 Z M 2.90625 -0.390625 C 3.28125 -0.390625 3.613281 -0.472656 3.90625 -0.640625 C 4.207031 -0.816406 4.441406 -1.0625 4.609375 -1.375 C 4.773438 -1.6875 4.859375 -2.039062 4.859375 -2.4375 C 4.859375 -2.84375 4.773438 -3.203125 4.609375 -3.515625 C 4.441406 -3.828125 4.207031 -4.066406 3.90625 -4.234375 C 3.613281 -4.410156 3.28125 -4.5 2.90625 -4.5 C 2.53125 -4.5 2.191406 -4.410156 1.890625 -4.234375 C 1.597656 -4.066406 1.363281 -3.828125 1.1875 -3.515625 C 1.019531 -3.203125 0.9375 -2.84375 0.9375 -2.4375 C 0.9375 -2.039062 1.019531 -1.6875 1.1875 -1.375 C 1.363281 -1.0625 1.597656 -0.816406 1.890625 -0.640625 C 2.191406 -0.472656 2.53125 -0.390625 2.90625 -0.390625 Z M 2.90625 -0.390625 "/></g></g></g></svg>